<?xml version="1.0" encoding="utf-8"?>
<!-- Generator: Adobe Illustrator 28.6.0, SVG Export Plug-In . SVG Version: 9.03 Build 54939)  -->
<svg version="1.1" id="Layer_1" xmlns="http://www.w3.org/2000/svg" xmlns:xlink="http://www.w3.org/1999/xlink" x="0px" y="0px"
	 viewBox="0 0 935.1 1080" style="enable-background:new 0 0 935.1 1080;" xml:space="preserve">
<style type="text/css">
	.st0{fill:none;stroke:#FFFFFF;}
	.st1{fill:url(#Subtraction_3_00000127753151667803313150000010912787704305041539_);}
</style>
<g id="Group_106" transform="translate(386.208 -6201.292)">
	<line id="Line_51" class="st0" x1="548.4" y1="6340.8" x2="548.4" y2="7115.8"/>
	
		<linearGradient id="Subtraction_3_00000052800375977952584780000013687928650238286239_" gradientUnits="userSpaceOnUse" x1="-411.4482" y1="7336.5693" x2="-412.3652" y2="7336.3765" gradientTransform="matrix(789.862 -736.5582 -736.5582 -789.862 5729122.5 5498125)">
		<stop  offset="0" style="stop-color:#FFFFFF"/>
		<stop  offset="1" style="stop-color:#808080;stop-opacity:0"/>
	</linearGradient>
	<path id="Subtraction_3" style="fill:url(#Subtraction_3_00000052800375977952584780000013687928650238286239_);" d="M377.2,7136.2
		c-13.5,12.6-27.6,24.5-42.3,35.6c-14.4,10.9-29.4,21.1-44.8,30.6c-15.2,9.3-30.9,17.9-46.9,25.6c-15.8,7.6-32.2,14.5-48.7,20.6
		c-16.3,6-33.2,11.2-50,15.6c-16.7,4.3-33.9,7.9-51,10.6c-17,2.7-34.4,4.6-51.6,5.6c-17.2,1-34.6,1.3-51.8,0.7
		c-17.2-0.6-34.6-2-51.6-4.3c-17.1-2.2-34.3-5.3-51.1-9.2c-16.9-3.9-33.8-8.6-50.1-14.1c-16.5-5.5-32.9-11.9-48.8-19
		c-16-7.2-31.9-15.2-47.1-23.9c-15.4-8.8-30.6-18.5-45-28.8c-14.7-10.5-28.9-21.7-42.6-33.6c-13.9-12.2-27.1-25-39.7-38.5l-0.2-0.2
		c12.6,13.5,25.8,26.3,39.7,38.4c13.6,11.9,27.8,23.1,42.5,33.6c14.5,10.3,29.6,19.9,45,28.7c15.2,8.7,31.1,16.7,47.1,23.9
		c15.9,7.1,32.3,13.5,48.8,19c16.4,5.5,33.2,10.2,50.1,14.1c16.8,3.9,33.9,6.9,51,9.2c17,2.2,34.4,3.7,51.6,4.3
		c17.2,0.6,34.6,0.4,51.8-0.7c17.2-1,34.5-2.9,51.5-5.6c17.1-2.7,34.2-6.3,50.9-10.6c16.8-4.4,33.7-9.6,50-15.5
		c16.5-6,32.8-12.9,48.6-20.5c16-7.7,31.7-16.3,46.9-25.5c15.4-9.4,30.3-19.6,44.7-30.5c14.7-11.1,28.8-23,42.2-35.6
		c13.5-12.6,26.3-25.8,38.4-39.7c11.9-13.6,23.1-27.8,33.6-42.5c10.3-14.5,20-29.6,28.7-45c8.7-15.2,16.7-31.1,23.9-47.1
		c7.1-15.9,13.5-32.3,19-48.8c5.5-16.4,10.2-33.2,14.1-50.1c3.9-16.8,7-34,9.2-51c2.2-17,3.7-34.4,4.3-51.6s0.4-34.6-0.7-51.8
		c-1-17.2-2.9-34.5-5.6-51.6c-2.7-17.1-6.2-34.2-10.6-51c-4.4-16.8-9.6-33.7-15.5-50c-6-16.5-12.9-32.8-20.5-48.6
		c-7.7-16-16.3-31.7-25.5-46.9c-9.4-15.4-19.6-30.4-30.6-44.8c-11.1-14.7-23-28.8-35.6-42.2c-12.6-13.5-25.8-26.3-39.6-38.4
		c-13.6-11.9-27.8-23.1-42.5-33.6c-14.5-10.3-29.6-20-45-28.7c-15.2-8.7-31-16.7-47.1-23.9c-15.9-7.1-32.3-13.5-48.8-19
		c-16.4-5.5-33.2-10.2-50.1-14.1c-16.8-3.9-33.9-7-51-9.2c-17-2.2-34.4-3.7-51.6-4.3s-34.6-0.4-51.8,0.7c-17.2,1-34.5,2.9-51.5,5.6
		c-17.1,2.7-34.2,6.2-51,10.6c-16.8,4.3-33.7,9.6-50,15.5c-16.5,6-32.8,12.9-48.6,20.5c-16,7.7-31.7,16.3-46.9,25.5
		c-15.4,9.4-30.4,19.6-44.8,30.5c-14,10.6-27.8,22.1-40.8,34.2c13.1-12.1,26.9-23.7,41-34.4c14.4-10.9,29.4-21.1,44.8-30.6
		c15.2-9.3,30.9-17.9,46.9-25.6c15.8-7.6,32.2-14.5,48.7-20.6c16.3-6,33.2-11.2,50-15.6c16.7-4.3,33.9-7.9,51-10.6
		c17-2.7,34.4-4.6,51.6-5.6c17.2-1,34.6-1.3,51.8-0.7s34.6,2,51.6,4.3c17.1,2.2,34.3,5.3,51.1,9.2c16.9,3.9,33.7,8.6,50.1,14.1
		c16.5,5.5,32.9,11.9,48.8,19c16,7.2,31.9,15.2,47.1,23.9c15.4,8.8,30.6,18.5,45,28.8c14.7,10.5,28.9,21.7,42.6,33.6
		c13.9,12.2,27.1,25,39.7,38.5c12.6,13.5,24.5,27.6,35.6,42.3c10.9,14.4,21.1,29.4,30.6,44.8c9.3,15.2,17.9,30.9,25.6,46.9
		c7.6,15.8,14.5,32.2,20.6,48.7c6,16.3,11.2,33.2,15.6,50c4.3,16.7,7.9,33.9,10.6,51c2.7,17,4.6,34.4,5.6,51.6
		c1,17.2,1.3,34.6,0.7,51.8c-0.6,17.2-2,34.6-4.3,51.6c-2.2,17.1-5.3,34.3-9.2,51.1c-3.9,16.9-8.6,33.7-14.1,50.1
		c-5.5,16.5-11.9,32.9-19,48.8c-7.2,16-15.2,31.9-23.9,47.1c-8.8,15.4-18.5,30.6-28.8,45c-10.5,14.7-21.7,28.9-33.6,42.6
		C403.5,7110.4,390.7,7123.6,377.2,7136.2z"/>
</g>
</svg>
