<svg id="Group_44" data-name="Group 44" xmlns="http://www.w3.org/2000/svg" xmlns:xlink="http://www.w3.org/1999/xlink" width="422.706" height="47.429" viewBox="0 0 422.706 47.429">
  <defs>
    <clipPath id="clip-path">
      <rect id="Rectangle_31" data-name="Rectangle 31" width="422.706" height="47.429" fill="none"/>
    </clipPath>
  </defs>
  <g id="Group_43" data-name="Group 43" transform="translate(0 0)" clip-path="url(#clip-path)">
    <path id="Path_472" data-name="Path 472" d="M40.551,39.9c-3.3,3.582-8.454,5.3-15.189,5.3H22.926a26.539,26.539,0,0,1-3.582-.143,6.851,6.851,0,0,1-2.723-.716A3.572,3.572,0,0,1,15.045,42.2a10.818,10.818,0,0,1-.43-3.3V6.948A10.674,10.674,0,0,1,14.9,4.369a2.852,2.852,0,0,1,1.146-1.719,3.106,3.106,0,0,1,2.006-.716c.716,0,1.576-.143,2.579-.143h3.3c6.878,0,12.323,1.863,16.048,5.3,3.726,3.582,5.588,9.171,5.588,16.478s-1.719,12.9-5.015,16.335m5.3-33.243a26.018,26.018,0,0,0-8.884-4.585A45.931,45.931,0,0,0,24.646.5H19.774C18.2.5,16.765.643,15.332.643c-1.433.143-2.866.143-4.3.143H2.579C1.719.787.86.643,0,.643v.43q1.719.215,3.009.43a11.89,11.89,0,0,1,2.866.716A4.308,4.308,0,0,1,7.738,4.512a14.149,14.149,0,0,1,.43,4.012V38.185a22.557,22.557,0,0,1-.287,3.582,4.536,4.536,0,0,1-1.433,2.579,5.228,5.228,0,0,1-2.866,1,20.231,20.231,0,0,1-3.152.143v.287H20.347A66.859,66.859,0,0,0,35.536,44.2,26.742,26.742,0,0,0,45.71,39.618,16.862,16.862,0,0,0,51.441,32.6,24.178,24.178,0,0,0,53.3,23.14a22.519,22.519,0,0,0-1.863-9.6,23.6,23.6,0,0,0-5.588-6.878" transform="translate(0 0.216)" fill="#fff"/>
    <path id="Path_473" data-name="Path 473" d="M74.716,39.961V8.151c0-3.152,1.29-6.878,7.594-7.165V.7H60.1V.987c6.735.287,8.168,4.012,8.168,7.165v31.81c0,2.579-1.433,5.588-7.881,5.875v.287H82.6v-.287c-6.448-.287-7.881-3.3-7.881-5.875" transform="translate(26.017 0.303)" fill="#fff"/>
    <path id="Path_474" data-name="Path 474" d="M111.805,24.7a9.047,9.047,0,0,1,.573-1.29L118.11,11.52a2.551,2.551,0,0,1,4.585,0L128.14,23.7a6.986,6.986,0,0,0,.43,1A2.593,2.593,0,0,1,128.427,27a2.287,2.287,0,0,1-2.006,1.146H115.387A5.373,5.373,0,0,1,113.811,28a2.814,2.814,0,0,1-1.863-1.29,1.918,1.918,0,0,1-.143-2.006m.86,21.064c-4.872-.143-7.308-1.576-7.308-4.155a4.027,4.027,0,0,1,.43-2.149l2.723-7.308c.43-1.146,1.576-2.436,4.729-2.436h12.323c1.146,0,4.585,0,5.732,2.149,0,.143.143.143.143.287l3.726,8.741a10.885,10.885,0,0,1,.573,1.576v.143a2.357,2.357,0,0,1-1.719,2.579c-.43.143-.86.287-1.433.43-.716.143-1.576.287-2.436.43-.573,0-1.146.143-1.576.143v.43h20.92V45.91c-1.146-.287-2.006-.43-2.579-.573a6.5,6.5,0,0,1-1.146-.287,1.086,1.086,0,0,1-.573-.287,6.616,6.616,0,0,1-1.863-1.863c-.143-.143-.287-.287-.287-.43L123.555.63,122.265.2,102.778,40.178a10.112,10.112,0,0,1-3.152,4.012A7.967,7.967,0,0,1,95.9,45.766v.716h16.765Z" transform="translate(41.515 0.087)" fill="#fff"/>
    <path id="Path_475" data-name="Path 475" d="M194.477,45.836v.287H215.97v-.287c-6.161-.287-7.594-3.726-7.594-6.591l-.86-33.1a8.387,8.387,0,0,1,.287-1.863,3.185,3.185,0,0,1,1.29-1.863,8.156,8.156,0,0,1,2.723-1.146A22.558,22.558,0,0,1,215.4.987V.7H200.065L185.736,33.084a2.99,2.99,0,0,1-2.293,1.576,2.553,2.553,0,0,1-2.293-1.433L166.105.843H150.487V1.13a26.315,26.315,0,0,1,3.726.287,6.786,6.786,0,0,1,2.866.86,1.978,1.978,0,0,1,.573.43,3.12,3.12,0,0,1,1,1.29,7.193,7.193,0,0,1,.287,1.719v.716l-.716,31.954c-.143,3.3-1.719,7.308-8.024,7.738v.287h18.2v-.287c-3.009-.143-5.158-.86-6.591-2.293a6.741,6.741,0,0,1-1.719-4.872l.287-24.5a2.587,2.587,0,0,1,2.006-2.436h.573a2.553,2.553,0,0,1,2.293,1.433L180.864,46.41h1.146l14.472-33.1a2.456,2.456,0,0,1,2.293-1.576h.573a2.587,2.587,0,0,1,2.006,2.436l.43,25.792c0,2.436-1.29,5.588-7.308,5.875" transform="translate(65.022 0.303)" fill="#fff"/>
    <path id="Path_476" data-name="Path 476" d="M247.127,27.139a2.287,2.287,0,0,1-2.006,1.146H234.087a5.373,5.373,0,0,1-1.576-.143,2.814,2.814,0,0,1-1.863-1.29,2.593,2.593,0,0,1-.143-2.293,9.045,9.045,0,0,1,.573-1.29l5.732-11.893a2.551,2.551,0,0,1,4.585,0l5.445,12.18a6.986,6.986,0,0,0,.43,1,2.7,2.7,0,0,1-.143,2.579M264.465,45.05a1.086,1.086,0,0,1-.573-.287,6.616,6.616,0,0,1-1.863-1.863c-.143-.143-.287-.287-.287-.43L242.255.63,240.965.2,221.478,40.178a10.112,10.112,0,0,1-3.152,4.012,7.967,7.967,0,0,1-3.726,1.576v.716h16.765v-.716c-4.872-.143-7.308-1.576-7.308-4.155a4.027,4.027,0,0,1,.43-2.149l2.723-7.308c.43-1.146,1.576-2.436,4.729-2.436h12.323c1.146,0,4.585,0,5.732,2.149,0,.143.143.143.143.287l3.726,8.741a10.881,10.881,0,0,1,.573,1.576v.143a2.357,2.357,0,0,1-1.719,2.579c-.43.143-.86.287-1.433.43-.716.143-1.576.287-2.436.43a6.426,6.426,0,0,1-1.576.143v.43h20.92V45.91c-1.146-.287-2.006-.43-2.579-.573a6.446,6.446,0,0,0-1.146-.287" transform="translate(92.9 0.087)" fill="#fff"/>
    <path id="Path_477" data-name="Path 477" d="M303.987,27.8a11.312,11.312,0,0,0-4.3-3.869,39.842,39.842,0,0,0-6.878-2.866c-2.722-.86-5.875-1.863-9.314-3.152a19.1,19.1,0,0,1-6.448-3.582,6.661,6.661,0,0,1-2.293-5.158,7.356,7.356,0,0,1,3.152-6.161c2.006-1.576,4.729-2.293,8.168-2.293a14.186,14.186,0,0,1,10.174,3.726,19.4,19.4,0,0,1,5.588,9.027h.86a52.107,52.107,0,0,0-.43-6.878,45.115,45.115,0,0,0-1.29-6.018A16.489,16.489,0,0,0,297.4,2.293a2.311,2.311,0,0,1-1.29.43,2.438,2.438,0,0,1-1-.143c-1.146-.43-2.579-1-3.869-1.576A13.691,13.691,0,0,0,285.5,0a18.224,18.224,0,0,0-5.588.86,13.119,13.119,0,0,0-4.585,2.579,13.838,13.838,0,0,0-3.152,3.869,11.241,11.241,0,0,0-1.146,5.015,10.131,10.131,0,0,0,1.719,6.161,12.762,12.762,0,0,0,4.729,3.869,37.287,37.287,0,0,0,7.164,2.866c2.723.86,5.732,1.719,8.741,2.579,2.722.86,4.872,2.006,6.161,3.582a8.612,8.612,0,0,1,2.006,5.588,7.476,7.476,0,0,1-1.433,4.442,9.705,9.705,0,0,1-3.439,2.866A21.154,21.154,0,0,1,292.523,46a22.481,22.481,0,0,1-4.012.573,19.315,19.315,0,0,1-6.018-1.146,18.312,18.312,0,0,1-5.445-3.009,16.019,16.019,0,0,1-4.012-4.729,12.744,12.744,0,0,1-1.576-5.3h-.86a51.767,51.767,0,0,0,.43,6.3c.287,2.436.716,5.3,1.146,8.6a6.068,6.068,0,0,0,2.006-.86c.716-.43,1.433-.716,2.293-1.29a2.129,2.129,0,0,1,1.29-.287,2.311,2.311,0,0,1,1.29.43l.287.143a11.031,11.031,0,0,0,2.149.86,29.736,29.736,0,0,0,3.439.86,24.709,24.709,0,0,0,4.872.287,21.725,21.725,0,0,0,7.308-1.146,14.828,14.828,0,0,0,4.872-3.009,11.514,11.514,0,0,0,2.723-4.3,14.557,14.557,0,0,0,.86-4.872,16.827,16.827,0,0,0-1.576-6.3" transform="translate(117.143 0)" fill="#fff"/>
  </g>
</svg>
