<?xml version="1.0" encoding="UTF-8"?>
<svg xmlns="http://www.w3.org/2000/svg" version="1.1" viewBox="0 0 503.79 35.85">
  <defs>
    <style>
      .cls-1 {
        fill: #fdfbfb;
      }
    </style>
  </defs>
  <!-- Generator: Adobe Illustrator 28.7.2, SVG Export Plug-In . SVG Version: 1.2.0 Build 154)  -->
  <g>
    <g id="Layer_1">
      <g>
        <path class="cls-1" d="M14.23,0c2.56,0,4.79.55,6.69,1.64l1.35.78c.27.16.52.25.74.25.27,0,.48-.11.62-.33l.43-.64c.07-.11.19-.16.37-.16.42,0,.64.44.64,1.33l.02,1.5v1.87l.16,1.56.18.92c.08.45.12.85.12,1.21,0,.52-.19.78-.57.78-.22,0-.36-.16-.43-.49-.11-.52-.49-1.31-1.14-2.38s-1.27-1.92-1.86-2.55c-2.38-2.56-5.03-3.85-7.94-3.85-2.59,0-4.69,1.06-6.3,3.18-1.61,2.12-2.42,4.88-2.42,8.26,0,4.42,1.32,7.95,3.96,10.59,1.98,1.97,4.15,2.95,6.49,2.95,1.38,0,2.85-.33,4.39-.99s2.76-1.48,3.65-2.46l1.33-1.45c.19-.22.38-.33.55-.35.26-.01.39.14.39.45,0,.56-.54,1.46-1.62,2.69-2.83,3.2-6.32,4.8-10.48,4.8s-7.28-1.29-9.79-3.86S0,19.33,0,15.22c0-2.26.47-4.46,1.42-6.62s2.2-3.92,3.77-5.27C7.77,1.11,10.79,0,14.23,0Z"/>
        <path class="cls-1" d="M37.65,11.22c2.58,0,4.72.82,6.4,2.46s2.52,3.72,2.52,6.25-.91,4.79-2.74,6.54c-1.83,1.75-4.1,2.63-6.82,2.63-2.56,0-4.69-.81-6.39-2.44-1.7-1.63-2.55-3.67-2.55-6.12,0-2.58.93-4.78,2.8-6.6,1.87-1.82,4.13-2.72,6.78-2.72ZM36.59,12.35c-1.32,0-2.37.56-3.15,1.68-.78,1.12-1.16,2.62-1.16,4.51,0,2.59.6,4.81,1.8,6.66,1.2,1.85,2.64,2.78,4.33,2.78,1.28,0,2.33-.53,3.14-1.58.81-1.06,1.22-2.41,1.22-4.08,0-2.78-.6-5.13-1.8-7.07-1.2-1.93-2.66-2.9-4.37-2.9Z"/>
        <path class="cls-1" d="M68.11,19.89v4.15c0,.89.05,1.49.14,1.81.1.32.31.62.66.91.49.4,1.12.63,1.89.72.42.05.64.22.64.49,0,.41-.49.62-1.46.62-.21,0-.5-.03-.88-.08l-1.34-.15c-.6-.06-1.08-.1-1.42-.1-1.3,0-2.34.08-3.12.24-.32.06-.59.09-.82.09-.3,0-.45-.15-.45-.45,0-.22.16-.39.47-.51.6-.21,1-.53,1.21-.96s.31-1.18.31-2.21v-4.84c0-1.86-.37-3.33-1.11-4.42-.74-1.09-1.75-1.63-3.03-1.63-1.14,0-2.06.31-2.76.94-.7.63-1.05,1.45-1.05,2.46v6.84c0,1.26.24,2.17.71,2.75.47.58,1.27.92,2.39,1.01.38.04.57.2.57.47,0,.38-.24.57-.72.57-.45,0-.99-.03-1.62-.1-1.55-.19-2.62-.29-3.21-.29-.79,0-1.71.07-2.75.22-.49.07-.83.11-1.01.11-.34,0-.51-.14-.51-.43,0-.19.12-.33.35-.43.7-.26,1.14-.54,1.33-.85s.29-.87.29-1.69l.02-.68v-7.22l-.02-.8c0-.98-.1-1.66-.3-2.04s-.56-.56-1.1-.56h-.94c-.14,0-.24-.04-.31-.12-.07-.07-.1-.17-.1-.31,0-.26.1-.44.31-.54s.81-.28,1.81-.52c1.71-.4,3.15-.99,4.3-1.78.1-.08.18-.12.27-.12.16-.01.25.12.25.39l-.06,1.03-.02,1.17.12.78c.05.16.14.25.27.27.11.01.33-.17.66-.55,1.26-1.53,2.91-2.3,4.97-2.3,2.22,0,3.81.67,4.77,2.01.96,1.34,1.43,3.56,1.43,6.66Z"/>
        <path class="cls-1" d="M82.85,11.22c2.2,0,3.71.56,4.51,1.68.51.68.76,1.25.76,1.7s-.62,1-1.86,1.68l-.87.49c-.15.08-.27.12-.35.12-.36,0-.56-.26-.6-.78-.07-.99-.45-1.85-1.13-2.56-.69-.71-1.46-1.07-2.33-1.07-1.13,0-2.07.54-2.83,1.62-.76,1.08-1.14,2.43-1.14,4.03,0,2.49.56,4.54,1.69,6.14s2.56,2.4,4.31,2.4c1.51,0,3.07-.56,4.67-1.68l.25-.12c.22-.01.33.1.33.35,0,.49-.51,1.1-1.54,1.83-1.85,1.37-3.79,2.05-5.84,2.05-2.27,0-4.15-.77-5.64-2.3-1.49-1.54-2.24-3.48-2.24-5.83,0-2.8.93-5.12,2.8-6.98,1.87-1.85,4.22-2.78,7.06-2.78Z"/>
        <path class="cls-1" d="M98.17,11.18c2.12,0,3.94.83,5.48,2.5,1.29,1.41,1.93,2.82,1.93,4.22,0,.53-.37.8-1.11.8l-.94-.04h-.47l-1.25.02-3.87.06-2.03.02-.7-.02c-.4,0-.65.05-.76.14-.15.14-.23.39-.23.76,0,1.81.59,3.41,1.77,4.8,1.18,1.39,2.54,2.09,4.08,2.09,1.73,0,3.12-.5,4.16-1.51l.65-.64c.11-.11.23-.17.35-.17.3,0,.45.14.45.43,0,.4-.53,1.06-1.58,1.99-1.86,1.64-3.86,2.46-5.99,2.46-2.37,0-4.29-.81-5.78-2.44s-2.24-3.73-2.24-6.3.8-4.64,2.39-6.46,3.48-2.73,5.67-2.73ZM97.6,12.22c-.92,0-1.73.45-2.43,1.36-.69.91-1.04,1.98-1.04,3.22,0,.39.1.63.3.71.2.08.73.12,1.6.12.45,0,.92-.01,1.43-.04,1.22-.05,1.93-.08,2.12-.08,1.2,0,1.79-.37,1.79-1.1,0-1.1-.38-2.07-1.15-2.92-.77-.85-1.64-1.27-2.62-1.27Z"/>
        <path class="cls-1" d="M110.31,30.92v-13.98l.04-.86-.1-.9c-.21-.78-.75-1.19-1.64-1.23-.15,0-.29,0-.43.02l-.18.02c-.27-.01-.41-.17-.41-.48s.14-.47.41-.52l.96-.14c1.75-.29,3.07-.75,3.96-1.39.68-.48,1.08-.72,1.21-.72.19,0,.3.15.33.45l.02.6v1.65c.08.29.22.44.41.45.07,0,.18-.06.35-.19,1.34-1.05,2.33-1.72,2.98-2.03s1.44-.45,2.39-.45c2.06,0,3.74.71,5.05,2.14s1.96,3.27,1.96,5.52c0,3.26-1.02,5.89-3.07,7.87-1.64,1.58-3.42,2.38-5.34,2.38-1.79,0-3.14-.22-4.05-.67-.15-.07-.27-.1-.37-.1-.21,0-.31.25-.31.76v1.8c0,1.21.22,2.07.65,2.56.43.49,1.23.81,2.41.94.52.06.78.24.78.56,0,.44-.22.65-.66.62-.22-.01-.47-.05-.74-.12-1.08-.26-2.01-.39-2.77-.39-.49,0-1.23.03-2.22.1l-1.77.14c-.42.03-.71.04-.86.04-.52,0-.78-.2-.78-.58,0-.25.18-.44.53-.56.56-.2.92-.5,1.07-.88.15-.38.23-1.19.23-2.43ZM114.45,16.11v7.94c0,.88.56,1.72,1.67,2.49,1.11.78,2.31,1.16,3.6,1.16,1.35,0,2.43-.54,3.24-1.61s1.21-2.51,1.21-4.31c0-2.19-.61-4.05-1.83-5.56s-2.71-2.28-4.47-2.28c-.94,0-1.75.21-2.42.63s-1,.93-1,1.53Z"/>
        <path class="cls-1" d="M136.66,13.78v10.01c0,1.22.18,2.06.54,2.54s1,.72,1.92.72c.36,0,.83-.09,1.43-.28s1.01-.37,1.24-.56c.15-.11.26-.17.33-.17.16,0,.27.14.31.42l.04.21-.25.36c-1.51,1.38-3.25,2.07-5.24,2.07-1.53,0-2.66-.35-3.38-1.04-.72-.7-1.08-1.77-1.08-3.24v-11.04h-1.25c-.66,0-.98-.18-.98-.54,0-.22.17-.45.51-.69.59-.4,1.43-1.16,2.53-2.28s1.83-1.98,2.2-2.56c.42-.67.74-1,.94-.98.11.01.17.12.18.31v4.76h2.97c.53,0,.92-.09,1.17-.27l.53-.35c.11-.08.23-.13.37-.14.23-.01.34.1.33.33-.01.12-.06.28-.14.45-.08.17-.16.47-.25.91-.15.7-.53,1.05-1.13,1.05h-3.86Z"/>
        <path class="cls-1" d="M162.17,1.74l8.4,18.38c.37.81.68,1.2.92,1.19.25-.01.5-.29.76-.84l7.73-16.47c.73-1.56,1.25-2.54,1.56-2.93.31-.4.73-.59,1.23-.59.19,0,.49.02.9.06.4.04.81.06,1.23.06.56,0,1.25-.05,2.08-.14.42-.04.74-.06.95-.06.48,0,.72.2.72.58,0,.32-.18.5-.55.52-1.29.1-2.18.53-2.7,1.29s-.77,2.05-.77,3.87l.02,1.39.49,12.74.02.84c0,1.88.33,3.28.99,4.19.66.91,1.75,1.44,3.27,1.61.38.06.57.26.57.61,0,.38-.47.56-1.4.56-.27,0-.71-.03-1.31-.1-1.67-.18-2.86-.27-3.55-.27-1.44,0-2.64.07-3.59.21-.9.14-1.52.21-1.85.21s-.51-.17-.51-.52c0-.26.2-.45.59-.56.78-.22,1.33-.57,1.65-1.04s.48-1.19.48-2.13c0-.45,0-.77-.02-.96l-.59-13.6c-.01-.37-.1-.55-.27-.55-.21,0-.49.38-.84,1.13l-7.73,16.37-.28.62c-.39.85-.72,1.28-.98,1.29-.3.01-.8-.74-1.51-2.26l-1.04-2.13-6.57-14.64-.14-.31c-.05-.1-.14-.14-.25-.14-.22,0-.33.28-.33.84l-.02.66-.27,10.36-.02.82.18,1.93c.38,2.01,1.46,3.24,3.22,3.69.62.15.92.39.92.71,0,.36-.24.54-.72.54-.37,0-.81-.03-1.32-.1l-1.46-.21c-.37-.05-.9-.08-1.6-.08-1.25,0-2.22.06-2.92.19-.45.09-.79.14-1.03.14-.43,0-.64-.18-.64-.54,0-.25.16-.43.49-.54,1.05-.35,1.82-.99,2.31-1.89.49-.91.73-2.17.73-3.78l.55-13.45.06-1.37c0-1.64-.4-2.92-1.2-3.86s-1.9-1.4-3.29-1.4c-.52,0-.78-.19-.78-.58s.29-.61.88-.61c.12,0,.28,0,.47.02l1.19.08c.22.01.5.02.84.02.64,0,1.27-.04,1.88-.12.93-.11,1.53-.16,1.8-.16.9,0,1.54.43,1.93,1.29Z"/>
        <path class="cls-1" d="M200.96,11.22c2.58,0,4.72.82,6.4,2.46s2.52,3.72,2.52,6.25-.91,4.79-2.74,6.54c-1.83,1.75-4.1,2.63-6.82,2.63-2.56,0-4.69-.81-6.39-2.44-1.7-1.63-2.55-3.67-2.55-6.12,0-2.58.93-4.78,2.8-6.6,1.87-1.82,4.13-2.72,6.78-2.72ZM199.89,12.35c-1.32,0-2.37.56-3.15,1.68-.78,1.12-1.16,2.62-1.16,4.51,0,2.59.6,4.81,1.8,6.66,1.2,1.85,2.64,2.78,4.33,2.78,1.28,0,2.33-.53,3.14-1.58.81-1.06,1.22-2.41,1.22-4.08,0-2.78-.6-5.13-1.8-7.07-1.2-1.93-2.66-2.9-4.37-2.9Z"/>
        <path class="cls-1" d="M217.94,15.6l2.82,6.3c.36.79.64,1.19.86,1.21.36.03,1.17-1.25,2.45-3.82,1.27-2.57,1.91-4.23,1.91-4.98,0-1.17-.7-1.81-2.11-1.9-.34-.01-.51-.17-.51-.48s.19-.44.58-.44l1.09.06,1.26.04,1.71.1.88-.08c.32-.05.54-.08.66-.08.25,0,.37.14.37.42,0,.31-.18.52-.53.63-.52.15-.96.61-1.33,1.37l-.94,1.88-1.83,3.73c-3.04,6.21-4.82,9.32-5.34,9.32-.28,0-.53-.24-.75-.72l-.21-.49-5.13-11.27-.37-.74-.82-1.72c-.38-.78-.77-1.24-1.17-1.39-.53-.21-.81-.41-.82-.61-.03-.28.12-.43.45-.46l.18.02c1.24.16,2.24.25,3.01.25.53,0,1.44-.05,2.72-.14.78-.07,1.34-.1,1.68-.1.55,0,.88.02,1.01.07s.19.18.19.39c0,.27-.19.44-.57.51-1.31.22-1.97.66-1.97,1.33,0,.35.19.96.58,1.8Z"/>
        <path class="cls-1" d="M237.3,12.1v11.6c0,1.39.21,2.36.63,2.91s1.19.85,2.33.92c.45.03.68.19.68.48,0,.36-.54.54-1.62.54-.14,0-.43-.02-.88-.06l-1.54-.15c-.85-.08-1.41-.12-1.69-.12-.73,0-1.71.1-2.94.29-.3.05-.53.08-.7.08-.29,0-.43-.13-.43-.4,0-.18.09-.32.27-.42l.7-.35c.3-.15.56-.5.77-1.06.21-.56.32-1.15.32-1.76l-.02-.86v-6.93c0-1.06-.11-1.8-.34-2.21-.23-.41-.63-.61-1.22-.61h-.47c-.26,0-.44-.06-.53-.17-.04-.06-.06-.15-.06-.29,0-.35.42-.61,1.26-.79,2.08-.44,3.72-1.1,4.92-1.99.15-.1.27-.14.35-.14.19.01.29.14.29.39l-.02.18c-.01.12-.02.43-.02.92ZM235.09.9c.29,0,.8.46,1.53,1.39l.86,1.11c.2.26.31.5.33.72.01.33-.36.95-1.12,1.87-.76.92-1.29,1.37-1.57,1.37-.19,0-.38-.08-.55-.25l-.96-1.17-.9-1.03c-.23-.29-.35-.52-.35-.7,0-.27.4-.9,1.21-1.87s1.31-1.46,1.53-1.46Z"/>
        <path class="cls-1" d="M250.24,11.18c2.12,0,3.94.83,5.48,2.5,1.29,1.41,1.93,2.82,1.93,4.22,0,.53-.37.8-1.11.8l-.94-.04h-.47l-1.25.02-3.87.06-2.03.02-.7-.02c-.4,0-.65.05-.76.14-.15.14-.23.39-.23.76,0,1.81.59,3.41,1.77,4.8,1.18,1.39,2.54,2.09,4.08,2.09,1.73,0,3.12-.5,4.16-1.51l.65-.64c.11-.11.23-.17.35-.17.3,0,.45.14.45.43,0,.4-.53,1.06-1.58,1.99-1.86,1.64-3.86,2.46-5.99,2.46-2.37,0-4.29-.81-5.78-2.44s-2.24-3.73-2.24-6.3.8-4.64,2.39-6.46,3.48-2.73,5.67-2.73ZM249.66,12.22c-.92,0-1.73.45-2.43,1.36-.69.91-1.04,1.98-1.04,3.22,0,.39.1.63.3.71.2.08.73.12,1.6.12.45,0,.92-.01,1.43-.04,1.22-.05,1.93-.08,2.12-.08,1.2,0,1.79-.37,1.79-1.1,0-1.1-.38-2.07-1.15-2.92-.77-.85-1.64-1.27-2.62-1.27Z"/>
        <path class="cls-1" d="M284.98,0c2.56,0,4.79.55,6.69,1.64l1.35.78c.27.16.52.25.74.25.27,0,.48-.11.62-.33l.43-.64c.07-.11.19-.16.37-.16.42,0,.64.44.64,1.33l.02,1.5v1.87l.16,1.56.18.92c.08.45.12.85.12,1.21,0,.52-.19.78-.57.78-.22,0-.36-.16-.43-.49-.11-.52-.49-1.31-1.14-2.38s-1.27-1.92-1.86-2.55c-2.38-2.56-5.03-3.85-7.94-3.85-2.59,0-4.69,1.06-6.3,3.18-1.62,2.12-2.42,4.88-2.42,8.26,0,4.42,1.32,7.95,3.96,10.59,1.98,1.97,4.15,2.95,6.49,2.95,1.38,0,2.85-.33,4.39-.99,1.55-.66,2.76-1.48,3.65-2.46l1.33-1.45c.19-.22.38-.33.55-.35.26-.01.39.14.39.45,0,.56-.54,1.46-1.62,2.69-2.83,3.2-6.32,4.8-10.48,4.8s-7.28-1.29-9.79-3.86-3.76-5.91-3.76-10.03c0-2.26.47-4.46,1.42-6.62s2.2-3.92,3.77-5.27c2.58-2.21,5.6-3.32,9.04-3.32Z"/>
        <path class="cls-1" d="M308.4,11.22c2.58,0,4.72.82,6.4,2.46s2.52,3.72,2.52,6.25-.91,4.79-2.74,6.54c-1.82,1.75-4.1,2.63-6.82,2.63-2.56,0-4.69-.81-6.39-2.44-1.7-1.63-2.55-3.67-2.55-6.12,0-2.58.93-4.78,2.8-6.6,1.87-1.82,4.13-2.72,6.78-2.72ZM307.33,12.35c-1.32,0-2.37.56-3.14,1.68-.78,1.12-1.17,2.62-1.17,4.51,0,2.59.6,4.81,1.8,6.66,1.2,1.85,2.64,2.78,4.33,2.78,1.28,0,2.33-.53,3.14-1.58.81-1.06,1.21-2.41,1.21-4.08,0-2.78-.6-5.13-1.8-7.07-1.2-1.93-2.66-2.9-4.37-2.9Z"/>
        <path class="cls-1" d="M349.7,18.82v5.71c0,1.05.17,1.79.5,2.2.33.42.98.68,1.94.79.48.07.72.26.72.56,0,.36-.21.54-.62.54-.49,0-1.47-.12-2.92-.35-.75-.11-1.34-.16-1.77-.16-.59,0-1.46.1-2.61.31-.38.07-.67.1-.84.1-.25,0-.37-.14-.37-.42,0-.2.14-.38.43-.54.6-.31.99-.6,1.16-.87.17-.27.26-.71.26-1.32l-.02-.98v-5.58c0-1.87-.31-3.24-.93-4.11-.62-.87-1.6-1.31-2.92-1.31-1.03,0-1.87.29-2.52.86s-.98,1.31-.98,2.21v7.38c0,1.34.2,2.26.58,2.78.39.52,1.12.83,2.18.94.51.04.76.22.76.52,0,.39-.25.58-.76.58-.58,0-1.55-.1-2.92-.29-.86-.11-1.58-.16-2.16-.16-.45,0-1.18.09-2.2.27-.34.05-.65.09-.93.1-.37.01-.55-.14-.55-.46,0-.24.11-.4.33-.5.63-.27,1.04-.58,1.24-.91.2-.33.3-.89.3-1.67l-.02-.86v-5.3c0-1.87-.29-3.24-.88-4.11-.59-.87-1.5-1.31-2.75-1.31-1.08,0-1.97.34-2.68,1.02-.7.68-1.06,1.54-1.06,2.58v7.4c0,.98.18,1.66.55,2.05.37.38,1.16.72,2.36,1.02.42.1.64.28.66.54.01.32-.22.48-.7.48-.34,0-.73-.02-1.17-.06l-1.85-.21c-.78-.08-1.46-.12-2.04-.12-.88,0-1.69.09-2.45.27-.34.08-.62.12-.82.12-.38,0-.58-.17-.58-.5,0-.18.13-.33.39-.44.55-.26.93-.58,1.15-.95s.33-.9.33-1.58l.02-1.08v-7.32c0-1.21-.13-1.99-.39-2.33-.26-.34-.85-.51-1.78-.51-.34,0-.51-.15-.51-.44,0-.33.34-.56,1.03-.69l1.67-.51,1.17-.37c.7-.22,1.48-.62,2.35-1.21.11-.08.21-.12.29-.12.22-.01.33.14.33.45l-.02.51-.06,1.37c-.01.15-.02.31-.02.47,0,.53.12.81.35.82.08,0,.18-.06.29-.18l.84-.96c1.16-1.3,2.6-1.95,4.31-1.95.9,0,1.85.31,2.85.92.99.62,1.63,1.29,1.9,2.01.16.44.28.66.35.66s.21-.14.41-.41c.69-.96,1.55-1.73,2.61-2.31s2.1-.87,3.14-.87c4.04,0,6.06,2.59,6.06,7.78Z"/>
        <path class="cls-1" d="M361.27,12.1v11.6c0,1.39.21,2.36.63,2.91.42.55,1.19.85,2.33.92.45.03.68.19.68.48,0,.36-.54.54-1.62.54-.14,0-.43-.02-.88-.06l-1.54-.15c-.85-.08-1.41-.12-1.68-.12-.73,0-1.71.1-2.94.29-.3.05-.54.08-.7.08-.29,0-.43-.13-.43-.4,0-.18.09-.32.27-.42l.7-.35c.3-.15.56-.5.77-1.06.21-.56.32-1.15.32-1.76l-.02-.86v-6.93c0-1.06-.11-1.8-.34-2.21-.22-.41-.63-.61-1.22-.61h-.47c-.26,0-.44-.06-.53-.17-.04-.06-.06-.15-.06-.29,0-.35.42-.61,1.25-.79,2.08-.44,3.72-1.1,4.92-1.99.15-.1.27-.14.35-.14.19.01.29.14.29.39l-.02.18c-.01.12-.02.43-.02.92ZM359.06.9c.29,0,.8.46,1.53,1.39l.86,1.11c.2.26.31.5.33.72.01.33-.36.95-1.12,1.87-.76.92-1.29,1.37-1.57,1.37-.19,0-.38-.08-.55-.25l-.96-1.17-.9-1.03c-.23-.29-.35-.52-.35-.7,0-.27.4-.9,1.21-1.87.8-.97,1.31-1.46,1.53-1.46Z"/>
        <path class="cls-1" d="M385.03,19.89v4.15c0,.89.05,1.49.14,1.81.1.32.31.62.66.91.49.4,1.12.63,1.89.72.42.05.64.22.64.49,0,.41-.49.62-1.46.62-.21,0-.5-.03-.88-.08l-1.34-.15c-.6-.06-1.08-.1-1.42-.1-1.3,0-2.34.08-3.12.24-.32.06-.59.09-.82.09-.3,0-.45-.15-.45-.45,0-.22.16-.39.47-.51.6-.21,1-.53,1.21-.96s.31-1.18.31-2.21v-4.84c0-1.86-.37-3.33-1.11-4.42s-1.75-1.63-3.03-1.63c-1.14,0-2.06.31-2.76.94-.7.63-1.05,1.45-1.05,2.46v6.84c0,1.26.24,2.17.71,2.75.47.58,1.27.92,2.39,1.01.38.04.57.2.57.47,0,.38-.24.57-.72.57-.45,0-.99-.03-1.62-.1-1.55-.19-2.62-.29-3.21-.29-.79,0-1.71.07-2.75.22-.49.07-.83.11-1.01.11-.34,0-.51-.14-.51-.43,0-.19.12-.33.35-.43.7-.26,1.14-.54,1.33-.85s.29-.87.29-1.69l.02-.68v-7.22l-.02-.8c0-.98-.1-1.66-.3-2.04-.2-.38-.56-.56-1.1-.56h-.94c-.14,0-.24-.04-.31-.12-.07-.07-.1-.17-.1-.31,0-.26.1-.44.31-.54s.81-.28,1.81-.52c1.71-.4,3.15-.99,4.3-1.78.1-.08.18-.12.27-.12.16-.01.25.12.25.39l-.06,1.03-.02,1.17.12.78c.05.16.14.25.27.27.11.01.33-.17.65-.55,1.26-1.53,2.91-2.3,4.97-2.3,2.22,0,3.81.67,4.77,2.01.96,1.34,1.43,3.56,1.43,6.66Z"/>
        <path class="cls-1" d="M402.71,12.89c.98-.11,1.72-.36,2.2-.75.49-.39.78-.96.89-1.73.03-.27.16-.41.41-.41.23,0,.35.18.35.53s-.08,1.07-.25,2.19c-.11.76-.17,1.26-.18,1.49-.03.31-.12.55-.29.7s-.59.39-1.29.72c.01.29.03.5.06.64.07.66.1,1.06.1,1.21,0,1.49-.71,2.74-2.12,3.75-1.42,1.01-3.16,1.52-5.24,1.52-.64,0-1.33-.07-2.07-.2-.27-.05-.51-.08-.72-.08-.43,0-.79.17-1.08.5-.29.33-.43.75-.43,1.24,0,1.18,1.03,1.76,3.08,1.76,3.99,0,6.63.25,7.94.75,1.31.5,1.96,1.52,1.96,3.05,0,1.7-.74,3.14-2.21,4.32-1.47,1.18-3.67,1.77-6.59,1.77-2.54,0-4.47-.31-5.81-.92-1.34-.61-2-1.49-2-2.64,0-.59.21-1.15.63-1.67.42-.52.92-.84,1.5-.95.64-.14.97-.26.98-.37l-.16-.27-.61-.62c-.61-.64-.92-1.38-.92-2.21,0-1.19.46-2.21,1.39-3.08l.66-.62c.12-.12.18-.25.18-.39,0-.19-.28-.46-.84-.8-.6-.34-1.13-.95-1.59-1.82s-.69-1.7-.69-2.48c0-1.68.69-3.07,2.07-4.17s3.14-1.65,5.27-1.65,3.86.56,5.41,1.68ZM394.44,29.7c-.52,0-.96.19-1.31.56s-.53.84-.53,1.38c0,1.01.48,1.81,1.44,2.41s2.26.89,3.92.89c1.45,0,2.62-.26,3.51-.77s1.33-1.19,1.33-2.04c0-.71-.27-1.19-.82-1.43s-1.82-.43-3.81-.58c-1.17-.08-2.07-.18-2.7-.29l-.53-.1c-.18-.03-.34-.04-.49-.04ZM397.3,12.1c-1.05,0-1.87.41-2.48,1.22-.61.82-.91,1.93-.91,3.34,0,1.52.33,2.78.98,3.77.65.99,1.47,1.49,2.45,1.49s1.81-.4,2.43-1.21c.61-.81.92-1.87.92-3.19,0-3.61-1.13-5.42-3.38-5.42Z"/>
        <path class="cls-1" d="M426.68,0c1.29,0,2.54.25,3.77.74l1.37.57c.62.25,1.05.37,1.31.37.19,0,.39-.05.6-.14l.78-.39c.11-.05.22-.08.33-.08.29,0,.43.23.43.68l-.04,1.66c0,.26.01.51.04.74l.27,2.01.21,1.87c.03.16.04.3.04.41,0,.59-.17.88-.51.88-.25,0-.42-.26-.53-.78-.4-1.91-1.4-3.56-3-4.95-1.6-1.39-3.3-2.09-5.09-2.09-1.23,0-2.31.42-3.23,1.25-.92.83-1.38,1.81-1.38,2.94,0,1.05.4,1.95,1.21,2.72.52.49,2.14,1.29,4.87,2.4,3.24,1.33,5.39,2.63,6.45,3.9,1.25,1.53,1.87,3.38,1.87,5.54,0,2.38-.86,4.45-2.58,6.22s-3.74,2.65-6.05,2.65c-.94,0-2.44-.32-4.49-.96-.96-.31-1.66-.52-2.11-.62-.63-.12-1-.24-1.1-.36-.1-.12-.19-.47-.26-1.06-.07-.64-.27-1.57-.62-2.79-.52-1.86-.78-3.05-.78-3.57,0-.66.21-.98.64-.98.19,0,.33.16.41.49.67,2.35,1.83,4.32,3.49,5.91,1.66,1.6,3.38,2.39,5.16,2.39,1.38,0,2.62-.53,3.71-1.58,1.09-1.06,1.63-2.27,1.63-3.63,0-1.08-.28-1.96-.85-2.66-.57-.69-1.55-1.35-2.95-1.96l-3.12-1.39c-2.94-1.31-4.94-2.56-6-3.72-1.05-1.17-1.58-2.73-1.58-4.67,0-2.26.73-4.15,2.2-5.66s3.3-2.28,5.48-2.28Z"/>
        <path class="cls-1" d="M448.88,11.22c2.58,0,4.72.82,6.4,2.46s2.52,3.72,2.52,6.25-.91,4.79-2.74,6.54c-1.83,1.75-4.1,2.63-6.82,2.63-2.56,0-4.69-.81-6.39-2.44-1.7-1.63-2.55-3.67-2.55-6.12,0-2.58.93-4.78,2.8-6.6,1.87-1.82,4.12-2.72,6.78-2.72ZM447.81,12.35c-1.32,0-2.37.56-3.15,1.68s-1.16,2.62-1.16,4.51c0,2.59.6,4.81,1.8,6.66s2.64,2.78,4.33,2.78c1.28,0,2.33-.53,3.14-1.58.81-1.06,1.22-2.41,1.22-4.08,0-2.78-.6-5.13-1.8-7.07-1.2-1.93-2.66-2.9-4.37-2.9Z"/>
        <path class="cls-1" d="M470.02,11.22c2.58,0,4.72.82,6.4,2.46s2.52,3.72,2.52,6.25-.91,4.79-2.74,6.54c-1.83,1.75-4.1,2.63-6.82,2.63-2.56,0-4.69-.81-6.39-2.44-1.7-1.63-2.55-3.67-2.55-6.12,0-2.58.93-4.78,2.8-6.6,1.87-1.82,4.12-2.72,6.78-2.72ZM468.96,12.35c-1.32,0-2.37.56-3.15,1.68s-1.16,2.62-1.16,4.51c0,2.59.6,4.81,1.8,6.66s2.64,2.78,4.33,2.78c1.28,0,2.33-.53,3.14-1.58.81-1.06,1.22-2.41,1.22-4.08,0-2.78-.6-5.13-1.8-7.07-1.2-1.93-2.66-2.9-4.37-2.9Z"/>
        <path class="cls-1" d="M500.47,19.89v4.15c0,.89.05,1.49.14,1.81.1.32.31.62.66.91.49.4,1.12.63,1.89.72.42.05.64.22.64.49,0,.41-.49.62-1.46.62-.21,0-.5-.03-.88-.08l-1.34-.15c-.6-.06-1.08-.1-1.42-.1-1.3,0-2.34.08-3.12.24-.32.06-.59.09-.82.09-.3,0-.45-.15-.45-.45,0-.22.16-.39.47-.51.6-.21,1-.53,1.21-.96s.31-1.18.31-2.21v-4.84c0-1.86-.37-3.33-1.11-4.42s-1.75-1.63-3.03-1.63c-1.14,0-2.06.31-2.76.94-.7.63-1.05,1.45-1.05,2.46v6.84c0,1.26.24,2.17.71,2.75.47.58,1.27.92,2.39,1.01.38.04.57.2.57.47,0,.38-.24.57-.72.57-.45,0-.99-.03-1.62-.1-1.55-.19-2.62-.29-3.21-.29-.79,0-1.71.07-2.75.22-.49.07-.83.11-1.01.11-.34,0-.51-.14-.51-.43,0-.19.12-.33.35-.43.7-.26,1.14-.54,1.33-.85s.29-.87.29-1.69l.02-.68v-7.22l-.02-.8c0-.98-.1-1.66-.3-2.04-.2-.38-.56-.56-1.1-.56h-.94c-.14,0-.24-.04-.31-.12-.07-.07-.1-.17-.1-.31,0-.26.1-.44.31-.54s.81-.28,1.81-.52c1.71-.4,3.15-.99,4.3-1.78.1-.08.18-.12.27-.12.16-.01.25.12.25.39l-.06,1.03-.02,1.17.12.78c.05.16.14.25.27.27.11.01.33-.17.65-.55,1.26-1.53,2.91-2.3,4.97-2.3,2.22,0,3.81.67,4.77,2.01.96,1.34,1.43,3.56,1.43,6.66Z"/>
      </g>
    </g>
  </g>
</svg>