<?xml version="1.0" encoding="utf-8"?>
<!-- Generator: Adobe Illustrator 28.6.0, SVG Export Plug-In . SVG Version: 9.03 Build 54939)  -->
<svg version="1.1" id="Layer_1" xmlns="http://www.w3.org/2000/svg" xmlns:xlink="http://www.w3.org/1999/xlink" x="0px" y="0px"
	 viewBox="0 0 979.2 1080" style="enable-background:new 0 0 979.2 1080;" xml:space="preserve">
<style type="text/css">
	.st0{enable-background:new    ;}
	.st1{fill:#FFFFFF;}
	.st2{fill:none;stroke:#FFFFFF;}
	.st3{fill:url(#Subtraction_3_00000070797189884768265640000008360056178199008440_);}
</style>
<g id="Group_67" transform="translate(386.208 -6430.794)" class="st0">
	<g class="st0">
		<path class="st1" d="M589.7,6984c-2,3.3-4.7,5.9-8.1,7.7c-3.4,1.8-7.2,2.7-11.2,2.7c-4.7,0-8.8-1.2-12.2-3.6
			c-3.4-2.4-5.9-5.5-7.6-9.2c-1.7-3.7-2.6-7.6-2.6-11.5c0-4.4,1-8.2,3.1-11.5c2-3.3,4.8-5.9,8.1-7.6c3.4-1.8,6.9-2.7,10.7-2.7
			c4.2,0,8,1.1,11.5,3.3c3.5,2.2,6.3,5.2,8.3,8.9c2,3.7,3,7.7,3,12C592.7,6976.8,591.7,6980.6,589.7,6984z M588.9,6962
			c-1.5-2.4-3.7-4.3-6.7-5.7c-2.9-1.4-6.4-2.1-10.5-2.1c-4.3,0-8.1,0.8-11.5,2.3c-3.4,1.5-6,3.7-7.9,6.6c-1.9,2.9-2.8,6.2-2.8,9.9
			c0,4.9,1.6,8.8,4.9,11.5c3.2,2.8,7.7,4.1,13.4,4.1c4.3,0,8.3-0.8,11.8-2.3c3.5-1.6,6.3-3.7,8.4-6.6c2-2.8,3.1-6,3.1-9.6
			C591.2,6967.1,590.4,6964.4,588.9,6962z"/>
		<path class="st1" d="M591.5,6888.4c0.3,0,0.4,0.1,0.4,0.2c0,1.5,0,2.6-0.1,3.5l-0.1,4.8l0.1,4.6c0,0.7,0.1,1.8,0.1,3.1
			c0,0.1-0.1,0.1-0.4,0.1s-0.4,0-0.4-0.1c0-1.6-0.1-2.7-0.4-3.5c-0.3-0.7-0.7-1.2-1.3-1.5c-0.6-0.3-1.7-0.3-3-0.2l-30.7,1.3
			l35.8,15.5c0.2,0.1,0.3,0.3,0.3,0.6c0,0.2-0.1,0.4-0.3,0.6l-35.7,17l28.4,0.6c2.4,0,4.2-0.4,5.3-1.3c1.1-0.9,1.6-2.4,1.6-4.5
			c0-0.1,0.1-0.1,0.4-0.1s0.4,0,0.4,0.1c0,1.3,0,2.3-0.1,3l-0.1,3.7l0.1,3.7c0,0.6,0.1,1.6,0.1,2.8c0,0.1-0.1,0.2-0.4,0.2
			s-0.4-0.1-0.4-0.2c0-1.9-0.6-3.3-1.7-4.2c-1.1-0.9-2.9-1.4-5.2-1.4l-31.4-0.6c-2.1,1.4-3.2,3.3-3.2,5.8c0,0.1-0.1,0.2-0.4,0.2
			s-0.4-0.1-0.4-0.2l0.1-2.7c0-0.5,0.1-1.2,0.1-2c0-0.9,0-1.7-0.1-2.3s-0.1-1.1-0.1-1.5c0-0.6,0.2-1.1,0.6-1.4
			c0.4-0.4,1.4-0.9,3-1.7l31.7-15.4l-33.6-14.6c-1.1-0.5-1.7-1.2-1.7-2.1c0-0.2,0-0.6,0.1-1c0-0.5,0.1-1.1,0.1-1.8l-0.1-3.5
			c0-0.5-0.1-1.3-0.1-2.3c0-0.1,0.1-0.1,0.4-0.1s0.4,0,0.4,0.1c0,2.3,0.4,3.9,1.1,4.9c0.7,1,2,1.5,3.8,1.4l31.8-1.4
			c1.4-0.1,2.5-0.3,3.1-0.6c0.6-0.3,1.1-0.8,1.3-1.6c0.2-0.8,0.3-2,0.3-3.7C591.1,6888.5,591.2,6888.4,591.5,6888.4z"/>
		<path class="st1" d="M589.7,6873.2c-2,3.3-4.7,5.9-8.1,7.7c-3.4,1.8-7.2,2.7-11.2,2.7c-4.7,0-8.8-1.2-12.2-3.6
			c-3.4-2.4-5.9-5.5-7.6-9.2c-1.7-3.7-2.6-7.6-2.6-11.5c0-4.4,1-8.2,3.1-11.5c2-3.3,4.8-5.9,8.1-7.6c3.4-1.8,6.9-2.7,10.7-2.7
			c4.2,0,8,1.1,11.5,3.3c3.5,2.2,6.3,5.2,8.3,8.9c2,3.7,3,7.7,3,12C592.7,6866.1,591.7,6869.9,589.7,6873.2z M588.9,6851.2
			c-1.5-2.4-3.7-4.3-6.7-5.7c-2.9-1.4-6.4-2.1-10.5-2.1c-4.3,0-8.1,0.8-11.5,2.3c-3.4,1.5-6,3.7-7.9,6.6c-1.9,2.9-2.8,6.2-2.8,9.9
			c0,4.9,1.6,8.8,4.9,11.5c3.2,2.8,7.7,4.1,13.4,4.1c4.3,0,8.3-0.8,11.8-2.3c3.5-1.6,6.3-3.7,8.4-6.6c2-2.8,3.1-6,3.1-9.6
			C591.2,6856.3,590.4,6853.6,588.9,6851.2z"/>
		<path class="st1" d="M552.4,6828.9c1.5,1.5,4.1,2.7,7.6,3.3c0.1,0,0.2,0.2,0.2,0.4c0,0.3-0.1,0.4-0.2,0.4
			c-1.3-0.2-3.4-0.4-6.2-0.6c-2.9-0.2-5-0.3-6.5-0.3c-0.2,0-0.3-0.1-0.3-0.4s0.1-0.4,0.3-0.4c1,0,1.5-1.2,1.5-3.7
			c0.1-4,0.2-8.6,0.2-13.9c0-2.7,0-5.6-0.1-8.6l-0.1-4.7c0-1.7-0.1-2.9-0.3-3.7c-0.2-0.8-0.7-1.3-1.4-1.6c-0.2,0-0.3-0.2-0.3-0.4
			c0-0.2,0.1-0.3,0.3-0.3c1.3,0.1,3.4,0.3,6.2,0.4c2.8,0.1,5,0.2,6.7,0.2c0.1,0,0.1,0.1,0.1,0.4c0,0.3,0,0.4-0.1,0.4
			c-3.5,0.2-6.1,1-7.6,2.4c-1.5,1.4-2.3,3.7-2.3,6.7c0,1.8,0.1,3.2,0.3,4c0.2,0.8,0.6,1.4,1.2,1.7c0.6,0.3,1.6,0.4,3,0.4h31.8
			c1.4,0,2.5-0.1,3.1-0.4c0.6-0.3,1.1-0.9,1.3-1.8c0.2-0.9,0.3-2.3,0.3-4.3c0-0.1,0.1-0.1,0.4-0.1s0.4,0,0.4,0.1
			c0,1.6,0,2.8-0.1,3.7l-0.1,5.5l0.1,5.2c0,0.9,0.1,2.2,0.1,3.9c0,0.1-0.1,0.1-0.4,0.1s-0.4,0-0.4-0.1c0-1.9-0.1-3.4-0.3-4.3
			c-0.2-0.9-0.7-1.5-1.3-1.9c-0.7-0.3-1.7-0.5-3.1-0.5h-31.9c-1.3,0-2.3,0.1-2.9,0.4c-0.6,0.3-1,0.9-1.1,1.7c-0.2,0.8-0.3,2.2-0.3,4
			C550.1,6825.2,550.9,6827.4,552.4,6828.9z"/>
		<path class="st1" d="M581.4,6758.4c0-0.3,0.1-0.4,0.2-0.4c3,0.4,6.1,0.6,9.2,0.6c0.4,0,0.6,0.1,0.8,0.2c0.2,0.2,0.2,0.4,0.2,0.9
			v29.2c0,0.1-0.1,0.1-0.4,0.1s-0.4,0-0.4-0.1c0-1.7-0.1-2.9-0.3-3.7c-0.2-0.8-0.7-1.3-1.3-1.6c-0.7-0.3-1.7-0.4-3.1-0.4h-31.9
			c-1.4,0-2.4,0.1-3,0.4c-0.6,0.3-1.1,0.8-1.3,1.6c-0.3,0.8-0.4,2-0.4,3.7c0,0.1-0.1,0.1-0.4,0.1s-0.4,0-0.4-0.1v-28
			c0-0.4,0.2-0.6,0.6-0.6l8.6-0.1c0.1,0,0.2,0.1,0.2,0.4c0,0.3-0.1,0.4-0.2,0.4c-2.5,0.3-4.4,1.1-5.7,2.6c-1.3,1.4-2,3.3-2,5.6v3.8
			c0,2.2,0.3,3.6,0.9,4.3c0.6,0.7,1.7,1,3.5,1h14.1v-7.9c0-2.3-0.4-4-1.2-5c-0.8-1-2-1.6-3.8-1.6c-0.1,0-0.1-0.1-0.1-0.4
			c0-0.3,0-0.4,0.1-0.4l5.7,0.1c1.3,0,2.3,0,3-0.1l3.4-0.1c0.1,0,0.1,0.1,0.1,0.4s0,0.4-0.1,0.4c-2,0-3.5,0.5-4.4,1.6
			c-0.9,1.1-1.3,2.8-1.3,5.2v7.8H586c1.2,0,2.1-0.1,2.7-0.4c0.6-0.3,1-0.8,1.3-1.4c0.3-0.7,0.4-1.7,0.4-3.2v-4.9
			c0-2.4-0.8-4.5-2.3-6.1c-1.5-1.6-3.7-2.7-6.5-3.3C581.4,6758.8,581.3,6758.6,581.4,6758.4z"/>
		<path class="st1" d="M549.2,6705.6c0.3,0,0.4,0.1,0.4,0.2c0,1.9,0.6,3.3,1.7,4.2c1.1,0.9,2.9,1.3,5.3,1.3h36.2
			c0.1,0,0.2,0.1,0.3,0.3c0,0.2,0,0.4-0.1,0.5l-38.5,32.2l-0.3,0.2h30c2.4,0,4.1-0.4,5.2-1.3c1.1-0.9,1.7-2.2,1.7-4.1
			c0-0.1,0.1-0.2,0.4-0.2s0.4,0.1,0.4,0.2c0,1.1,0,2-0.1,2.6l-0.1,3.5l0.1,3.7c0,0.7,0.1,1.7,0.1,3c0,0.1-0.1,0.1-0.4,0.1
			s-0.4,0-0.4-0.1c0-2-0.6-3.4-1.7-4.3c-1.1-0.9-2.9-1.3-5.2-1.3h-31.8c-1.8,1.9-2.8,3.8-2.8,5.7c0,0.1-0.1,0.2-0.4,0.2
			s-0.4-0.1-0.4-0.2l0.1-2.6c0-0.6,0.1-1.3,0.1-2.3l-0.1-3.2c0-0.4-0.1-0.9-0.1-1.4c0-0.4,0.1-0.6,0.2-0.8c0.2-0.2,0.5-0.4,1.1-0.8
			c0.8-0.6,1.6-1.1,2.3-1.7L584,6713h-27.4c-2.4,0-4.2,0.4-5.3,1.2c-1.1,0.8-1.7,2.2-1.7,4.1c0,0.1-0.1,0.1-0.4,0.1s-0.4,0-0.4-0.1
			l0.1-2.7c0.1-1.5,0.1-2.6,0.1-3.5c0-0.9,0-2-0.1-3.5l-0.1-2.8C548.8,6705.7,548.9,6705.6,549.2,6705.6z"/>
		<path class="st1" d="M591.5,6655.6c0.3,0,0.4,0.1,0.4,0.3c0,0.9,0,2.2-0.1,4.1c-0.1,1.8-0.1,3.2-0.1,4.1c0,1.1,0,2.4,0.1,3.9
			c0.1,1.5,0.1,2.6,0.1,3.4c0,0.2-0.1,0.3-0.4,0.3s-0.4-0.1-0.4-0.3c0-1.7-0.1-2.8-0.4-3.6c-0.3-0.7-0.8-1.1-1.6-1.1
			c-0.7,0-1.7,0.3-3.1,1l-12.4,5.9v16.5l9.5,4.1c1.4,0.6,2.6,0.9,3.8,0.9c2.9,0,4.3-2.2,4.3-6.7c0-0.2,0.1-0.3,0.4-0.3
			s0.4,0.1,0.4,0.3c0,0.8,0,2-0.1,3.6c-0.1,1.7-0.1,3.3-0.1,4.6c0,1.2,0,2.6,0.1,4.2c0.1,1.4,0.1,2.6,0.1,3.5c0,0.2-0.1,0.3-0.4,0.3
			s-0.4-0.1-0.4-0.3c0-1.3-0.2-2.4-0.7-3.3c-0.5-0.9-1.3-1.8-2.6-2.6c-1.2-0.8-3.1-1.7-5.5-2.8l-34.1-14.6c-0.1-0.1-0.2-0.3-0.2-0.6
			c0-0.3,0.1-0.4,0.2-0.5l34.2-16.4c3.4-1.6,5.6-2.9,6.8-4c1.2-1.1,1.8-2.4,1.8-3.8C591.1,6655.7,591.2,6655.6,591.5,6655.6z
			 M572,6689.6v-15.2l-16.7,8L572,6689.6z"/>
		<path class="st1" d="M561.3,6644.1c1.3-0.9,2.5-1.9,3.4-3.2c0.9-1.2,2-3,3.4-5.2c1.4-2.3,2.6-4.2,3.7-5.5c1-1.3,2.3-2.5,3.8-3.4
			c1.5-0.9,3.3-1.4,5.4-1.4c2.3,0,4.3,0.6,6.1,1.7c1.8,1.1,3.2,2.8,4.2,4.9c1,2.2,1.6,4.7,1.6,7.7c0,3.7-0.8,7-2.5,9.9
			c-0.1,0.2-0.3,0.4-0.5,0.5c-0.2,0.1-0.5,0.2-0.8,0.2l-9.7,0.8c-0.2,0-0.3-0.1-0.3-0.3c0-0.3,0-0.4,0.2-0.4
			c3.4-0.9,6.3-2.4,8.7-4.3c2.4-2,3.6-4.6,3.6-7.9c0-2.3-0.6-4.1-1.8-5.7c-1.2-1.5-3.2-2.3-5.9-2.3c-2.1,0-3.9,0.5-5.3,1.4
			c-1.5,0.9-2.8,2-3.8,3.3s-2.2,3.1-3.6,5.3c-1.4,2.3-2.6,4-3.6,5.2c-0.9,1.2-2.1,2.3-3.6,3.2c-1.4,0.9-3.2,1.3-5.1,1.3
			c-2.3,0-4.3-0.6-6-1.9c-1.6-1.2-2.9-2.9-3.7-4.9c-0.8-2-1.2-4.2-1.2-6.4c0-2.9,0.5-5.6,1.6-8.2c0.3-0.7,0.7-1,1.2-1l8.3-0.4
			c0.2,0,0.3,0.1,0.3,0.4c0,0.3,0,0.4-0.2,0.4c-2.4,0.5-4.7,1.5-6.9,3.1c-2.2,1.6-3.2,3.9-3.2,7c0,2.4,0.7,4.3,2.1,5.6
			c1.4,1.3,3.2,1.9,5.4,1.9C558.4,6645.4,559.9,6645,561.3,6644.1z"/>
		<path class="st1" d="M591.5,6571.4c0.3,0,0.4,0.1,0.4,0.2c0,1.5,0,2.6-0.1,3.5l-0.1,4.9l0.1,5.3c0,0.8,0.1,1.9,0.1,3.2
			c0,0.1-0.1,0.2-0.4,0.2s-0.4-0.1-0.4-0.2c0-1.8-0.1-3.1-0.3-3.9c-0.2-0.8-0.7-1.4-1.3-1.7c-0.7-0.3-1.7-0.4-3.1-0.4h-16.1v25.7
			h16.1c1.4,0,2.4-0.1,3.1-0.4c0.7-0.3,1.1-0.9,1.3-1.7c0.2-0.8,0.3-2.1,0.3-3.9c0-0.1,0.1-0.1,0.4-0.1s0.4,0,0.4,0.1
			c0,1.5,0,2.6-0.1,3.4l-0.1,5.2l0.1,4.8c0,0.8,0.1,2,0.1,3.5c0,0.1-0.1,0.1-0.4,0.1s-0.4,0-0.4-0.1c0-1.7-0.1-3-0.3-3.8
			c-0.2-0.8-0.7-1.4-1.3-1.7c-0.7-0.3-1.7-0.4-3.1-0.4h-31.9c-1.4,0-2.4,0.1-3,0.4c-0.6,0.3-1.1,0.9-1.3,1.7
			c-0.3,0.8-0.4,2.1-0.4,3.8c0,0.1-0.1,0.1-0.4,0.1s-0.4,0-0.4-0.1l0.1-3.5c0.1-1.9,0.1-3.5,0.1-4.8c0-1.4,0-3.1-0.1-5.2l-0.1-3.4
			c0-0.1,0.1-0.1,0.4-0.1s0.4,0,0.4,0.1c0,1.7,0.1,3,0.4,3.9c0.3,0.8,0.7,1.4,1.4,1.7c0.7,0.3,1.7,0.4,3.1,0.4h14.2v-25.7h-14.2
			c-1.4,0-2.4,0.1-3.1,0.4c-0.7,0.3-1.1,0.9-1.4,1.7c-0.3,0.8-0.4,2.1-0.4,3.9c0,0.1-0.1,0.2-0.4,0.2s-0.4-0.1-0.4-0.2l0.1-3.2
			c0.1-2,0.1-3.8,0.1-5.3c0-1.2,0-2.9-0.1-4.9l-0.1-3.5c0-0.1,0.1-0.2,0.4-0.2s0.4,0.1,0.4,0.2c0,1.7,0.1,3,0.4,3.8
			c0.3,0.8,0.7,1.4,1.3,1.7c0.6,0.3,1.7,0.4,3,0.4h31.9c1.4,0,2.4-0.1,3.1-0.4c0.7-0.3,1.1-0.9,1.3-1.7c0.2-0.8,0.3-2.1,0.3-3.8
			C591.1,6571.5,591.2,6571.4,591.5,6571.4z"/>
		<path class="st1" d="M589.4,6554.7c0.6-0.3,1.1-0.8,1.3-1.6c0.2-0.8,0.3-2,0.3-3.7c0-0.1,0.1-0.1,0.4-0.1s0.4,0,0.4,0.1
			c0,1.4,0,2.6-0.1,3.4l-0.1,5l0.1,4.8c0,0.9,0.1,2,0.1,3.5c0,0.1-0.1,0.2-0.4,0.2s-0.4-0.1-0.4-0.2c0-1.7-0.1-2.9-0.3-3.7
			c-0.2-0.8-0.7-1.3-1.3-1.6c-0.7-0.3-1.7-0.4-3.1-0.4h-31.9c-1.4,0-2.4,0.1-3,0.4c-0.6,0.3-1.1,0.8-1.3,1.6c-0.3,0.8-0.4,2-0.4,3.7
			c0,0.1-0.1,0.2-0.4,0.2s-0.4-0.1-0.4-0.2l0.1-3.5c0.1-1.9,0.1-3.5,0.1-4.8c0-1.3,0-3-0.1-5l-0.1-3.3c0-0.1,0.1-0.1,0.4-0.1
			s0.4,0,0.4,0.1c0,1.7,0.1,2.9,0.4,3.7c0.3,0.8,0.7,1.3,1.4,1.6c0.7,0.3,1.7,0.4,3.1,0.4h31.8
			C587.7,6555.1,588.8,6555,589.4,6554.7z"/>
	</g>
	<line id="Line_51" class="st2" x1="548.4" y1="6570.3" x2="548.4" y2="7345.3"/>
	
		<linearGradient id="Subtraction_3_00000057870287365059380830000000497443654284337074_" gradientUnits="userSpaceOnUse" x1="-411.2606" y1="7267.9956" x2="-412.1776" y2="7267.8027" gradientTransform="matrix(789.862 -736.5582 -736.5582 -789.862 5678466 5444328.5)">
		<stop  offset="0" style="stop-color:#FFFFFF"/>
		<stop  offset="1" style="stop-color:#808080;stop-opacity:0"/>
	</linearGradient>
	<path id="Subtraction_3" style="fill:url(#Subtraction_3_00000057870287365059380830000000497443654284337074_);" d="M377.2,7365.7
		c-13.5,12.6-27.6,24.5-42.3,35.6c-14.4,10.9-29.4,21.1-44.8,30.6c-15.2,9.3-30.9,17.9-46.9,25.6c-15.8,7.6-32.2,14.5-48.7,20.6
		c-16.3,6-33.2,11.2-50,15.6c-16.7,4.3-33.9,7.9-51,10.6c-17,2.7-34.4,4.6-51.6,5.6c-17.2,1-34.6,1.3-51.8,0.7
		c-17.2-0.6-34.6-2-51.6-4.3c-17.1-2.2-34.3-5.3-51.1-9.2c-16.9-3.9-33.8-8.6-50.1-14.1c-16.5-5.5-32.9-11.9-48.8-19
		c-16-7.2-31.9-15.2-47.1-23.9c-15.4-8.8-30.6-18.5-45-28.8c-14.7-10.5-28.9-21.7-42.6-33.6c-13.9-12.2-27.1-25-39.7-38.5l-0.2-0.2
		c12.6,13.5,25.8,26.3,39.7,38.4c13.6,11.9,27.8,23.1,42.5,33.6c14.5,10.3,29.6,19.9,45,28.7c15.2,8.7,31.1,16.7,47.1,23.9
		c15.9,7.1,32.3,13.5,48.8,19c16.4,5.5,33.2,10.2,50.1,14.1c16.8,3.9,33.9,6.9,51,9.2c17,2.2,34.4,3.7,51.6,4.3
		c17.2,0.6,34.6,0.4,51.8-0.7c17.2-1,34.5-2.9,51.5-5.6c17.1-2.7,34.2-6.3,50.9-10.6c16.8-4.4,33.7-9.6,50-15.5
		c16.5-6,32.8-12.9,48.6-20.5c16-7.7,31.7-16.3,46.9-25.5c15.4-9.4,30.3-19.6,44.7-30.5c14.7-11.1,28.8-23,42.2-35.6
		c13.5-12.6,26.3-25.8,38.4-39.7c11.9-13.6,23.1-27.8,33.6-42.5c10.3-14.5,20-29.6,28.7-45c8.7-15.2,16.7-31.1,23.9-47.1
		c7.1-15.9,13.5-32.3,19-48.8c5.5-16.4,10.2-33.2,14.1-50.1c3.9-16.8,7-34,9.2-51c2.2-17,3.7-34.4,4.3-51.6s0.4-34.6-0.7-51.8
		c-1-17.2-2.9-34.5-5.6-51.6c-2.7-17.1-6.2-34.2-10.6-51c-4.4-16.8-9.6-33.7-15.5-50c-6-16.5-12.9-32.8-20.5-48.6
		c-7.7-16-16.3-31.7-25.5-46.9c-9.4-15.4-19.6-30.4-30.6-44.8c-11.1-14.7-23-28.8-35.6-42.2c-12.6-13.5-25.8-26.3-39.6-38.4
		c-13.6-11.9-27.8-23.1-42.5-33.6c-14.5-10.3-29.6-20-45-28.7c-15.2-8.7-31-16.7-47.1-23.9c-15.9-7.1-32.3-13.5-48.8-19
		c-16.4-5.5-33.2-10.2-50.1-14.1c-16.8-3.9-33.9-7-51-9.2c-17-2.2-34.4-3.7-51.6-4.3s-34.6-0.4-51.8,0.7c-17.2,1-34.5,2.9-51.5,5.6
		c-17.1,2.7-34.2,6.2-51,10.6c-16.8,4.3-33.7,9.6-50,15.5c-16.5,6-32.8,12.9-48.6,20.5c-16,7.7-31.7,16.3-46.9,25.5
		c-15.4,9.4-30.4,19.6-44.8,30.5c-14,10.6-27.8,22.1-40.8,34.2c13.1-12.1,26.9-23.7,41-34.4c14.4-10.9,29.4-21.1,44.8-30.6
		c15.2-9.3,30.9-17.9,46.9-25.6c15.8-7.6,32.2-14.5,48.7-20.6c16.3-6,33.2-11.2,50-15.6c16.7-4.3,33.9-7.9,51-10.6
		c17-2.7,34.4-4.6,51.6-5.6c17.2-1,34.6-1.3,51.8-0.7s34.6,2,51.6,4.3c17.1,2.2,34.3,5.3,51.1,9.2c16.9,3.9,33.7,8.6,50.1,14.1
		c16.5,5.5,32.9,11.9,48.8,19c16,7.2,31.9,15.2,47.1,23.9c15.4,8.8,30.6,18.5,45,28.8c14.7,10.5,28.9,21.7,42.6,33.6
		c13.9,12.2,27.1,25,39.7,38.5c12.6,13.5,24.5,27.6,35.6,42.3c10.9,14.4,21.1,29.4,30.6,44.8c9.3,15.2,17.9,30.9,25.6,46.9
		c7.6,15.8,14.5,32.2,20.6,48.7c6,16.3,11.2,33.2,15.6,50c4.3,16.7,7.9,33.9,10.6,51c2.7,17,4.6,34.4,5.6,51.6
		c1,17.2,1.3,34.6,0.7,51.8c-0.6,17.2-2,34.6-4.3,51.6c-2.2,17.1-5.3,34.3-9.2,51.1c-3.9,16.9-8.6,33.7-14.1,50.1
		c-5.5,16.5-11.9,32.9-19,48.8c-7.2,16-15.2,31.9-23.9,47.1c-8.8,15.4-18.5,30.6-28.8,45c-10.5,14.7-21.7,28.9-33.6,42.6
		C403.5,7339.9,390.7,7353.2,377.2,7365.7z"/>
</g>
</svg>
