<?xml version="1.0" encoding="UTF-8"?>
<svg xmlns="http://www.w3.org/2000/svg" version="1.1" viewBox="0 0 901.8969727 185.9029999">
  <!-- Generator: Adobe Illustrator 29.0.0, SVG Export Plug-In . SVG Version: 2.1.0 Build 186)  -->
  <defs>
    <style>
      .st0, .st1 {
        isolation: isolate;
      }

      .st1 {
        fill: #fff;
        mix-blend-mode: exclusion;
      }

      .st2 {
        opacity: .41;
      }

      .st3 {
        fill: none;
        stroke: #fff;
      }
    </style>
  </defs>
  <g class="st0">
    <g id="_レイヤー_1" data-name="レイヤー_1">
      <g id="slogan" class="st2">
        <path id="_パス_544" data-name="パス_544" class="st1" d="M143.2879925,47.8800735c-3.1233082-.0655861-6.1804237.9049263-8.6940002,2.7599983-2.8414788,2.0569954-4.4715228,5.3943291-4.3470001,8.8999977,0,5.7999992,4.4850006,9.5909996,9.177,12.7649994,5.105999,3.4500008,8.625,5.934,8.625,11.04-.0224495,5.1734753-4.2105274,9.3619994-9.3839998,9.3850028-4.4159994,0-8.8319998-2.1389999-10.0739996-7.3830001-.276-.9659996-.483-1.3109999-.7590001-1.3109999-.345,0-.414.6210003-.345,1.1729999.0680001,1.7249999.483,3.5190001.6210001,4.6920002.207,1.173.414,1.587,1.3109999,2.0699999,2.8713174,1.2619941,5.9716105,1.9196317,9.1080003,1.932,6.9689999,0,14.0760002-4.623,14.0760002-12.1440004,0-5.6580009-3.7259998-8.7630005-6.2099991-10.5569992-2.1389999-1.5869999-4.3470001-3.243-7.1760006-5.105999-2.3459997-1.5869999-5.1750002-4.1399994-5.1750002-8.2799988-.0779362-4.6572914,3.4961815-8.5641479,8.1420012-8.8999977,2.0095577-.0291061,3.9812603.5479774,5.6580009,1.6559982,1.3376541.9715424,2.2318859,2.4370918,2.4839993,4.0709991.1380005.7589989.3449993,1.0349998.6210003,1.0349998.2070007,0,.4829998-.4140015.3449993-1.3800011-.0690002-.6899986-.2759991-2.6220016-.2759991-4.4850006-.0088673-.3226662-.1944599-.6143074-.4829998-.7589989-2.3590336-.681118-4.7915916-1.0752983-7.2450027-1.1739998ZM158.3989944,49.3290749c0,.3450012.6899986.4830017,1.0999985.5519981,1.9319992.2070007,2.7599983.9659996,2.8289986,2.2770004.1380005,1.3800011.4830017,10.5569992.4830017,16.2150002,0,10.8330002-.0690002,18.7679996-.1380005,20.3549995-.1380005,2.277-.9000015,2.76-2.9669991,3.174-.9659996.207-1.1730003.414-1.1730003.621,0,.345.6209984.414,1.2420006.414.7630005-.0000014,2.487999-.2760014,4.2129974-.2760014,3.243,0,4.5540009.345,6.6240005.345.6209984,0,1.0999985-.138,1.0999985-.483,0-.276-.3450012-.483-1.3800011-.621-2.1389999-.345-2.9669991-1.0349999-3.1739998-3.7260001-.1380005-1.9320002-.276001-6.6240001-.276001-14.0760007,0-7.3829994-.0690002-21.8729973-.0690002-23.1150017-.0166931-.5116081.2145653-.9998207.6209984-1.3110008,1.1469803-.316803,2.3310852-.4792366,3.5210075-.4829979,3.1576614-.0540848,6.1724205,1.3139572,8.2109985,3.7260017,2.9000015,2.9000015,3.4500008,7.1069984,3.4500008,9.177,0,10-7.0379982,11.8000011-9.3149986,11.8000011-.5069962.0130577-1.0142784-.0100002-1.5180016-.0690002-.5519981-.0690002-.7589989.1380005-.7589989.2759991,0,.2759991.4140015.4829998.8279991.6210003.7190781.1967926,1.4626045.2897339,2.2080002.2759991,2.54459.0387058,5.0429649-.6819801,7.1759987-2.0699997,2.4840012-1.6560001,5.7999992-4.6919994,5.7999992-11.2469997-.0146217-3.3574104-1.296032-6.5855713-3.5880013-9.0389977-2.6220016-2.9000015-6.8310013-4.4160004-12.3509979-4.4160004-1.1730003,0-5.105999.4140015-6.6930008.4830017-1.862999.0690002-3.8639984.1380005-4.9000015.1380005-.6219978-.0010033-1.1049957.2749939-1.1049957.4819984ZM206.5609894,48.7770767c-2.2770004,0-4.8300018.3450012-7.3830032.3450012-2.4840012,0-4.1399994-.276001-5.1060028-.276001-.9000015,0-1.2419968.2070007-1.2419968.4140015,0,.3450012.552002.4830017,1.1729965.6209984,2.9000015.4830017,3.0360031,1.4490013,3.1740036,3.4500008.1380005,2.2080002.4140015,5.8649979.4140015,15.5249996,0,10.0050001-.1380005,15.1800003-.3450012,19.1130009-.2070007,2.9000001-.9660034,3.5190001-3.1050034,3.9330001-.9000015.207-1.3799973.345-1.3799973.621,0,.345.4830017.483,1.1729965.483,1.3110123-.0000064,3.3120117-.3450064,5.8650131-.3450064,2.345993,0,3.6559982.345,5.1059952.345.8280029,0,1.3799973-.207,1.3799973-.483s-.276001-.414-1.0350037-.552c-2.4840012-.414-2.9670029-1.1-3.2429962-1.932-.3812561-2.0706189-.5660706-4.172621-.5519943-6.2779996-.0690002-2.7600002,0-11.592001.1380005-12.2819996.0837097-.3156357.3636932-.5396194.6900024-.552,1.1573486-.100029,2.3232727-.0067539,3.4499969.2759991.8544083.3055325,1.5988693.857872,2.1389999,1.5869999.9659958,1.1709995,6.762001,10.6940002,10.2829971,15.1790004,2.5510025,3.1739999,5.3110046,5.4509999,9.5200043,5.4509999.8827057.0339295,1.7657089-.0590181,2.6220016-.276.552002-.207.8280029-.414.8280029-.552,0-.207-.3450012-.414-.9000015-.414-1.2419968,0-3.2430038-.621-5.4509964-2.8290001-1.8315735-1.892422-3.5155029-3.9223588-5.0370026-6.0719998-2.8112411-3.9797421-5.4147263-8.1022501-7.8000031-12.3510008-.276001-.6900005-.4140015-1.1730003-.1380005-1.3110008,1.5163727-.5275917,2.9376526-1.2964802,4.2089996-2.2770004,2.5835419-1.7650204,4.071106-4.7401562,3.9329987-7.8660011.0165939-3.294178-1.5816345-6.3875198-4.2779999-8.2799988-2.2710037-1.6559982-4.961998-2.4149971-9.102005-2.4149933ZM204.2149963,49.8120728c4.1399994,0,6.6240005,1.0349998,8.4869995,2.7599983,1.7939987,1.6559982,2.9000015,4.2779999,2.9000015,7.9350014-.0506058,3.1500835-1.5852203,6.0914383-4.1399994,7.9349995-1.3799973.8999996-5.6579971,1.4489994-7.6589966,1.4489994-.6218185.0141354-1.243927-.0089054-1.862999-.0690002-.2070007,0-.4830017-.2070007-.4830017-1.2420006,0-1.1000004,0-15.7320023.0690002-17.1119995.0690002-1.0999985.276001-1.0999985.4140015-1.1730003.7162933-.3180618,1.4912567-.4825897,2.2749939-.4829979ZM234.4369965,49.1910744c0,.276001.276001.4140015.7590027.5519981,2.4150009.5519981,3.0360031.8279991,3.2429962,3.0999985.263237,1.9887161.3785553,3.9942207.3450012,6,0,3.6569996.0690002,23.2530003-.0690002,27.1860008-.0690002,4.1399999-.4140015,5.244-2.9670029,5.8000002-1.1729965.276-1.586998.483-1.586998.69,0,.345.4140015.483,1.0350037.483,1.2419968,0,3.3119965-.345,6.2789993-.345,1.6559982,0,3.6569977.207,4.2779999.207.8280029,0,1.310997-.069,1.310997-.414,0-.276-.2070007-.483-1.1729965-.69-2.0699997-.552-2.4150009-.9-2.6220016-3.5190003-.1380005-1.9320002-.3450012-7.9349995-.3450012-18.0779991,0-4.4850006-.0690002-12.4890003.1380005-16.145998.1380005-2.9000015.4140015-3.7999992,3.0999985-4.2779999.7590027-.0690002,1.0350037-.3450012,1.0350037-.6209984,0-.1380005-.4830017-.276001-.9660034-.276001-1.5179977,0-3.4499969.276001-5.3819962.276001-2.1389999,0-3.4499969-.276001-5.3820038-.276001-.6850052.0039978-1.0299988.1419983-1.0299988.348999ZM261.2779999,92.4540718c0,.345.3450012.621,1.2420044.621,1.1000061,0,3.173996-.414,6.2100067-.414,2.4839935,0,4.1399994.414,5.8000031.414.8999939,0,1.3800049-.069,1.3800049-.483,0-.345-.3450012-.483-1.1730042-.69-2.2769928-.6900001-2.9669952-1.1-3.2429962-3.6570003-.2070007-2.1389999-.4140015-11.5229998-.4140015-15.4560013,0-2.7600002.0690002-18.4230003.0690002-20.9069977,0-.4140015.0690002-.9000015.4140015-.9659996,1.1730042-.1380005,4.8300018-.1380005,6.6929932-.1380005,5.451004,0,6.2100067.1380005,6.8309937.6899986.681778.9004898,1.0890808,1.9786568,1.1730042,3.1049995.0690002.4140015.2070007,1.0349998.4830017,1.0349998s.552002-.5519981.552002-1.5870018c-.0779419-1.6588631-.008667-3.3213692.2070007-4.9679985.0735016-.2711067.0735016-.5568924,0-.8279991-.0690002-.1380005-.276001-.1380005-.552002.0690002-1.3727417.5792351-2.8592072.8387756-4.3470001.7589989-2,.0690002-7.7279968.0690002-12.9720001.0690002-7.1069946,0-13.6620026-.0690002-14.8350067-.1380005-.809433-.0070724-1.5997925-.2465744-2.2770004-.6899986-.1380005-.2070007-.4140015-.3450012-.552002-.276001-.276001.1380005-.276001.4140015-.276001,1.0349998-.1756287,1.9548836-.4985428,3.8937225-.9660034,5.7999992-.0690002.4140015-.0690002,1.0349998.2070007,1.0349998.2070007,0,.6210022-.4140015.9000015-1.0999985.9660034-2.6910019,1.7940063-3.519001,3.0359955-3.7260017,2.1284485-.2633247,4.2725983-.3786049,6.4170074-.3450012,1.7276154-.0375557,3.4559021.0315742,5.1750031.2070007.2070007.0690002.4140015.276001.4830017.9000015.1380005,1.0349998.1380005,28.7000008-.3450012,35.2589989-.2070007,3.174-.6210022,4.3470001-3.8639984,4.7610002-.7660217.1270028-1.4560089.3340028-1.4560089.6100028ZM317.7659912,60.211071c-3.4701996.0429611-6.8417053,1.1609707-9.6499939,3.2000008-4.2142029,2.9830418-6.6396484,7.8903389-6.4499969,13.0499992,0,9.1499996,7.3999939,17.1000004,16.3000031,17.1000004,2.2309723-.0455894,4.4278412-.5564911,6.4499969-1.5,5.7275543-2.6975944,9.3736877-8.4690208,9.3500061-14.8000002-.0000153-9.3000002-7.5500183-17.0500002-16.0000153-17.0500002ZM316.7659912,60.961071c3.4024353-.0703449,6.6546783,1.3995953,8.8500061,4,2.9697723,3.4361515,4.6338654,7.8088226,4.6999969,12.3500004,0,6.8000002-3.3000031,11.4499998-6.0500031,13.5-1.549881,1.1835588-3.4499512,1.8169186-5.3999939,1.8-2.8500061,0-6.6499939-1-10.0500031-5.55-2.2495117-3.0698051-3.5214996-6.7463808-3.6499939-10.5500011,0-3.8999996.9499969-8.5499992,3.75-11.7999992,2.0380707-2.2115993,4.848877-3.5543423,7.8499908-3.75ZM338.8159943,61.211071c0,.25.3500061.3999996.8000031.5,1.8999939.4500008,1.9499969.9500008,2.0500031,2.75.1499939,3.1000004.1499939,5.8500004.1499939,11.2000008,0,5.5,0,12.0500002-.1499939,13.6999998-.1000061,1.95-.3000031,2.25-2.25,2.7-.6999969.15-.8999939.3-.8999939.5s.3999939.3.75.3,1.6999969-.2,3.3999939-.2c2,0,4.0500031.3,4.5500031.3.5500031,0,1.0500031,0,1.0500031-.3,0-.2-.25-.35-.6999969-.45-2.3500061-.55-2.5500031-.8500001-2.6499939-2.8499998-.1000061-2.2500002-.1499939-10.2-.1000061-11.0000002.0806122-.2710104.258728-.5025673.5-.6499996,8.1000061,0,8.4499969.1000004,9.1999969.25.6999512.272707,1.2226105.8700447,1.3999939,1.6000004.3000031.8000002.5,1.1000004.6999969,1.1000004s.3000031-.1499996.3000031-.8000002c0-.6999998-.1999969-1.3000002-.1999969-2.1999998,0-1,.1999969-2.4499998.25-3.0500002.0500031-.5499992-.0500031-.7000008-.25-.7000008-.1000061,0-.25.1499996-.5.7000008-.8000031,1.7000008-1.6000061,1.75-2.1999969,1.7999992-.8000031.0499992-3.8000031.1499996-8.6999969.1499996-.2949982-.0684547-.4897614-.3497791-.4499969-.6499996-.1000061-7.0499992,0-11.5499992,0-12.9500008,0-.25.3999939-.9500008.8000031-.9500008,4.8000031,0,7.1000061,0,8.75.1499996,1.6526184-.0192909,3.1281891,1.0318089,3.6499939,2.6000004.25.5499992.3999939,1,.6499939,1,.1999969,0,.3000031-.3999996.1999969-.8999996-.1000061-.7000008-.25-2.6000004-.3500061-3.3999996-.0500031-.3500004-.3999939-.5-1.6499939-.5-1.8999939,0-6.9499969.1499996-11.75.1499996-2.1999969,0-5.1499939-.2000008-5.6000061-.2000008-.3500061.0000019-.75.1000023-.75.3000011ZM407.5809937,47.8800697c-5.7021484-.0094261-11.2245789,1.9942932-15.5939941,5.6580009-5.137146,4.4352493-8.0023193,10.9491482-7.7999878,17.7329998,0,5.8000002,2.9670105,12.2819996,5.7269897,15.1110001,4.4159851,4.4850001,9.5220032,7.5209999,17.6640015,7.5209999,4.8202209-.0063479,9.5375977-1.3945235,13.5929871-4,.2632141-.1846466.457428-.4516993.552002-.7590001.4176331-1.8684218.7400513-3.7568562.9660034-5.6579998,0-.4829998-.1380005-1.0349998-.4140015-1.0349998-.2070007,0-.4140015.276-.6900024,1.2419996-.8779907,2.8869328-2.7956848,5.3455343-5.3819885,6.9000001-1.9290161,1.1680013-4.4820251,1.8610013-8.3480225,1.8610013-4.5879822-.0104325-8.9828491-1.8478351-12.2130127-5.1059997-4.1107788-4.6580763-6.4338074-10.6246033-6.5549927-16.8360004,0-6.7619991,2.4840088-12.972002,5.1059875-15.8000011,3.237854-3.6984673,7.9185181-5.8137741,12.8340149-5.7999992,3.8640137,0,8.2109985,1.1730003,10.7640076,3.5880013,1.5956726,1.4847832,2.7228394,3.4033623,3.2430115,5.5200005.1380005.4830017.3450012.9000015.6210022.9000015.2070007,0,.4140015-.4830017.4140015-1.0999985-.163269-1.7198753-.2093811-3.448864-.1380005-5.1749992-.0235291-.4436188-.2533264-.8506584-.6210022-1.0999985-4.229187-2.2723351-8.9299927-3.5272255-13.7290039-3.6650085ZM441.9429932,48.7800713c-2.2770081,0-4.8299866.3450012-7.3829956.3450012-2.4840088,0-4.1400146-.276001-5.1059875-.276001-.8999939,0-1.2420044.2070007-1.2420044.4140015,0,.3450012.552002.4830017,1.1730042.6209984,2.8999939.4830017,3.0360107,1.4490013,3.1740112,3.4500008.1380005,2.2080002.4140015,5.8650017.4140015,15.5249996,0,10.0050001-.1380005,15.1800003-.3450012,19.1130009-.2070007,2.9000001-.9660034,3.5190001-3.1000061,3.9330001-.8999939.207-1.3800049.345-1.3800049.621,0,.345.4830017.483,1.1730042.483,1.3110046,0,3.3120117-.345,5.8649902-.345,2.3460083,0,3.6570129.345,5.1059875.345.8280029,0,1.3800049-.207,1.3800049-.483s-.276001-.414-1.0350037-.552c-2.4840088-.414-2.9670105-1.1-3.2430115-1.9319999-.3813171-2.0709472-.5661316-4.1732869-.552002-6.2789998-.0690002-2.7600002,0-11.5919991.1380005-12.2819996.0837097-.3156357.363678-.5396194.6900024-.552,1.1573486-.1000309,2.3232727-.0067558,3.4500122.2759991.8544006.3055305,1.598877.8578701,2.1390076,1.5869999.9660034,1.1730003,6.7619934,10.6949997,10.2810059,15.1800003,2.5479736,3.1709992,5.3079834,5.4479992,9.5149841,5.4479992.8827209.0339302,1.7657166-.0590174,2.6220093-.276.552002-.207.8280029-.414.8280029-.552,0-.207-.3450012-.414-.8999939-.414-1.2420044,0-3.2430115-.621-5.4509888-2.8290001-1.8315735-1.8924148-3.5155029-3.922353-5.0369873-6.0719998-2.8112488-3.9797354-5.4147339-8.1022463-7.7999878-12.3510008-.276001-.6900005-.4140015-1.1730003-.1380005-1.3110008,1.5163879-.5275898,2.9376526-1.2964783,4.2090149-2.2770004,2.5835571-1.7650166,4.071106-4.7401543,3.9330139-7.8660011.0166016-3.2941742-1.5816345-6.387516-4.2779846-8.2799988-2.269104-1.6559982-4.960083-2.4149971-9.1000977-2.4149971v.0029984ZM439.5969849,49.8150711c4.1400146,0,6.6239929,1.0349998,8.4869995,2.7599983,1.7940063,1.6559982,2.8999939,4.2779999,2.8999939,7.9350014-.0505981,3.1500874-1.5852356,6.0914421-4.1400146,7.9349995-1.3800049.8999996-5.6579895,1.4489994-7.6589966,1.4489994-.6218262.0141373-1.243927-.0089054-1.8630066-.0690002-.2070007,0-.4830017-.2070007-.4830017-1.2420006,0-1.1000004,0-15.7320023.0690002-17.1119995.0690002-1.0999985.276001-1.0999985.4140015-1.1730003.716095-.3190956,1.4910583-.4846497,2.2750244-.4859962v.0029984ZM488.3109741,48.0900726c-.276001,0-.3450012.4140015-.4140015.6899986-.3015442,1.3108139-.9719543,2.507946-1.9320068,3.4500008-.1281738.2330208-.1991272.4931717-.2070007.7589989.0036011.6883049-.1374512,1.3696861-.4140015,2-4.2779846,10.6240005-10.4889832,26.0110006-12.3509827,29.9440007-2.6910095,5.8649998-3.105011,6.348-6.2789917,6.9689999-.6900024.138-1.3800049.276-1.3800049.621s.4140015.483,1.1730042.483c1.447998.0000003,2.6220093-.3449997,4.3479919-.3449997,2.553009,0,5.519989.345,6.8309937.345.6900024,0,1.3110046-.138,1.3110046-.483,0-.207-.3450012-.483-1.0350037-.621-1.0245972-.1062711-2.0017395-.4862134-2.82901-1.1-.7590027-.7590001-.8280029-2,0-4.8300002,1.1000061-3.7259998,3.1740112-8.9700003,3.7950134-10.3500013.2070007-.4829998.7590027-1.3799992.9660034-1.3799992,1.5180054-.0690002,10.9710083,0,13.5239868-.2070007.2070007,0,.6210022.4139996.8280029.8279991,2.553009,6.6929998,5.0369873,13.0410004,5.0369873,13.8690004,0,1.3109999-.0690002,2.691-3.1740112,3.105-.6210022.069-1.3110046.345-1.3110046.621s.4140015.483,1.1000061.483c1.4490051,0,4.3469849-.276,6.2099915-.276,3.7260132,0,4.4849854.207,5.5889893.207.6210022,0,1.2420044-.138,1.2420044-.483,0-.207-.4140015-.483-1.1730042-.621-1.7940063-.414-2.4150085-1.035-4.2090149-5.3130004-4.6229858-10.763999-7.5209961-17.6640005-12.8340149-31.8780012-.864563-1.8992615-1.5126343-3.8897896-1.9320068-5.9340019-.1358948-.4179955-.2728882-.5559959-.4798889-.5559959l-.0000305.0030022ZM492.7269592,71.8950729c-2.1278381.2675877-4.2740479.3598995-6.4169922.2759991-2.6220093,0-4.4159851,0-5.519989-.0690002-.3450012,0-.276001-.6210003-.2070007-.6210003.9660034-2.8999996,3.7260132-10.5569992,5.6579895-15.2490005.2070007-.4830017.3450012-.6899986.552002-.2070007,1.1730042,2.8289986,2.82901,6.4860001,5.9339905,15.1800003.0690308.2730007.138031.6180019.0000305.6870022l-.0000305.0030003ZM513.7030029,49.2610703c0,.3450012.4830017.5519981,1.1000061.6899986,2.6220093.6209984,2.6910095,1.3110008,2.82901,3.7999992.2070007,4.2779999.2070007,8.073.2070007,15.4560013,0,7.5900002,0,16.6289997-.2070007,18.9060001-.1380005,2.691-.4140015,3.0999999-3.1000061,3.7260001-.9660034.207-1.2420044.414-1.2420044.69s.552002.414,1.0350037.414,2.3449707-.2819978,4.690979-.2819978c2.7600098,0,5.5889893.414,6.2789917.414.7590027,0,1.4490051,0,1.4490051-.414,0-.276-.3450012-.483-.9660034-.621-3.2430115-.759-3.5190125-1.1729999-3.6570129-3.9329999-.1380005-3.105-.2070007-14.0760012-.1380005-15.1800013.1105347-.3751373.3564148-.6958675.6900024-.8999996,11.178009,0,11.6610107.1380005,12.7000122.3449993.9664307.3756123,1.6879883,1.2002525,1.9320068,2.2080002.4140015,1.1000004.6900024,1.5179996.9660034,1.5179996s.4140015-.2070007.4140015-1.1000004c0-.9659996-.276001-1.7940006-.276001-3.0359993,0-1.3799992.276001-3.3810005.3450012-4.2089996.0690002-.7590008-.0690002-.9659996-.3450012-.9659996-.1380005,0-.3450012.2070007-.6900024.9659996-1.1000061,2.3460007-2.2080078,2.4150009-3.0360107,2.4839993-1.1000061.0690002-5.243988.2070007-12.006012.2070007-.4085388-.094368-.6777649-.4845753-.6210022-.8999996-.1380005-9.7290001,0-15.9389992,0-17.8709984,0-.3450012.552002-1.3110008,1.1000061-1.3110008,6.6239929,0,9.7999878,0,12.0750122.2070007,2.2810974-.0282173,4.3182373,1.422905,5.0369873,3.5880013.3450012.7589989.552002,1.3800011.8999939,1.3800011.276001,0,.4140015-.5519981.276001-1.2420006-.1380005-.9659996-.3450012-3.5880013-.4830017-4.6920013-.0690002-.4830017-.552002-.6899986-2.2770081-.6899986-2.6220093,0-9.5910034.2070007-16.2149963.2070007-3.0360107,0-7.1069946-.276001-7.7279968-.276001-.4859619.0019989-1.0379639.1399994-1.0379639.416996ZM556.3450012,92.4540718c0,.345.3450012.621,1.2420044.621,1.1000061,0,3.1740112-.414,6.2099915-.414,2.4840088,0,4.1400146.414,5.7999878.414.8999939,0,1.3800049-.069,1.3800049-.483,0-.345-.3450012-.483-1.1730042-.69-2.2770081-.6900001-2.9670105-1.1-3.2430115-3.6570003-.2070007-2.1389999-.4140015-11.5229998-.4140015-15.4560013,0-2.7600002.0690002-18.4230003.0690002-20.9069977,0-.4140015.0690002-.9000015.4140015-.9659996,1.1730042-.1380005,4.8299866-.1380005,6.6929932-.1380005,5.4509888,0,6.2099915.1380005,6.8309937.6899986.6817627.9004898,1.0890808,1.9786568,1.1730042,3.1049995.0690002.4140015.2070007,1.0349998.4830017,1.0349998s.552002-.5519981.552002-1.5870018c-.0779419-1.6588631-.008667-3.3213692.2070007-4.9679985.0735168-.2711067.0735168-.5568924,0-.8279991-.0690002-.1380005-.276001-.1380005-.552002.0690002-1.3727417.5792313-2.8591919.8387718-4.3469849.7589989-2,.0690002-7.7279968.0690002-12.9719849.0690002-7.1069946,0-13.6619873-.0690002-14.8349915-.1380005-.8094482-.0070686-1.5997925-.2465706-2.2770081-.6899986-.1380005-.2070007-.4140015-.3450012-.552002-.276001-.276001.1380005-.276001.4140015-.276001,1.0349998-.1756287,1.9548836-.4985352,3.8937225-.9660034,5.7999992-.0690002.4140015-.0690002,1.0349998.2070007,1.0349998.2070007,0,.6210022-.4140015.8999939-1.0999985.9660034-2.6910019,1.7940063-3.519001,3.0360107-3.7260017,2.1284485-.2633247,4.272583-.3786011,6.4169922-.3450012,1.7276001-.0375557,3.4559021.0315742,5.1749878.2070007.2070007.0690002.4140015.276001.4830017.9000015.1380005,1.0349998.1380005,28.7000008-.3450012,35.2589989-.2070007,3.174-.6210022,4.3470001-3.8640137,4.7610002-.7659607.1270028-1.4559631.3340028-1.4559631.6100028ZM601.8160095,47.8800697c-3.1233215-.0655861-6.1804199.9049263-8.6940002,2.7599983-2.8414612,2.0569992-4.4715271,5.3943329-4.3469849,8.9000015,0,5.7999992,4.4849854,9.5909996,9.177002,12.7649994,5.1059875,3.4500008,8.625,5.934,8.625,11.04-.0224609,5.1734881-4.2105408,9.3620177-9.3840332,9.3850028-4.4159851,0-8.8320007-2.1389999-10.0740051-7.3830001-.276001-.9659996-.4830017-1.3109999-.7590027-1.3109999-.3450012,0-.4140015.6210003-.3450012,1.1729999.0690002,1.7249999.4830017,3.5190001.6210022,4.6919999.2070007,1.173.4140015,1.587,1.3110046,2.0699999,2.8713074,1.2619944,5.9716187,1.9196321,9.1080017,1.9320003,6.9689941,0,14.0759888-4.623,14.0759888-12.1440004,0-5.6580009-3.7260132-8.7630005-6.2099915-10.5569992-2.1390076-1.5869999-4.3470154-3.243-7.1759949-5.105999-2.3460083-1.5869999-5.1749878-4.1399994-5.1749878-8.2799988-.0779419-4.6572914,3.4961853-8.5641479,8.1419983-8.8999977,2.009552-.0291023,3.9812622.5479774,5.6579895,1.6559982,1.3376465.9715424,2.2319031,2.4370918,2.4840088,4.0709991.1380005.7589989.3450012,1.0349998.6210022,1.0349998.2070007,0,.4830017-.4140015.3450012-1.3800011-.0690002-.6899986-.276001-2.6220016-.276001-4.4850006-.0088806-.3226662-.194458-.6143112-.4830017-.7589989-2.3590393-.6811218-4.7915955-1.0752983-7.2450256-1.1739998l.0000305-.0000038ZM616.7890015,49.1910706c0,.2070007.4140015.4830017,1.1000061.6209984,1.3110046.3450012,2.6220093.4140015,3.8640137,1.862999,1.1730042,1.3800011,1.6560059,2.4150009,1.6560059,6.5550003,0,4.0709991-.9660034,19.941-1.3800049,24.0119991-.4140015,4-.7590027,6.4169998-1.4490051,7.3829999-.8041077,1.3238533-2.1837158,2.192731-3.7250366,2.3460045-.8999939.138-1.2420044.414-1.2420044.621,0,.345.4140015.483,1.1730042.483.6900024,0,2.553009-.414,5.1059875-.414,1.9135742.0190015,3.8249817.1341467,5.7269897.345.7590027.069,1.3800049-.069,1.3800049-.414,0-.276-.4140015-.552-1.1730042-.69-1.3800049-.345-3.105011-.966-3.5190125-2.622-.3663025-1.6990943-.5054932-3.4392815-.4140015-5.1749997,0-2,.8280029-20.5620003,1.1000061-25.0470009.0690002-.9000015.276001-.9000015.6210022-.3450012,2.9670105,6.1409988,11.7999878,24.1499996,15.3179932,31.4640007.7660522,1.5840012,1.3230591,2.7600012,1.6630249,2.7600012s.6209717-.414.9660034-1.1c3.5189819-7.8000005,12.4890137-24.8399996,17.1119995-33.9480032.1380005-.3450012.3449707-.6209984.3449707.276001,0,2.7600002,0,22.0799999-.2069702,25.875-.2069702,5.8649998-.6900024,6.8309999-3.5880127,7.5900002-.7589722.069-1.4489746.345-1.4489746.621,0,.483.7589722.552,1.5180054.552,1.0349731,0,2.2080078-.138,5.1749878-.138,1.5180054,0,5.4509888.414,6.2789917.414.9000244,0,1.2420044-.138,1.2420044-.414,0-.345-.4140015-.552-1.0349731-.759-2.690979-.7590001-3.4500122-1.3109999-3.7260132-5.382-.1380005-2.1389999-.3449707-8.8999996-.3449707-16.4219999,0-3.519001.0689697-12.3510017.2069702-14.4900017.2069702-4.1399994.552002-4.9000015,4.6229858-5.9339981.4829712-.0690002.9660034-.3450012.9660034-.5519981,0-.276001-.4140015-.4140015-.9660034-.4140015-1.0349731,0-5.382019.4140015-6.7620239.4140015-.3449707,0-.552002.6899986-.6209717.8279991-.5872192,1.8994751-1.2782593,3.7652817-2.0700073,5.5890007-1.7249756,3.4500008-10.6259766,20.493-15.6630249,30.0839996-.276001.4829998-.4140015.8280001-.6900024.3449998-5.1749878-9.7290006-14.8349915-28.8419976-18.0780029-35.8799996-.3450012-.7589989-.6900024-.9659996-.8999939-.9659996-1.5870056,0-5.6579895-.2070007-6.8309937-.276001-.6869507-.072998-1.3079529.0650024-1.3079529.3409996ZM696.1389771,48.0910721c-.276001,0-.3449707.4140015-.4140015.6899986-.3015747,1.3108139-.9719238,2.507946-1.9320068,3.4500008-.1281738.2330246-.1990967.4931717-.2069702.7589989.00354.6883011-.1374512,1.3696785-.4140015,2-4.2780151,10.6259995-10.4879761,26.0130005-12.3510132,29.9459991-2.690979,5.8649998-3.0999756,6.348-6.2789917,6.9689999-.6900024.138-1.3800049.276-1.3800049.621s.4140015.483,1.1729736.483c1.4490356-.0029976,2.6200562-.3479976,4.3470459-.3479976,2.5529785,0,5.5200195.345,6.8309937.345.6900024,0,1.3109741-.138,1.3109741-.483,0-.207-.3449707-.483-1.0349731-.621-1.0245972-.1062765-2.001709-.4862184-2.8289795-1.1-.7589722-.7590001-.8280029-2,0-4.8300002,1.0999756-3.7259998,3.1740112-8.9700003,3.7999878-10.3500013.2069702-.4829998.7589722-1.3799992.9660034-1.3799992,1.5180054-.0690002,10.9710083,0,13.5239868-.2070007.2069702,0,.6209717.4139996.8280029.8279991,2.5529785,6.6929998,5.0369873,13.0410004,5.0369873,13.8690004,0,1.3109999-.0689697,2.691-3.1740112,3.105-.6209717.069-1.3109741.345-1.3109741.621s.4140015.483,1.0999756.483c1.4489746,0,4.3469849-.276,6.210022-.276,3.7260132,0,4.4849854.207,5.5889893.207.6209717,0,1.2420044-.138,1.2420044-.483,0-.207-.4140015-.483-1.1729736-.621-1.7940063-.414-2.414978-1.035-4.2089844-5.3130004-4.6240234-10.7679987-7.5220337-17.6679983-12.8340454-31.881999-.864563-1.8992615-1.5126343-3.8897896-1.9320068-5.9340019-.1389771-.4139977-.2769775-.5519981-.4840088-.5519981v.0040016ZM700.5549927,71.8920727c-2.1278076.2675934-4.2740479.3599033-6.4169922.2759991-2.6220093,0-4.4160156,0-5.5200195-.0690002-.3449707,0-.276001-.6210003-.2069702-.6210003.9660034-2.8999996,3.7260132-10.5570011,5.65802-15.2489986.2069702-.4830017.3449707-.6899986.552002-.2070007,1.1729736,2.8289986,2.8289795,6.4860001,5.934021,15.1800003.0689087.2759991.1379395.6210003-.000061.6900005ZM719.875,49.2610703c0,.3450012.3449707.4830017,1.3109741.6209984,1.2263794.1166878,2.3965454.5704269,3.3809814,1.3110008.6209717.4830017,1.2420044.9659996,1.2420044,5.0369987,0,4.2779999-.552002,27.7380009-.7589722,30.2220001-.3449707,4-.9660034,4.6919999-3.6569824,5.4510002-.7589722.207-1.3109741.345-1.3109741.69,0,.207.1380005.414,1.1729736.414.4829712,0,2.6220093-.345,4.7609863-.345,2.2080078,0,4.0709839.345,5.2440186.345.6900024,0,1.3109741-.069,1.3109741-.414,0-.414-.4829712-.552-1.2420044-.759-.9660034-.276-2.8289795-.9660001-3.3809814-2.2079999-.552002-1.1729999-.7589722-2.829-.7589722-5.8650002,0-2.967.2069702-25.9439983.2069702-28.7000027,0-.4830017.2069702-.5519981.552002-.1380005,9.6599731,11.316,27.1859741,31.3950005,31.53302,36.7080002,1.2420044,1.518,2.0009766,2.277,2.2769775,2.277.4829712,0,.552002-.621.4829712-2-.1380005-3.6570001,0-7.4520001,0-13.8000007,0-6.4860001.1380005-21.9419994.4140015-24.0119991.276001-1.7939987.3449707-3.243,3.0360107-4.1399994.552002-.2070007,1.1729736-.3450012,1.1729736-.6899986,0-.276001-.4140015-.3450012-1.0999756-.3450012-.7589722,0-2.2769775.2070007-4.3469849.2070007-1.5869751,0-3.3809814-.2070007-4.6229858-.2070007-.7589722,0-1.3800049.0690002-1.3800049.4140015,0,.276001.4829712.4140015,1.3109741.6209984,2.1389771.5519981,3.5189819,1.1730003,3.5189819,5.3129997.0689697,6.2789993.3449707,26.6340008.3449707,29.3939991,0,.7589998-.3449707.6209998-.4140015.552-6.6929932-7.4519997-25.5300293-28.7730026-30.0150146-34.5690002-.9660034-1.2420006-1.2420044-1.5180016-1.5869751-1.5180016-2.4840088,0-5.7269897-.3450012-7.1760254-.3450012-1.1769409-.0059891-1.5219116.2010117-1.5219116.4780083ZM787.0809937,47.8810692c-3.123291-.0655785-6.1804199.9049339-8.6939697,2.7599983-2.8414917,2.0569992-4.4714966,5.3943329-4.3469849,8.9000015,0,5.7999992,4.4849854,9.5909996,9.177002,12.7649994,5.1060181,3.4500008,8.625,5.934,8.625,11.04-.0230103,5.1742587-4.2127686,9.362659-9.3870239,9.3840034-4.4160156,0-8.8319702-2.1389999-10.0739746-7.3830001-.276001-.9659996-.4829712-1.3109999-.7589722-1.3109999-.3449707,0-.4140015.6210003-.3449707,1.1729999.0689697,1.7249999.4829712,3.5190001.6209717,4.6919999.2069702,1.173.4140015,1.587,1.3109741,2.0699999,2.8713379,1.2619902,5.9716187,1.9196277,9.1079712,1.932,6.9689941,0,14.0759888-4.6230003,14.0759888-12.1440002,0-5.6580009-3.7260132-8.7630005-6.210022-10.5569992-2.1389771-1.5869999-4.3469849-3.243-7.1760254-5.105999-2.3460083-1.5869999-5.1749878-4.1399994-5.1749878-8.2799988-.0779419-4.6573029,3.4962158-8.5641632,8.1420288-8.8999977,2.0095825-.02911,3.9812622.5479736,5.65802,1.6559982,1.3376465.9715424,2.2318726,2.4370918,2.4840088,4.0709991.1380005.7589989.3449707,1.0349998.6209717,1.0349998.2069702,0,.4829712-.4140015.3449707-1.3800011-.0689697-.6899986-.276001-2.6220016-.276001-4.4850006-.0088501-.3226585-.194458-.6142998-.4829712-.7589989-2.3580933-.6808739-4.7896118-1.0750465-7.2420044-1.1739998v.0009956ZM806.5390015,70.5810699c0,10.8330002-.1380005,15.8000002-.276001,17.9400005s-.6209717,2.829-2.96698,3.312c-.6900024.138-1.1729736.345-1.1729736.69,0,.207.4140015.414,1.0999756.414,1.0349731,0,3.3120117-.276,5.0369873-.276,2.0700073,0,4.3469849.345,5.65802.345.6900024,0,1.1729736-.138,1.1729736-.414,0-.207-.2069702-.483-1.1729736-.69-1.3109741-.345-2.414978-.9-2.690979-2.346-.555542-5.3862288-.7860107-10.8010466-.6900024-16.2150004,0-1.1730003.276001-1.7250004.4829712-1.7250004.8280029,0,5.0369873.0690002,8.2800293.0690002,6.7620239,0,16.6290283.1380005,18.8369751.2759991.4140015,0,.4140015.6900005.4829712,1.6560001.1380005,1.3799992,0,10.7639999-.0689697,14.283-.0689697,2.967-.7589722,3.381-3.0999756,3.8640001-.8280029.138-1.0999756.345-1.0999756.552,0,.345.4829712.483,1.3109741.483,1.2420044,0,3.4500122-.138,4.7609863-.138,1.5180054,0,5.2440186.207,6.210022.207.6900024,0,1.0349731-.138,1.0349731-.414s-.276001-.414-1.0349731-.621c-2.96698-.6210001-3.3120117-1.5180001-3.4500122-4.9679999-.2069702-7.1759996-.2069702-10.0740004-.3449707-14.7659998-.1380005-4.7609997-.2069702-14.4209995-.1380005-17.1810017,0-3.243.1380005-4.4850006,3.1740112-5.105999.7589722-.2070007.9660034-.4140015.9660034-.6209984,0-.276001-.3449707-.3450012-1.0999756-.3450012-1.2420044,0-2.8289795.276001-4.9680176.276001-2.0700073,0-4.4160156-.276001-5.934021-.276001-.6209717,0-.9000244.2070007-.9000244.3450012,0,.276001.4140015.4830017.9660034.5519981,3.0360107.4140015,3.0360107,1.6559982,3.242981,6,.1380005,2.5530014.4140015,10.3500004.276001,12.6269989-.0689697,1.0349998-.1380005,1.1730003-.6209717,1.2420006-2.5018311.1974602-5.012085.266552-7.5209961.2070007-6.8309937,0-17.1810303.0690002-19.1129761-.0690002-.4140015-.0690002-.552002-.6900005-.552002-1.3799992,0-1.3110008.0689697-12.9719982.2069702-14.6280003.2069702-2.2770004.552002-3.3810005,3.0360107-3.9329987.552002-.0690002.9000244-.3450012.9000244-.5519981,0-.276001-.276001-.4140015-1.0349731-.4140015-.9000244,0-3.4500122.276001-5.1749878.276001-2.0700073,0-4.0709839-.3450012-5.1749878-.3450012-.7589722,0-1.1729736.0690002-1.1729736.4140015,0,.2070007.3449707.4830017,1.0999756.6209984,2.96698.7589989,2.8289795,1.5870018,3.0360107,5.5890007.1328125,2.625.2018433,11.5950012.2018433,15.1829987ZM853.8729858,49.1910706c0,.276001.276001.4140015.7589722.5519981,2.414978.5519981,3.0360107.8279991,3.242981,3.0999985.2632446,1.9887161.37854,3.9942207.3449707,6,0,3.6569996.0689697,23.2530003-.0689697,27.1860008-.0689697,4.1399999-.4140015,5.244-2.96698,5.8000002-1.1729736.276-1.5869751.483-1.5869751.69,0,.345.4140015.483,1.0349731.483,1.2420044,0,3.3120117-.345,6.2789917-.345,1.6560059,0,3.6569824.207,4.2780151.207.8280029,0,1.3109741-.069,1.3109741-.414,0-.276-.2069702-.483-1.1729736-.69-2.0700073-.552-2.414978-.9-2.6220093-3.5190003-.1380005-1.9320002-.3449707-7.9349995-.3449707-18.0779991,0-4.4850006-.0689697-12.4890003.1380005-16.1460018.1380005-2.9000015.4140015-3.7999992,3.1049805-4.2779999.7589722-.0690002,1.0349731-.3450012,1.0349731-.6209984,0-.1380005-.4829712-.276001-.9660034-.276001-1.5180054,0-3.4500122.276001-5.382019.276001-2.1389771,0-3.4500122-.276001-5.382019-.276001-.6898804.0040054-1.0349121.1420059-1.0349121.3490028ZM873.2619629,49.329071c0,.3450012.6900024.4830017,1.0999756.5519981,1.9320068.2070007,2.7600098.9659996,2.8289795,2.2770004.1380005,1.3800011.4829712,10.5569992.4829712,16.2150002,0,10.8330002-.0689697,18.7679996-.1380005,20.3549995-.1380005,2.277-.9000244,2.76-2.96698,3.174-.9660034.207-1.1729736.414-1.1729736.621,0,.345.6209717.414,1.2420044.414.7589722,0,2.4840088-.276,4.2089844-.276,3.242981,0,4.5540161.345,6.6240234.345.6209717,0,1.0999756-.138,1.0999756-.483,0-.276-.3449707-.483-1.3800049-.621-2.1389771-.345-2.96698-1.035-3.1740112-3.7260001-.1380005-1.9320002-.276001-6.6240005-.276001-14.0760002,0-7.3829994-.0689697-21.8729992-.0689697-23.1149998-.0167236-.5116043.2145386-.9998131.6209717-1.3110008,1.1463013-.3166275,2.3297119-.4790573,3.5189819-.4830017,3.1576538-.0540848,6.1724243,1.3139572,8.2109985,3.7260017,2.9000244,2.9000015,3.4500122,7.1069984,3.4500122,9.177,0,10-7.0380249,11.8000011-9.3150024,11.8000011-.507019.0130596-1.0142822-.0100002-1.5180054-.0690002-.552002-.0690002-.7589722.1380005-.7589722.2759991,0,.2759991.4140015.4829998.8280029.6210003.7190552.1967926,1.4625854.2897339,2.2080078.2759991,2.5446167.0387115,5.0429688-.6819744,7.1760254-2.0699997,2.4840088-1.6560001,5.7999878-4.6919994,5.7999878-11.2469997-.0146484-3.3574142-1.2960205-6.5855789-3.5880127-9.0390015-2.6220093-2.9000015-6.8309937-4.4160004-12.3510132-4.4160004-1.1729736,0-5.1060181.4140015-6.6929932.4830017-1.8629761.0690002-3.8640137.1380005-4.9000244.1380005-.6159058-.0009956-1.098938.2750015-1.098938.4820023Z"/>
        <path id="_パス_546" data-name="パス_546" class="st1" d="M397.7999926,162.5810719c0,10.8330002-.138,15.8000002-.276,17.9400005s-.6209998,2.8289994-2.9689999,3.3119994c-.6900001.138-1.1729999.345-1.1729999.69,0,.207.414.414,1.0999999.414,1.0409999,0,3.3179998-.276,5.0430002-.276,2.0699997,0,4.3470001.345,5.658.345.6899996,0,1.1730003-.138,1.1730003-.414,0-.207-.2069998-.483-1.1730003-.69-1.3109999-.345-2.415-.8999999-2.691-2.346-.5555592-5.386229-.7859774-10.8010459-.6899996-16.2149997,0-1.1730003.276-1.7250004.4829998-1.7250004.8280001,0,5.0369997.0690002,8.2799997.0690002,6.7619991,0,16.6289997.1380005,18.8369999.2759991.4140015,0,.4140015.6900005.4830017,1.6560001.1380005,1.3799992,0,10.7639999-.0690002,14.283-.0690002,2.9670006-.7610016,3.3810006-3.1050034,3.8610007-.8279991.138-1.0999985.345-1.0999985.552,0,.345.4830017.483,1.3110008.483,1.2329979.003,3.4459991-.135,4.757-.135,1.5180016,0,5.2439995.207,6.2099991.207.6899986,0,1.0349998-.138,1.0349998-.414s-.276001-.414-1.0349998-.621c-2.9669991-.621-3.3120003-1.5179999-3.4500008-4.968-.2070007-7.1760001-.2070007-10.0740008-.3450012-14.7660003-.1380005-4.7609997-.2070007-14.4210014-.1380005-17.1809998,0-3.243.1380005-4.4850006,3.1739998-5.105999.7589989-.2070007.9659996-.4140015.9659996-.6209984,0-.276001-.3450012-.3450012-1.0999985-.3450012-1.2420006,0-2.8289986.276001-4.9679985.276001-2.0699997,0-4.4160004-.276001-5.9339981-.276001-.6209984,0-.9000015.2070007-.9000015.3450012,0,.276001.4140015.4830017.9659996.5519981,3.0359993.4140015,3.0359993,1.6559982,3.243,6,.1380005,2.5530014.4140015,10.3500004.276001,12.6269989-.0690002,1.0349998-.1380005,1.1730003-.6209984,1.2420006-2.5018158.197464-5.0121117.2665539-7.5209999.2070007-6.8309994,0-17.1809998.0690002-19.1130009-.0690002-.4139996-.0690002-.552-.6900005-.552-1.3799992,0-1.3110008.0690002-12.972002.2069998-14.6280003.2069998-2.2770004.552-3.3810005,3.0360003-3.9329987.552-.0690002.8999996-.3450012.8999996-.5519981,0-.276001-.276-.4140015-1.0349998-.4140015-.8999996,0-3.4499998.276001-5.1750002.276001-2.0699997,0-4.0710001-.3450012-5.1750002-.3450012-.7590001,0-1.1729999.0690002-1.1729999.4140015,0,.2070007.345.4830017,1.0999999.6209984,2.967.7589989,2.829,1.5870018,3.0360003,5.5890007.1379991,2.6249962.2069988,11.5949974.2069988,15.1829967ZM445.4099922,141.2610703c0,.276001.276001.4830017.9659996.6209984,2.4840012.5519981,3.243,1.3800011,3.243,5.4510002,0,14.3520012-.0690002,21.0450001-.3450012,32.2229996-.0690002,3.036-1.3800011,4-3.8639984,4.4159999-.7589989.138-1.2420006.276-1.2420006.552s.4140015.483,1.2420006.483c.7589989-.0009965,4.3450012-.3459965,6.6240005-.3459965,5.6580009,0,13.5209999.276,20.8380013.276.4140015,0,.6900024-.345.9000015-.759.4140015-.828.9660034-3.2430001,1.5179977-5.1059997.276001-.8280001.2070007-1.2420001-.0690002-1.2420001s-.552002.276-1.2419968,1.2420001c-.7256165,1.116117-1.532814,2.1770132-2.4150009,3.174-1.2450027,1.1039997-2.1420059,1.3149997-8.7660065,1.3149997-4.9680023,0-5.9339981-.138-7.1070023-.7589999-1.1178741-.6747932-1.8188171-1.8689957-1.862999-3.174,0-1.3109999-.2070007-10.7639999-.2070007-14.2139997,0-1.5179996,0-1.5869999.6209984-1.5869999,9.9360008,0,12.0060005.0690002,13.454998.4829998.8261337.4171181,1.430397,1.1724529,1.6559982,2.0699997.4830017,1.1730003.552002,1.5179996.8280029,1.5179996.1380005,0,.6210022-.4139996.4140015-1.4489994-.1717606-1.234148-.2180023-2.4825268-.1380005-3.7259998.1380005-1.2420006.4140015-3.0359993.4140015-3.4500008,0-.4829998-.1380005-.7590008-.3450012-.7590008s-.4140015.2070007-.6900024.7590008c-.355835.9594078-.9782333,1.7972546-1.7939987,2.4150009-.552002.3449993-1.0999985.4829998-4.6230011.4829998h-9.3839912c-.2070007,0-.4140015-.2070007-.4140015-1.2420006v-16.0809994c0-2.3460007.276001-2.4840012.8279991-2.5530014,4.6004791-.1699944,9.2066879-.1009026,13.8000031.2070007,1.2419968.2070007,2.2770004.9000015,3.5879974,4,.3450012.7589989.4830017.9659996.6900024.9659996.276001,0,.3450012-.6209984.276001-1.0349998-.2578812-1.4597855-.4192276-2.9349861-.4830017-4.4160004-.1380005-.8279991-.3450012-1.1730003-.6210022-1.1730003-.7590027,0-1.586998.1380005-4.1399994.1380005-2.7600021,0-12.7649994.1380005-15.8699989.1380005-2.2080002,0-3.7260017-.2070007-5.3129997-.2070007-.5519981.0020027-.9659996.2089996-.9659996.3479996ZM493.5029907,140.7780685c-2.2770004,0-4.8300018.3450012-7.3830032.3450012-2.4840012,0-4.1399994-.276001-5.1060028-.276001-.9000015,0-1.2419968.2070007-1.2419968.4140015,0,.3450012.552002.4830017,1.1729965.6209984,2.9000015.4830017,3.0360031,1.4490013,3.1740036,3.4500008.1380005,2.2080002.4140015,5.8649979.4140015,15.5249996,0,10.0050001-.1380005,15.1800003-.3450012,19.1130009-.2070007,2.9000001-.9660034,3.5190001-3.1050034,3.9330001-.9000015.207-1.3799973.345-1.3799973.621,0,.345.4830017.483,1.1729965.483,1.3110123-.0009982,3.3120117-.3459982,5.8650055-.3459982,2.3460007,0,3.6569977.345,5.1060028.345.8280029,0,1.3799973-.207,1.3799973-.483s-.276001-.414-1.0350037-.552c-2.4840012-.414-2.9670029-1.1-3.2429962-1.932-.3812561-2.0706189-.5660706-4.172621-.5519943-6.2779996-.0690002-2.7600002,0-11.592001.1380005-12.2819996.0837097-.3156357.3636932-.5396194.6900024-.552,1.1573486-.100029,2.3232727-.0067539,3.4499969.2759991.8544083.3055325,1.5988693.857872,2.1389999,1.5869999.9660034,1.1730003,6.762001,10.6949997,10.2809982,15.1800003,2.5530014,3.174,5.3130035,5.4510002,9.5220032,5.4510002.8827057.0339295,1.7657089-.0590181,2.6220016-.276.552002-.207.8280029-.414.8280029-.552,0-.207-.3450012-.414-.9000015-.414-1.2419968,0-3.2430038-.6209999-5.4509964-2.8290001-1.8315735-1.8924217-3.5155029-3.9223585-5.0370026-6.0719995-2.8112411-3.9797411-5.4147263-8.1022511-7.8000031-12.3509998-.276001-.6900005-.4140015-1.1730003-.1380005-1.3110008,1.5163727-.5275917,2.9376526-1.2964802,4.2089996-2.2770004,2.5835419-1.7650204,4.071106-4.7401543,3.9329987-7.8659992.0165939-3.294178-1.5816345-6.3875198-4.2779999-8.2799988-2.2710037-1.6570015-4.9620056-2.4160004-9.102005-2.4160004v.0009956ZM491.1549911,141.8120728c4.1399994,0,6.6240005,1.0349998,8.4869995,2.7599983,1.7939987,1.6559982,2.9000015,4.2779999,2.9000015,7.9350014-.0506058,3.1500835-1.5852203,6.0914383-4.1399994,7.9349995-1.3799973.8999996-5.6579971,1.4489994-7.6589966,1.4489994-.6218185.0141354-1.243927-.0089054-1.862999-.0690002-.2070007,0-.4830017-.2070007-.4830017-1.2420006,0-1.1000004,0-15.7320023.0690002-17.1119995.0690002-1.0999985.276001-1.0999985.4140015-1.1730003.7162933-.3180618,1.4912567-.4825897,2.2749939-.4829979ZM521.3769836,141.1910744c0,.276001.276001.4140015.7590027.5519981,2.4149933.5519981,3.0359955.8279991,3.2429962,3.0999985.2632294,1.9887161.3785553,3.9942207.3450012,6,0,3.6569996.0690002,23.2530003-.0690002,27.1860008-.0690002,4.1399999-.4140015,5.244-2.9669952,5.8000002-1.1730042.276-1.5870056.483-1.5870056.69,0,.345.4140015.483,1.0350037.483,1.2440033.0039998,3.3190002-.3410002,6.2810059-.3410002,1.6560059,0,3.6569977.207,4.2779999.207.8280029,0,1.3110046-.069,1.3110046-.414,0-.276-.2070007-.483-1.1730042-.69-2.0700073-.552-2.4149933-.8999999-2.621994-3.5189999-.1380005-1.9320002-.3450012-7.9349999-.3450012-18.0779996,0-4.4850006-.0690002-12.4890022.1380005-16.1459999.1380005-2.9000015.4140015-3.7999992,3.1000061-4.2779999.7590027-.0690002,1.0350037-.3450012,1.0350037-.6209984,0-.1380005-.4830017-.276001-.9660034-.276001-1.5180054,0-3.4499969.276001-5.3820038.276001-2.1389923,0-3.4499969-.276001-5.3820038-.276001-.6849976,0-1.0299988.1380005-1.0299988.3449974l-.0020142.0000038ZM548.219986,184.4540718c0,.345.3450012.621,1.2420044.621,1.1000061,0,3.173996-.414,6.2100067-.414,2.4839935,0,4.1399994.414,5.8000031.414.8999939,0,1.3800049-.069,1.3800049-.483,0-.345-.3450012-.483-1.1730042-.69-2.2769928-.6900001-2.9669952-1.1-3.2429962-3.6570003-.2070007-2.1389999-.4140015-11.5229998-.4140015-15.4560013,0-2.7600002.0690002-18.4230003.0690002-20.9069977,0-.4140015.0690002-.9000015.4140015-.9659996,1.1730042-.1380005,4.8300018-.1380005,6.6929932-.1380005,5.451004,0,6.2100067.1380005,6.8309937.6899986.681778.9004898,1.0890808,1.9786568,1.1730042,3.1049995.0690002.4140015.2070007,1.0349998.4830017,1.0349998s.552002-.5519981.552002-1.5870018c-.0779419-1.6588631-.008667-3.3213692.2070007-4.9679985.0735016-.2711067.0735016-.5568924,0-.8279991-.0690002-.1380005-.276001-.1380005-.552002.0690002-1.3727417.5792351-2.8592072.8387756-4.3470001.7589989-2,.0690002-7.7279968.0690002-12.9720001.0690002-7.1069946,0-13.6620026-.0690002-14.8350067-.1380005-.809433-.0070724-1.5997925-.2465744-2.2769928-.6899986-.1380005-.2070007-.4140015-.3450012-.552002-.276001-.276001.1380005-.276001.4140015-.276001,1.0349998-.1756287,1.9548836-.4985504,3.8937225-.9660034,5.7999992-.0690002.4140015-.0690002,1.0349998.2070007,1.0349998.2070007,0,.6210022-.4140015.8999939-1.0999985.9660034-2.6910019,1.7940063-3.519001,3.0359955-3.7260017,2.1284485-.2633247,4.2725983-.3786049,6.4170074-.3450012,1.7276154-.0375557,3.4559021.0315742,5.1750031.2070007.2070007.0690002.4140015.276001.4830017.9000015.1380005,1.0349998.1380005,28.7000008-.3450012,35.2589989-.2070007,3.174-.6210022,4.3470001-3.8639984,4.7610002-.7660065.1270028-1.4560089.3340028-1.4560089.6100028ZM592.519989,140.0870705c-.276001,0-.3450012.4140015-.4140015.6899986-.3015594,1.3108139-.9719543,2.507946-1.9320068,3.4500008-.1281738.2330208-.1991272.4931717-.2070007.7589989.0036011.6883049-.1374512,1.3696861-.4140015,2-4.2779999,10.6259995-10.4880066,26.0130005-12.3509979,29.9459991-2.6909943,5.8649998-3.1000061,6.348-6.279007,6.9689999-.6900024.138-1.3800049.276-1.3800049.621s.4140015.483,1.1730042.483c1.4490051,0,2.621994-.345,4.3470001-.345,2.5529938,0,5.5200043.345,6.8309937.345.6900024,0,1.3110046-.138,1.3110046-.483,0-.207-.3450012-.483-1.0350037-.621-1.0245972-.1062738-2.0017395-.4862159-2.8289948-1.1-.7590027-.7589999-.8280029-1.9999999,0-4.8299998,1.1000061-3.7260003,3.173996-8.9699998,3.7949982-10.3500009.2070007-.4829998.7590027-1.3799992.9660034-1.3799992,1.5180054-.0690002,10.970993,0,13.5240021-.2070007.2070007,0,.6210022.4139996.8280029.8279991,2.5529938,6.6929998,5.0370026,13.0410004,5.0370026,13.8690004,0,1.3109999-.0690002,2.691-3.173996,3.105-.6210022.069-1.3110046.345-1.3110046.621s.4140015.483,1.1000061.483c1.4490051-.002995,4.348999-.2789949,6.2120056-.2789949,3.7259979,0,4.4850006.207,5.5890045.207.6210022,0,1.2420044-.138,1.2420044-.483,0-.207-.4140015-.483-1.1730042-.621-1.7940063-.414-2.4149933-1.0349999-4.2089996-5.313-4.6230011-10.763999-7.5209961-17.6640005-12.8339996-31.8780012-.8645782-1.8992577-1.5126495-3.8897858-1.9320068-5.9340019-.1380005-.4139977-.276001-.5519981-.4830017-.5519981h.0019989ZM596.9359894,163.8920708c-2.1278381.2675896-4.2740631.3598995-6.4170074.2759991-2.621994,0-4.4160004,0-5.5200043-.0690002-.3450012,0-.276001-.6210003-.2070007-.6210003.9660034-2.8999996,3.7259979-10.5569992,5.6580048-15.2490005.2070007-.4830017.3450012-.6899986.552002-.2070007,1.1730042,2.8289986,2.8289948,6.4860001,5.9340057,15.1800003.0670013.2760029.1360016.6210041-.0019989.6900043l.0019989-.0000019ZM641.5789948,139.8800735c-8.6940002,0-12.8339996,2.6220016-16.0079956,4.9679985-6.4860077,4.9679985-9.2460022,10.9710007-9.2460022,18.0779991-.1822052,6.3351793,2.5362549,12.4072723,7.3829956,16.4909992,4.7964325,4.3256201,11.0691528,6.6470191,17.526001,6.4860001,3.5622711-.1229335,7.0517426-1.0424556,10.2119904-2.691,1.5180054-.7590001,2.6910095-1.3800001,3.2430115-1.6560001s.4830017-.7590001.4830017-1.6560001c0-.9660001-.3450012-5.934-.3450012-8.8319998,0-3.6570005.4140015-4.1400003,1.3800049-4.3470011.4830017-.1380005,1.3110046-.3449993,1.3110046-.6900005,0-.2759991-.4830017-.4139996-1.1000061-.4139996-.552002,0-1.5180054.1380005-4,.1380005-2.4150085,0-4.2090149-.2070007-5.3129883-.2070007-1.3800049-.0690002-1.6560059.2070007-1.6560059.4139996,0,.2759991.4830017.4829998,1.1730042.552,3.0360107.4139996,3.8640137,1.1730003,4.0710144,3.5880003.1538391,2.5745449.1307983,5.1566133-.0690002,7.7280002-.1380005,1.6560001-.1380005,2.7599998-1.0350037,3.7950001-2.3836365,2.0941069-5.4616089,3.22562-8.6340332,3.1740026-4.0926361-.0941411-8.0422821-1.5237665-11.246994-4.0710001-5.1822052-4.304131-8.2319183-10.6525598-8.3529968-17.3879991,0-7.5900002,2.621994-13.1790009,5.9340057-16.7669983,3.5695953-3.6192093,8.4406281-5.6570854,13.5240021-5.6580009,7.3140106,0,11.1779938,2.7599983,13.2480011,7.7280006.4140015.9659996.4830017,1.0999985.8280029,1.0999985.2070007,0,.4830017-.4140015.276001-1.3110008-.1380005-.8279991-.552002-3.4500008-.552002-3.8639984.0648193-.6331635-.1947632-1.2561874-.6900024-1.6559982-1.5265808-.6720848-3.0936279-1.2482071-4.6919861-1.7249985-2.4854736-.7590446-5.0575256-1.1982498-7.6540222-1.307003h.0019989ZM664.0039978,141.2600746c0,.276001.276001.4830017.9660034.6209984,2.4840088.5519981,3.2430115,1.3800011,3.2430115,5.4510002,0,14.3520012-.0690002,21.0450001-.3450012,32.2229996-.0690002,3.036-1.3800049,4-3.8640137,4.4159999-.7590027.138-1.2420044.276-1.2420044.552s.4140015.483,1.2420044.483c.7590027,0,4.3470154-.345,6.6239929-.345,5.6579895,0,13.5239868.276,20.8380127.276.4140015,0,.6900024-.345.8999939-.759.4140015-.828.9660034-3.243,1.5180054-5.1060002.276001-.8280001.2070007-1.2420001-.0690002-1.2420001s-.552002.276-1.2420044,1.2420001c-.7265625,1.1162148-1.53479,2.1771133-2.4179993,3.1739993-1.2420044,1.1-2.1390076,1.311-8.7630005,1.311-4.9679871,0-5.9339905-.138-7.1069946-.7589999-1.1178894-.6747913-1.8188171-1.868994-1.8630066-3.1739998,0-1.3109999-.2070007-10.7639999-.2070007-14.2139997,0-1.5179996,0-1.5869999.6210022-1.5869999,9.9360046,0,12.006012.0690002,13.4549866.4829998.8261414.4171162,1.4304199,1.172451,1.6560059,2.0699997.4830017,1.1730003.552002,1.5179996.8280029,1.5179996.1380005,0,.6210022-.4139996.4140015-1.4489994-.1717529-1.234148-.2179871-2.4825268-.1380005-3.7259998.1380005-1.2420006.4140015-3.0359993.4140015-3.4500008,0-.4829998-.1380005-.7590008-.3450012-.7590008s-.4140015.2070007-.6900024.7590008c-.355835.9594078-.978241,1.7972546-1.7940063,2.414999-.552002.3449993-1.1000061.4829998-4.6229858.4829998h-9.3840027c-.2070007,0-.4140015-.2070007-.4140015-1.2420006v-16.0769978c0-2.3460007.276001-2.4840012.8280029-2.5530014,4.6004639-.1699944,9.206665-.1009026,13.7999878.2070007,1.2420044.2070007,2.2770081.9000015,3.5880127,4,.3450012.7589989.4830017.9659996.6900024.9659996.276001,0,.3450012-.6209984.276001-1.0349998-.2578735-1.4597855-.41922-2.9349861-.4830017-4.4160004-.1380005-.8279991-.3450012-1.1730003-.6210022-1.1730003-.7590027,0-1.5870056.1380005-4.1400146.1380005-2.7600098,0-12.7650146.1380005-15.8699951.1380005-2.2080078,0-3.7260132-.2070007-5.3129883-.2070007-.5540161.0020027-.9680176.2089996-.9680176.3479996l.0020142-.0009956Z"/>
        <path id="_パス_545" data-name="パス_545" class="st1" d="M52.9749928,119.2000713c-1.3867655.0660381-2.7366161.468626-3.9330006,1.1730003-1.9756517,1.035183-3.7513309,2.4136715-5.244,4.0710011-.7590001.9659996-1.0349998,1.3799992-1.0349998,1.7250004.0153909.3109226.2450271.5692616.552.6210003.9886904-.3009586,1.938293-.7178574,2.829-1.2420006.1577501-.1430435.2562156-.3399734.276-.552-.0163641-.3465004.0067849-.6937389.0690002-1.0350018.1860189-.7459793.6249499-1.4043751,1.2420001-1.8630009.8268218-.6459007,1.8510108-.9870605,2.9000001-.9659996,1.0735617.0766888,2.1029091.458313,2.967,1.1000004,1.2419996.8999996,1.7250004,3.1000004,1.7250004,5.934,0,1.1730003-.0690002,2.3459997-.1379995,3.1739998-.1467571.4745846-.5026512.8558998-.9659996,1.0349998-1.2440014.4180012-7.7300014,2.486001-9.3170013,3.3860016-1.4357836.7418394-2.3782613,2.181356-2.4840001,3.7939997-.1152115,3.0845687,2.2919282,5.6785031,5.3764967,5.7937146.0248294.0009274.049664.0016892.0745034.0022854,2.7600002,0,4.7610006-1.311,6.8310003-3.0999998.1074686-.0775864.2574844-.0533621.3350706.054106.0034943.0048394.0068064.0098076.0099297.014894.5471163,1.7165466,2.069663,2.9380521,3.8639994,3.0999998,2.0006237.0613728,3.8666248-1.0045272,4.8299999-2.759.2759991-.6900001,0-.7590001-.4139996-.552-.6276436.3758695-1.3391037.5893073-2.0699997.6210001-1.3428059.1475581-2.5509834-.8213813-2.6985416-2.1641867-.0217762-.1981697-.0192432-.3982582.0075417-.5958133,0-1.7940001.2759991-8.6940002.2759991-10.8999996.0201111-2.0408268-.1881847-4.0774956-.6210003-6.0720005-.7479591-2.2630081-2.8605928-3.7930965-5.2439995-3.7980003ZM50.4909925,142.9360718c-2.3459997,0-4.3470001-1.587-4.3470001-3.7260002-.1376576-1.3338828.4729156-2.6346693,1.5870004-3.3809996,2.320456-1.0585976,4.7196803-1.9352388,7.1760001-2.6219997.1379995-.0690002.276.276.276.3450003.0266981,2.144269-.0885544,4.2879539-.3450003,6.4169998-.1106424.6755896-.4245949,1.3014014-.8999996,1.7940001-.9709263.7921269-2.1944418,1.2084838-3.4470005,1.1729993ZM81.7479935,119.2000713c-1.4256439-.0500984-2.8432884.233429-4.1399994.8279991-1.8424263.8812046-3.5785942,1.9692039-5.1749992,3.243-.2070007.1380005-.3449993-.0690002-.3449993-.2070007-.0268936-1.2436295.019186-2.4877663.1380005-3.7259998.0690002-.4139996-.2759991-.6900005-.4829998-.552-1.4653416.8478718-3.0146198,1.5415783-4.6230011,2.0699997-.6900005.2759991-.9659996.4139996-.9659996.552,0,.2759991.2070007.4139996.552.6210003,1.7250004.8279991,1.8630009,1.7250004,1.8630009,2.414999,0,5.3129997,0,11.7299995-.1380005,17.1119995-.0690002,1.311-.3449993,1.725-2,2.0699999-.9659996.207-1.5179996.414-1.5179996.69,0,.345.4829998.483,1.2420006.483.9649963.0000034,2.3449955-.1379966,3.2419949-.1379966,1.5869999,0,4.6920013.276,5.2439995.276.6899986,0,1.3800011,0,1.3800011-.414,0-.345-.3450012-.483-1.1730003-.69-1.0999985-.276-2.0699997-.552-2.2770004-2.139-.307188-2.2173233-.4462509-4.4547033-.4159985-6.6929998-.0690002-4.3470001-.0690002-8-.0690002-8.625.0229664-.8495159.312645-1.6702709.828001-2.3460007,1.6529617-1.6023788,3.8404427-2.5363579,6.1409988-2.6219997,1.530014-.0206566,3.0192833.4932137,4.2109985,1.453001,1.7249985,1.3799992,2.2770004,3.1049995,2.2770004,8.8319998v9.0389996c0,2.1389999-.276001,2.691-1.7939987,3.036-1.0999985.207-1.5180016.483-1.5180016.759s.5519981.414,1.0999985.414c1.2420006,0,2-.276,3.6570015-.276,1.5870018,0,3.519001.276,4.1399994.276.6899986,0,1.3110008,0,1.3110008-.483,0-.276-.4140015-.414-1.1730003-.69-1.862999-.483-2-.9-2.0699997-5.727,0-3.243-.0690002-3.7950001-.0690002-7.2449999-.0690002-3.9330006-.5519981-7.5209999-2.0699997-9.177-1.3111992-1.5697918-3.2640419-2.459589-5.3089981-2.4190006ZM110.447998,119.2690716c-3.1859283-.0017242-6.2936287.9868813-8.8930054,2.8290005-3.5771408,2.6275635-5.6804771,6.8085861-5.6580009,11.2469997-.0484238,3.3562169,1.2140274,6.5989909,3.519001,9.0389996,2.0736809,1.8947995,4.77705,2.9521288,7.5859985,2.9670004,2.6220016,0,4.9000015-1.1,7.8659973-3.381.1380005-.138.276001.069.276001.207.0180588.9450361-.0280457,1.8902082-.1380005,2.829.0031357.271706.2259445.4894229.4976501.4862844.0171661-.0001982.0343018-.0012946.0513535-.0032844,2.0836487-.7838868,4.2318192-1.3841711,6.4199982-1.794,1.2419968-.207,1.7939987-.828,1.7939987-1.2419999,0-.276-.2070007-.414-.6900024-.276-1.1259613.3679852-2.2796707.6448771-3.4499969.8280001-.2070007,0-.4830017-.345-.4830017-.6210001-.0690002-1.8629999-.1380005-6.2789998-.1380005-12.3510003,0-5.1060009.3450012-29.9459972.4830017-32.0849972.0690002-.9000015-.0690002-1.2420006-.276001-1.2420006-.3249588.0755692-.6311646.216423-.9000015.4140015-1.7072296.7228279-3.4890137,1.2550507-5.3130035,1.5870018-.3450012.0690002-.6210022.2070007-.6210022.4140015s.4140015.4140015.8280029.5519981c.7593536.1646347,1.4543228.5468674,2,1.0999985.2120132.3526764.3085098.7627907.276001,1.1730003,0,3.7260017.0690002,16.4220009.0690002,17.7329998,0,.1380005-.1380005.4139996-.276001.3449993-1.5701218-.4507694-3.1902313-.7043858-4.8229904-.755003h-.0069962ZM108.0329971,120.6490707c2.536232-.0007553,4.930397,1.1708584,6.4860001,3.1739998.3210449.451479.5335541.9709587.6210022,1.5179996.4140015,2.414999.2070007,11.04.0690002,12.8339996.0501251,1.0522943-.2402267,2.0927243-.8280029,2.967-1.4858475,1.4106257-3.467598,2.1791103-5.5160065,2.139002-4.5540009,0-8.8320007-4.0710002-8.8320007-11.2469999,0-5.2440004,2-8.624999,4.1399994-10.2120008,1.1186981-.8159027,2.4805298-1.2293148,3.864006-1.1729984l-.0039978-.0000019Z"/>
        <path id="_パス_543" data-name="パス_543" class="st1" d="M10.5949926,44.4540718c0,.345.3450003.621,1.2419996.621,1.1000004,0,3.1739998-.414,6.210001-.414,2.4839993,0,4.1399994.414,5.7999992.414.8999996,0,1.3799992-.069,1.3799992-.483,0-.345-.3449993-.483-1.1730003-.69-2.2770004-.6900001-2.967001-1.1-3.243-3.6570003-.2070007-2.1389999-.4139996-11.5229998-.4139996-15.4560013,0-2.7600002.0690002-18.4230003.0690002-20.9069977,0-.4140015.0690002-.9000015.4139996-.9659996,1.1730003-.1380005,4.8299999-.1380005,6.6929989-.1380005,5.4510002,0,6.2099991.1380005,6.8310013.6899986.6817703.9004898,1.0890808,1.9786568,1.1730003,3.1049995.0690002.4140015.2070007,1.0349998.4830017,1.0349998s.5519981-.5519981.5519981-1.5870018c-.0779381-1.6588631-.008667-3.3213692.2070007-4.9679985.0735092-.2711067.0735092-.5568924,0-.8279991-.0690002-.1380005-.276001-.1380005-.5519981.0690002-1.3727341.5792351-2.8591995.8387756-4.3470001.7589989-2,.0690002-7.7280006.0690002-12.9720001.0690002-7.1070004,0-13.6619997-.0690002-14.835-.1380005-.8094351-.0070724-1.5997927-.2465744-2.277-.6899986C1.6979942.0870705,1.4219942-.05093,1.2839942.0180702c-.276.1380005-.276.4140015-.276,1.0349998-.1756266,1.9548836-.4985442,3.8937225-.966,5.7999992-.0730015.4080009-.0730015,1.031002.2029985,1.031002.207,0,.621-.4140015.8999999-1.0999985.9660001-2.6910019,1.7939999-3.519001,3.036-3.7260017,2.1284413-.2633247,4.272594-.3786049,6.4169993-.3450012,1.7276163-.0375557,3.4559031.0315742,5.1749992.2070007.2070007.0690002.4139996.276001.4829998.9000015.1380005,1.0349998.1380005,28.7000008-.3449993,35.2589989-.2070007,3.174-.6210003,4.3470001-3.8640003,4.7610002-.7619991.1310006-1.4519987.3380006-1.4519987.6140006ZM46.4059944,22.5810719c0,10.8330002-.1380005,15.8000002-.276001,17.9400005s-.6209984,2.829-2.9669991,3.312c-.6899986.138-1.1730003.345-1.1730003.69,0,.207.4140015.414,1.0999985.414,1.0390015-.0000007,3.3160019-.2760006,5.0410004-.2760006,2.0699997,0,4.3470001.345,5.6580009.345.6899986,0,1.1730003-.138,1.1730003-.414,0-.207-.2070007-.483-1.1730003-.69-1.3110008-.345-2.4150009-.8999999-2.6910019-2.346-.5555611-5.386229-.7859802-10.8010459-.6899986-16.2149997,0-1.1730003.276001-1.7250004.4830017-1.7250004.8279991,0,5.0369987.0690002,8.2799988.0690002,6.7619972,0,16.6290016.1380005,18.8370018.2759991.4140015,0,.4140015.6900005.4830017,1.6560001.1380005,1.3799992,0,10.7639999-.0690002,14.283-.0670013,2.9670006-.7590027,3.3810006-3.1050034,3.8610007-.8280029.138-1.0999985.345-1.0999985.552,0,.345.4830017.483,1.310997.483,1.237999.003,3.4459991-.135,4.7570038-.135,1.5179977,0,5.2440033.207,6.2099991.207.6900024,0,1.0350037-.138,1.0350037-.414s-.276001-.414-1.0350037-.621c-2.9670029-.621-3.3119965-1.5179999-3.4499969-4.968-.2070007-7.1760001-.2070007-10.0740008-.3450012-14.7660003-.1380005-4.7609997-.2070007-14.4210014-.1380005-17.1809998,0-3.243.1380005-4.4850006,3.1740036-5.105999.7590027-.2070007.9660034-.4140015.9660034-.6209984,0-.276001-.3450012-.3450012-1.0999985-.3450012-1.2419968,0-2.8290024.276001-4.9680023.276001-2.0699997,0-4.4160004-.276001-5.9339981-.276001-.6210022,0-.9000015.2070007-.9000015.3450012,0,.276001.4140015.4830017.9660034.5519981,3.0360031.4140015,3.0360031,1.6559982,3.2429962,6,.1380005,2.5530014.4140015,10.3500004.276001,12.6269989-.0690002,1.0349998-.1380005,1.1730003-.6210022,1.2420006-2.5018158.197464-5.0121078.2665539-7.5209961.2070007-6.8310013,0-17.1809998.0690002-19.112999-.0690002-.4140015-.0690002-.5519981-.6900005-.5519981-1.3799992,0-1.3110008.0690002-12.972002.2070007-14.6280003.2070007-2.2770004.5519981-3.3810005,3.0359993-3.9329987.5519981-.0690002.9000015-.3450012.9000015-.5519981,0-.276001-.276001-.4140015-1.0349998-.4140015-.9000015,0-3.4500008.276001-5.1749992.276001-2.0699997,0-4.0709991-.3450012-5.1749992-.3450012-.7589989,0-1.1730003.0690002-1.1730003.4140015,0,.2070007.3450012.4830017,1.0999985.6209984,2.9669991.7589989,2.8289986,1.5870018,3.0359993,5.5890007.1379852,2.6249962.2069855,11.5949974.2069855,15.1829967ZM94.0159912,1.2610703c0,.276001.276001.4830017.9660034.6209984,2.4840012.5519981,3.2429962,1.3800011,3.2429962,5.4510002,0,14.3520012-.0690002,21.0450001-.3450012,32.2229996-.0690002,3.036-1.3799973,4-3.8639984,4.4159999-.7590027.138-1.2419968.276-1.2419968.552s.4140015.483,1.2419968.483c.7590027-.0009965,4.3470001-.3459965,6.6240005-.3459965,5.6579971,0,13.5240021.276,20.8379974.276.4140015,0,.6900024-.345.9000015-.759.4140015-.828.9660034-3.2430001,1.5179977-5.1059997.276001-.8280001.2070007-1.2420001-.0690002-1.2420001s-.552002.276-1.2419968,1.2420001c-.7256165,1.116117-1.532814,2.1770132-2.4150009,3.174-1.2419968,1.1-2.1389999,1.311-8.7630005,1.311-4.9680023,0-5.9339981-.138-7.1070023-.7589999-1.1178741-.6747932-1.8188171-1.8689957-1.862999-3.174,0-1.3109999-.2070007-10.7639999-.2070007-14.2139997,0-1.5179996,0-1.5869999.6210022-1.5869999,9.935997,0,12.0059967.0690002,13.4550018.4829998.8261337.4171181,1.430397,1.1724529,1.6559982,2.0699997.4830017,1.1730003.552002,1.5179996.8280029,1.5179996.1380005,0,.6210022-.4139996.4140015-1.4489994-.1717606-1.234148-.2180023-2.4825268-.1380005-3.7259998.1380005-1.2420006.4140015-3.0359993.4140015-3.4500008,0-.4829998-.1380005-.7590008-.3450012-.7590008s-.4140015.2070007-.6900024.7590008c-.355835.9594059-.9782333,1.7972527-1.7939987,2.414999-.552002.3449993-1.0999985.4829998-4.6230011.4829998h-9.3840027c-.2070007,0-.4140015-.2070007-.4140015-1.2420006V4.8480721c0-2.3460007.276001-2.4840012.8280029-2.5530014,4.6004791-.1699944,9.2066879-.1009026,13.8000031.2070007,1.2419968.2070007,2.2770004.9000015,3.5879974,4,.3450012.7589989.4830017.9659996.6900024.9659996.276001,0,.3450012-.6209984.276001-1.0349998-.2578812-1.4597855-.4192276-2.9349861-.4830017-4.4160004-.1380005-.8279991-.3450012-1.1730003-.6210022-1.1730003-.7590027,0-1.586998.1380005-4.1399994.1380005-2.7600021,0-12.7649994.1380005-15.8700027.1380005-2.2080002,0-3.7259979-.2070007-5.3130035-.2070007-.5549927.0020027-.9689941.2089996-.9689941.3479996Z"/>
        <line id="_線_3" data-name="線_3" class="st3" x1="132.2990112" y1="141.7809448" x2="388.0210114" y2="141.7809448"/>
      </g>
    </g>
  </g>
</svg>