<?xml version="1.0" encoding="UTF-8"?>
<svg xmlns="http://www.w3.org/2000/svg" version="1.1" viewBox="0 0 29.7000008 102">
  <defs>
    <style>
      .cls-1 {
        isolation: isolate;
      }

      .cls-2 {
        fill: #fff;
      }
    </style>
  </defs>
  <!-- Generator: Adobe Illustrator 28.7.1, SVG Export Plug-In . SVG Version: 1.2.0 Build 142)  -->
  <g>
    <g id="Layer_1">
      <g class="cls-1">
        <path class="cls-2" d="M7.5626253,23.6287842c-.9000015-.1999512-1.6000004-.5-2.1000004-.8999023-.6000004-.5-.8999996-1.1999512-.8999996-2,0-.3999023,0-.6999512.1000004-1,.2000008-.3999023.2999992-.6000977.3999996-.6000977s.1000004.1000977.1000004.3000488v.6000977c0,.8000488.5,1.3999023,1.6000004,1.8000488.7000008.1999512,1.5.3999023,2.5.3999023s2.2000008-.1000977,3.5-.3999023c.7999992-.1000977,1.2000008-.1999512,1.2999992-.1999512.4000015,0,.7000008.1000977,1,.3000488.2000008.1999512.4000015.3999023.4000015.6999512,0,.3999023-.4000015.8000488-1.0999985,1-.4000015.1000977-1,.1999512-1.7000008.3000488s-1.4000015.1000977-2.2000008.1000977c-1.0000038-.1003418-2.0000038-.2004395-2.9000015-.4003906ZM8.1626237,14.0286865q0-.1000977.0999985-.1999512c.0999985-.1000977.4000015-.3000488.9000015-.8000488.5999985-.5,1-.8000488,1-.8999023,0-.1000977-.2999992-.1999512-.9000015-.3999023-.5-.1000977-1-.3999023-1.5-.6999512-.4000015-.3000488-.7999992-.6000977-1-1-.2000008-.1999512-.2999992-.3999023-.2999992-.5v-.1000977h.0999985c.0999985.1000977.2999992.1999512.5.3000488.2999992.1999512.7000008.3000488,1.2000008.3999023.5.1000977,1,.1999512,1.5.1999512.2999992,0,.7999992,0,1.2999992-.1000977s.9000015-.1000977,1.0999985-.1000977c.2000008,0,.4000015,0,.5.1000977.2999992.1000977.5.3000488.7000008.5.2000008.3000488.2999992.5.2999992.8000488,0,.1999512-.0999985.3999023-.2999992.5s-.5.1999512-1,.1999512c-1.2999992.1999512-2.5999985.8000488-3.9000015,1.8000488-.0999985.1000977-.2000008.1000977-.2999992.1000977q.0000038,0,.0000038-.1000977Z"/>
      </g>
      <g class="cls-1">
        <path class="cls-2" d="M7.5626253,47.6287842c-.9000015-.1999512-1.6000004-.5-2.1000004-.8999023-.6000004-.5-.8999996-1.1999512-.8999996-2,0-.3999023,0-.6999512.1000004-1,.2000008-.3999023.2999992-.6000977.3999996-.6000977s.1000004.1000977.1000004.3000488v.6000977c0,.8000488.5,1.3999023,1.6000004,1.8000488.7000008.1999512,1.5.3999023,2.5.3999023s2.2000008-.1000977,3.5-.3999023c.7999992-.1000977,1.2000008-.1999512,1.2999992-.1999512.4000015,0,.7000008.1000977,1,.3000488.2000008.1999512.4000015.3999023.4000015.6999512,0,.3999023-.4000015.8000488-1.0999985,1-.4000015.1000977-1,.1999512-1.7000008.3000488s-1.4000015.1000977-2.2000008.1000977c-1.0000038-.1003418-2.0000038-.2004395-2.9000015-.4003906ZM8.1626237,38.0286865q0-.1000977.0999985-.1999512c.0999985-.1000977.4000015-.3000488.9000015-.8000488.5999985-.5,1-.8000488,1-.8999023,0-.1000977-.2999992-.1999512-.9000015-.3999023-.5-.1000977-1-.3999023-1.5-.6999512-.4000015-.3000488-.7999992-.6000977-1-1-.2000008-.1999512-.2999992-.3999023-.2999992-.5v-.1000977h.0999985c.0999985.1000977.2999992.1999512.5.3000488.2999992.1999512.7000008.3000488,1.2000008.3999023.5.1000977,1,.1999512,1.5.1999512.2999992,0,.7999992,0,1.2999992-.1000977s.9000015-.1000977,1.0999985-.1000977c.2000008,0,.4000015,0,.5.1000977.2999992.1000977.5.3000488.7000008.5.2000008.3000488.2999992.5.2999992.8000488,0,.1999512-.0999985.3999023-.2999992.5s-.5.1999512-1,.1999512c-1.2999992.1999512-2.5999985.8000488-3.9000015,1.8000488-.0999985.1000977-.2000008.1000977-.2999992.1000977q.0000038,0,.0000038-.1000977Z"/>
      </g>
      <g class="cls-1">
        <path class="cls-2" d="M15.0126298,63.2288818c.7000008.3000488,1.2000008.8000488,1.5999985,1.3999023.4000015.6000977.5,1.3000488.5,2,0,1.1000977-.4000015,2-1.2000008,2.8000488s-1.7000008,1.3999023-2.7000008,1.8999023-2,.8000488-3,1c-.2999992.1000977-.5999985.1000977-.7999992.1000977s-.2999992,0-.2999992-.1000977.2000008-.1999512.5999985-.3000488c.5999985-.1000977,1.4000015-.5,2.2999992-.8999023s1.5999985-1.1000977,2.2999992-1.8999023,1-1.6999512,1-2.6000977c0-.8999023-.2999992-1.6000977-.9000015-2.1000977-.5999985-.6000977-1.5-.8000488-2.5-.8000488-.7000008,0-1.4000015.1000977-2.0999985.3000488-.7000008.1999512-1.2999992.5-1.7999992.8999023-.5999985.3999023-1,.8000488-1.4000015,1.3000488s-.5999985.8999023-.7999992,1.3000488c-.2000008.3999023-.2999992.8000488-.5,1.3000488-.0999985.3999023-.2000008.6000977-.2000008.6000977-.0999985.1999512-.2999992.3999023-.6000004.6000977-.2999992.1000977-.5.1999512-.7999992.1999512-.2000008,0-.3999996-.1000977-.6000004-.3000488s-.2000008-.5-.2000008-.8000488.1000004-.6000977.2000008-.8000488.3999996-.6000977.7999992-1.1999512.7000008-1.1000977,1-1.5c.7999992-1,1.5999985-2.1000977,2.4000015-3.3000488.7999992-1.3000488,1.5999985-2.5,2.2999992-3.8999023.0999985-.1999512.2000008-.3000488.2000008-.3999023s0-.1000977-.0999985-.1999512c0,0-.0999985-.1000977-.2000008-.1000977-.0999985,0-.2000008,0-.2999992.1000977-.2000008.1999512-.4000015.3000488-.5999985.5-.2000008.1999512-.2999992.3000488-.2999992.3999023-.2999992.3000488-.5.5-.7000008.6999512-.2000008.1000977-.4000015.1999512-.7000008.1999512s-.5999985-.1000977-1-.3000488-.7000008-.5-.9000015-.8000488c-.0999985-.1000977-.0999985-.1999512-.0999985-.3000488s0-.1000977.0999985-.1999512h1.1000023c.2999992-.1000977.5999985-.1000977.7999992-.1999512.2999992-.1000977.5999985-.1999512.9000015-.5.2999992-.1999512.5-.3000488.5999985-.3999023.4000015-.3000488.7999992-.5,1-.6000977.2999992-.1000977.5-.1999512.7999992-.1999512.4000015,0,.9000015.1000977,1.2000008.3999023.4000015.3000488.5.6000977.5.8999023,0,.1999512-.0999985.3999023-.2000008.6000977-.0999985.1999512-.4000015.3999023-.7000008.6999512-.5.5-1.0999985,1.3000488-2,2.5-.7999992,1.1000977-1.5,2.1000977-1.9000015,2.8000488v.1000977s0,.1000977.0999985.1000977.2000008,0,.2999992-.1000977c1.2999992-1,3-1.3999023,4.9000015-1.3999023,1.2000046,0,2.0000038.1999512,2.6000061.5Z"/>
      </g>
      <g class="cls-1">
        <path class="cls-2" d="M18.6626266,92.6287842c0,.1999512-.0999985.3999023-.2000008.5-.0999985.1000977-.2999992.1999512-.5.1999512-.2999992,0-.5999985-.1000977-1.0999985-.3999023l-1.2000008-.8999023-1-.8000488c-.0999985-.1000977-.2000008-.1000977-.2999992-.1000977s-.2999992.1000977-.2999992.3000488c-.2000008.3000488-.2999992.5-.4000015.6999512-.9000015,1.3000488-1.9000015,2.3000488-3.2000008,3s-2.5,1-3.7999992,1c-.2000008,0-.2999992,0-.2999992-.1000977,0,0,0-.1000977.0999985-.1000977s.0999985,0,.2000008-.1000977h.2000008c1-.3000488,2.0999985-.8000488,3.0999985-1.5s1.9000015-1.8000488,2.5999985-3.1999512l.2999992-.6000977v-.1999512c0-.1999512-.0999985-.3000488-.2000008-.3999023-1.5-.8000488-3.2000008-1.1999512-5-1.1999512-.2000008,0-.4000015.1000977-.5.3000488l-.7999992,1.5c-.0999985.1999512-.2000008.3000488-.2999992.5s-.2000008.3999023-.2999992.6000977c-.5,1-.9000015,1.6999512-1.2999992,2.1000977s-.9000015.6999512-1.3999996.6999512c-.5,0-.8999996-.1999512-1.2000008-.5-.2999992-.3000488-.5-.8000488-.5-1.3000488,0-.3999023.1000004-.8999023.2999992-1.3000488s.3999996-.8999023.7999992-1.3000488c.3999996-.5.8999996-.8999023,1.6000004-1.1999512s1.2999992-.6000977,2-.8000488c.2000008,0,.4000015-.1999512.5-.3000488l2.2999992-3.8000488c.0999985-.1999512.2999992-.3999023.5-.6999512.2999992-.3999023.5-.8000488.5999985-1s.2000008-.3999023.2000008-.5,0-.1999512-.0999985-.3000488-.2000008-.1000977-.2000008-.1000977c-.0999985,0-.4000015.1000977-.5999985.3000488-.2000008.1000977-.5.3999023-1,.8999023-.2999992.3000488-.5.5-.7000008.6000977-.2999992.1999512-.5.3000488-.7000008.3000488-.2999992,0-.5999985-.1999512-1.0999985-.5-.4000015-.3000488-.7999992-.6999512-.9000015-.8999023-.0999985-.1000977-.0999985-.1999512-.0999985-.3000488s.0999985-.1999512.2000008-.1999512c.0999985,0,.2000008,0,.2999992.1000977.2999992.1999512.5999985.3000488.9000015.3000488.2000008,0,.4000015-.1000977.7000008-.1999512.2999992-.1000977.7000008-.3000488,1.0999985-.5.5-.3000488.9000015-.3999023,1.0999985-.5.0999985,0,.2000008-.1000977.4000015-.1999512.2000008-.1000977.5-.1000977.7000008-.1000977.2999992,0,.7000008.1000977,1.0999985.3999023.5999985.3999023.9000015.8000488.9000015,1.1999512,0,.3000488-.2000008.6999512-.7000008,1-1.2000008,1.1000977-2.2999992,2.6000977-3.4000015,4.3999023-.0999985.1000977-.0999985.3000488-.2000008.3000488s-.0999985.1999512-.0999985.1999512h.0999985c1.5999985,0,3.2000008.3000488,5,1h.2000008c.2000008,0,.2999992-.1000977.2999992-.3000488.0999985-.3999023.2000008-.8000488.2000008-1.1999512,0-.8000488-.2999992-1.5-.7999992-2q-.0999985-.1000977-.0999985-.1999512,0-.1000977.0999985-.1000977c.0999985,0,.2999992.1000977.5999985.1999512.5.1999512.7999992.3000488.9000015.3999023.2999992.1000977.5.3000488.5999985.6999512.0999985.3000488.2000008.6999512.2000008,1.1999512v.4001465c0,.1999512,0,.3000488.0999985.3999023.5,1,1.2000008,1.8999023,1.9000015,2.5.0999985.1000977.2000008.1999512.4000015.3999023.2000008.1000977.4000015.3000488.5.3999023.6000023.3005371.7000008.6005859.7000008.9006348ZM5.2626289,90.2288818l.4000015-.6999512c.0999985-.1000977.0999985-.1999512.0999985-.3000488,0-.1999512-.0999985-.1999512-.2999992-.1999512h-.2000008c-1.2999992.3999023-2.0999985,1.1000977-2.6000004,2.1999512-.1000004.3000488-.2000008.6000977-.2000008.8000488,0,.3999023.2000008.6999512.5.6999512.3000011,0,.5000019-.1000977.6999989-.3000488.2000008-.1999512.5-.5.7000008-.8000488l.9000015-1.3999023ZM15.1626266,89.2288818q-.0999985,0-.0999985.1000977h0v.1000977c0,.1999512.0999985.3000488.2999992.3999023.2000008-.1000977.2999992-.1000977.2999992-.3000488q0-.1000977-.0999985-.1999512h0c-.0999985-.0002441-.2999992-.1000977-.4000015-.1000977Z"/>
      </g>
      <circle id="Ellipse_41" class="cls-2" cx="28" cy="67.6287842" r="1.7000008"/>
      <circle id="Ellipse_44" class="cls-2" cx="28" cy="88.6287842" r="1.7000008"/>
      <circle id="Ellipse_42" class="cls-2" cx="28" cy="43.928833" r="1.7000008"/>
      <circle id="Ellipse_43" class="cls-2" cx="28" cy="19.1287842" r="1.7000008"/>
    </g>
  </g>
</svg>