<?xml version="1.0" encoding="UTF-8"?>
<svg xmlns="http://www.w3.org/2000/svg" version="1.1" viewBox="0 0 29.7000008 126">
  <defs>
    <style>
      .cls-1 {
        isolation: isolate;
      }

      .cls-2 {
        fill: #fff;
      }
    </style>
  </defs>
  <!-- Generator: Adobe Illustrator 28.7.1, SVG Export Plug-In . SVG Version: 1.2.0 Build 142)  -->
  <g>
    <g id="Layer_1">
      <g class="cls-1">
        <path class="cls-2" d="M15.040062,16.100708c.5.3999023.7000008,1,.7000008,1.8000488s-.2999992,1.5-.7999992,2.3000488-1.2000008,1.5-2.0999985,2c-.7999992.5-1.5999985.8000488-2.4000015.8000488-.5,0-1-.1999512-1.2999992-.5s-.5-.6999512-.5-1.3000488c0-.8000488.2999992-1.6999512,1-2.8000488.0999985-.1999512.2000008-.3000488.2999992-.3000488s.0999985,0,.0999985.1000977-.0999985.3000488-.2000008.5c-.0999985.1999512-.2000008.5-.2999992.8000488s-.0999985.6000977-.0999985.8999023c0,.6999512.2000008,1,.7000008,1s1.0999985-.1999512,1.7000008-.6999512c.7000008-.3999023,1.2000008-1,1.7000008-1.6000977s.7000008-1.1999512.7000008-1.6999512c0-.8999023-.5-1.3999023-1.5-1.3999023-.9000015,0-2.2000008.3000488-3.7000008,1-.5999985.3000488-1.2000008.6000977-1.9000015,1-.2000008.1000977-.2999992.3000488-.2999992.5.0999985,1.1999512.0999985,1.8999023.0999985,2.1999512,0,.3999023,0,.8000488-.0999985,1.1999512s-.0999985.6000977-.2000008.8000488c-.0999985.1999512-.2000008.3000488-.4000015.3999023-.2000008.1000977-.2999992.1999512-.4000015.1999512-.2999992,0-.5-.1999512-.5999985-.5-.2000008-.5-.4000015-.8999023-.7000008-1.3000488-.0999985-.1999512-.4000015-.3999023-.7999992-.6999512-.0999985-.1000977-.2000008-.1000977-.2999992-.1000977s-.2000008,0-.2999992.1000977-.2000008.1999512-.4000015.3000488-.2999992.1999512-.4000015.3000488c-.1000004.1000977-.2000008.1000977-.2999992.1000977-.3999996,0-.7000008-.1999512-.8999996-.5-.2999992-.3000488-.3999996-.6999512-.3999996-1.1000977,0-.3000488.1000004-.5.2000008-.6000977s.2999992-.1999512.5-.1999512c.1000004,0,.2000008,0,.3999996.1000977.2000008.1000977.2999992.1000977.3999996.1000977h.2000008c.5999985-.1999512,1.5999985-.6999512,3.2000008-1.5.2000008-.1000977.2999992-.3000488.2999992-.5v-2.3000488c0-.1000977,0-.1999512-.0999985-.3000488s-.0999985-.1000977-.2000008-.1000977h-.2000008l-1.0999985.3000488c-.2999992,0-.5.1000977-.5.1000977-.5,0-.9000015-.1000977-1.2000008-.3000488-.5-.3999023-1-.8000488-1.2999992-1.1999512-.1000004-.1000977-.2000008-.1999512-.2000008-.3000488s0-.1000977.1000004-.1000977.2000008,0,.3999996.1000977c.2999992.1000977.3999996.1999512.5.1999512.5.1000977,1,.1999512,1.4000015.1999512h.4000015c.4000015,0,.9000015-.1999512,1.5-.3999023.2999992-.1000977.4000015-.3000488.4000015-.5,0-.6000977-.0999985-1.1000977-.0999985-1.5s-.0999985-.6999512-.2000008-1c-.0999985-.1999512-.2000008-.3999023-.4000015-.5s-.4000015-.1999512-.5-.3000488c-.2000008-.1000977-.2999992-.1000977-.2999992-.1000977,0,0-.0999985,0-.2000008-.1000977-.0999985,0-.0999985-.1000977-.0999985-.1000977,0-.1000977.0999985-.1999512.4000015-.3000488.2999992-.1000977.5-.1000977.7000008-.1000977.2999992,0,.5999985.1000977,1,.1999512s.5999985.3000488.7999992.3999023c.2000008.1999512.2999992.5.2999992.8000488v.3999023c0,.1000977,0,.1999512-.0999985.3000488v.1000977c.2000008.1999512.4000015.3999023.5999985.5.4000015.3000488.7000008.3999023,1,.5s.5.1000977.5999985.1999512c.0999985.1000977.2000008.1999512.2000008.3999023s0,.3999023-.0999985.5-.2000008.1999512-.4000015.3000488c-.0999985,0-.2999992.1000977-.7000008.3000488l-1,.3999023c-.2000008.1000977-.4000015.3000488-.4000015.5v2.1000977c0,.3000488.0999985.3999023.2999992.3999023q.0999985,0,.2000008-.1000977c.5999985-.3000488,1.0999985-.5,1.4000015-.6999512,1.7999992-.6999512,3.2999992-1,4.4000015-1,.7999916.4006348,1.3999939.6005859,1.7999916.9006348ZM5.8400612,19.9007568c0-.1000977,0-.1999512-.0999985-.3000488s-.0999985-.1000977-.2000008-.1000977c-.0999985,0-.2000008,0-.2999992.1000977l-1,.6999512c-.0999985.1000977-.2000008.1999512-.2000008.3000488s.0999985.1999512.2000008.3000488c.2999992.1000977.5.1999512.7999992.3000488s.4000015.1999512.5.1999512.2000008-.1000977.2000008-.3000488c.0999985-.0998535.0999985-.5.0999985-1.1999512ZM7.040062,12.0008545s-.0999985,0-.0999985.1000977-.0999985.1999512-.0999985.3000488v.5c0,.1000977,0,.1999512.0999985.1000977l.0999985-.1000977s.0999985-.1000977.2000008-.1000977q.0999985-.1000977.0999985-.1999512c0-.0998535,0-.1999512-.0999985-.3000488,0-.1000977-.0999985-.2001953-.2000008-.3000488h0ZM17.2400628,12.4007568c.4000015.1999512.5999985.3999023.9000015.6999512.2000008.3000488.2999992.6000977.2999992.8999023s-.0999985.5-.2999992.6999512-.4000015.1999512-.5999985.1999512c-.2999992,0-.5-.1000977-.7000008-.3999023-.7000008-.8999023-1.2999992-1.3000488-2-1.3000488-.2999992,0-.5999985.1000977-.9000015.3999023-.0999985.1000977-.2999992.1999512-.4000015.3000488-.2000008.1000977-.2999992.1999512-.2999992.1999512q-.0999985,0-.0999985-.1000977t.0999985-.1999512c.5-.6000977.9000015-1,1.4000015-1.3000488.4000015-.1999512.9000015-.3999023,1.4000015-.3999023.3999977.1003418.7999954.2001953,1.1999969.300293Z"/>
      </g>
      <g class="cls-1">
        <path class="cls-2" d="M13.4400645,41.4007568c.9000015,1.1000977,1.2999992,2.1999512,1.2999992,3.3999023,0,.8999023-.2000008,1.6000977-.7000008,2.1999512-.5.6000977-1,1.1000977-1.7999992,1.3999023-.7000008.3000488-1.5.5-2.2999992.5-1.4000015,0-2.4000015-.3999023-3-1.3000488-.5999985-.8999023-.9000015-2.1000977-.9000015-3.5v-.9001465c0-.1999512-.1000004-.3999023-.2999992-.5-.8999996-.3999023-1.2999992-.8999023-1.2999992-1.5,0-.3999023.2000008-.8999023.5-1.3999023.3999996-.5.7999992-1,1.2999992-1.3999023.2000008-.1000977.2999992-.3000488.2999992-.5l.2999992-1.3999023v-.1000977c0-.1999512-.0999985-.3000488-.2999992-.3999023-.8999996-.3999023-1.5-.8999023-1.8999996-1.3000488l-.1000004-.1000977-.1000004-.1000977q0-.1000977.1000004-.1000977c.1000004,0,.2000008,0,.2999992.1000977.5.1999512,1.1000004.3999023,1.7999992.5h.0999985c.2000008,0,.2999992-.1000977.4000015-.3999023.0999985-.6999512.2000008-1.1999512.2000008-1.6999512s-.0999985-.8999023-.2000008-1.3000488c-.0999985-.3000488-.2999992-.5-.4000015-.6000977-.0999985-.1000977-.2000008-.1999512-.2000008-.1999512q-.0999985-.1000977-.0999985-.1999512c0-.1000977.0999985-.1000977.2999992-.1000977s.4000015,0,.7000008.1000977.5.1999512.7000008.3999023c.5.3999023.7999992.8999023.7999992,1.5,0,.3999023-.0999985.8000488-.4000015,1.3999023l-.4000015.8000488v.1999512c0,.1999512.0999985.3000488.4000015.3999023.4000015.1000977.7000008.1999512.7999992.1999512.2999992.1000977.5.3000488.7000008.5s.2000008.3999023.2000008.6999512-.0999985.3999023-.2000008.5c-.0999985.1000977-.2999992.1999512-.5.1999512-.7000008.1000977-1.2999992.3000488-1.9000015.6000977-.2000008.1000977-.2999992.3000488-.4000015.5-.0999985.8000488-.2999992,1.6999512-.4000015,2.8000488v.1999512c0,.1999512,0,.3000488.0999985.3000488h1.6999969c.9000015,0,1.4000015.3000488,1.4000015.8999023,0,.5-.4000015.6999512-1.2999992.6999512-.5,0-1-.1000977-1.5999985-.1999512h-.2999992c-.0999985,0-.2000008,0-.2000008.1000977,0,1.3999023.2000008,2.5.7000008,3.1999512s1.2000008,1.1999512,2.4000015,1.1999512c.9000015,0,1.7000008-.3000488,2.2999992-.8999023.5999985-.6000977.9000015-1.3999023.9000015-2.5,0-.8999023-.2999992-1.8000488-.9000015-2.8000488-.5999985-.8999023-1.4000015-1.8000488-2.4000015-2.5-.2000008-.1000977-.2999992-.1999512-.2999992-.3000488,0,0,0-.1000977.0999985-.1000977,0,0,.0999985,0,.4000015.1000977,1.6000099.8007812,2.7000084,1.6005859,3.6000099,2.7006836ZM5.6400652,41.5008545h.2000008c.2000008,0,.2999992-.1000977.2999992-.3999023l.0999985-1.3999023c0-.1999512,0-.3000488-.2000008-.3000488s-.3999996.1000977-.5.3999023c-.2999992.3999023-.3999996.6999512-.3999996,1,.0000019.2998047.2000008.4997559.5000019.6999512ZM8.1400652,36.7008057h-.2000008c-.0999985,0-.2000008,0-.2000008.1000977-.0999985.1000977-.0999985.1999512-.0999985.3000488.0999985.1000977.2000008.1000977.4000015.1000977.0999985,0,.2000008-.1000977.2999992-.1999512v-.1000977c0-.1003418-.1000023-.2001953-.2000008-.2001953Z"/>
      </g>
      <g class="cls-1">
        <path class="cls-2" d="M16.7400609,57.0008545c.4000015.3000488.7000008.6000977.7000008,1,0,.1999512-.0999985.3000488-.2000008.3999023-.0999985.1000977-.2999992.1999512-.4000015.1999512-.2000008,0-.5999985,0-1.0999985-.1000977-.5999985-.1000977-1-.1999512-1.2999992-.1999512-.4000015,0-.7000008,0-1.0999985.1000977-.2999992.1000977-.5999985.1999512-.7999992.1999512-.5999985.3000488-1.0999985.8999023-1.5999985,1.8000488-.5.8999023-.7999992,1.8999023-1.0999985,3s-.4000015,2.1000977-.4000015,3c0,1.3999023.2000008,2.3999023.5999985,2.8999023s1.0999985.8000488,2.0999985.8000488h.5999985c.4000015-.1000977.7000008-.1000977,1-.1000977.5,0,.9000015.1000977,1.2000008.1999512.2999992.1999512.4000015.3999023.4000015.6999512,0,.3999023-.2999992.6999512-.9000015.8000488s-1.2000008.1999512-1.7999992.1999512c-1.7000008,0-3-.3999023-3.7000008-1.3000488-.7000008-.8999023-1.0999985-2.1999512-1.0999985-4.1000977,0-1.5.2999992-2.8999023.9000015-4.1999512.5999985-1.3000488,1.4000015-2.3999023,2.2999992-3.3000488.4000015-.3999023.5999985-.5.5-.5h-.0999985c-.5.1000977-1.2000008.3000488-2.2000008.6999512s-2,.8000488-3,1.3000488c-.2000008.1000977-.2999992.1999512-.4000015.3000488s-.2000008.1000977-.2999992.1999512c-.2999992.1999512-.5.3999023-.7999992.5s-.4000015.1000977-.7000008.1000977c-.4000015,0-.7999992-.1999512-1.2999992-.6000977-.3999996-.3999023-.7000008-.8000488-.8999996-1.1000977-.1000004-.1000977-.1000004-.1999512-.1000004-.3000488s.1000004-.1999512.2000008-.1999512.2000008,0,.2999992.1000977c.2000008.1000977.3999996.1999512.5.3000488.2000008.1000977.2999992.1000977.6000004.1000977h.3999996c.0999985,0,.5999985-.1999512,1.4000015-.3999023,1.4000015-.5,2.7999992-.8999023,4.0999985-1.3000488,1.2999992-.3999023,2.5-.6000977,3.5999985-.8000488.2999992,0,.7000008-.1999512,1.2000008-.3999023.2999992-.1000977.5-.1999512.7000008-.1999512s.4000015-.1000977.5999985-.1000977c.5-.0998535,1,.1000977,1.3999977.300293Z"/>
      </g>
      <g class="cls-1">
        <path class="cls-2" d="M7.4400607,83.4007568c-.0999985.1000977-.2000008.1000977-.2999992.1999512-.0999985.1000977-.0999985.1999512-.0999985.3000488-.5,1.3999023-1.0999985,3-1.7999992,4.6999512s-1.0999985,2.8999023-1.2999992,3.3000488c-.0999985.1999512-.2000008.3999023-.3999996.5-.2000008.1000977-.3999996.1999512-.6000004.1999512-.3999996,0-.6000004-.3999023-.6000004-1.3000488v-.3999023c0-.1000977.1000004-.1999512.2000008-.3999023.2000008-.1999512.2999992-.5.3999996-.6999512.2000008-.3999023.3999996-.6999512.5-.8999023.5-.8999023.9000015-1.6999512,1.2000008-2.3999023s.5999985-1.3999023.9000015-2.1000977c0-.1000977.0999985-.1999512.0999985-.3000488s0-.1999512-.0999985-.1999512h-.2999992c-.7000008,0-1.2000008-.1999512-1.6000004-.5s-.7000008-.6999512-.8999996-1.1000977c-.1000004-.1999512-.1000004-.3000488-.1000004-.3999023q0-.1000977.1000004-.1000977c.1000004,0,.2000008.1000977.2999992.1999512.2000008.1999512.3999996.3000488.7000008.3999023.2999992.1000977.5999985.1000977.9000015.1000977.2999992,0,.5999985-.1000977,1.0999985-.1999512.2000008-.1000977.4000015-.1999512.4000015-.3999023v-.5c0-.5-.0999985-.8999023-.4000015-1.1999512-.0999985-.1000977-.2999992-.3000488-.5-.3999023-.2000008-.1000977-.2999992-.1999512-.2999992-.1999512,0-.1000977.0999985-.1000977.2000008-.1999512.0999985,0,.2999992-.1000977.4000015-.1000977.2999992,0,.5,0,.7000008.1000977.5.1999512.9000015.3999023,1.0999985.6999512.0999985.1000977.0999985.1999512.0999985.1999512l.0999985.1000977h1.8000031c.2000008,0,.2999992.1000977.4000015.1999512.0999985.1000977.0999985.3000488.0999985.3999023s0,.3000488-.0999985.5-.2000008.3000488-.4000015.3999023c-.3000069.7998047-1.1000061,1.0998535-1.9000092,1.4997559ZM12.4400607,85.8006592c-.4000015.3999023-.5,1.1000977-.5,1.8999023,0,.5,0,1,.0999985,1.6000977s.0999985,1.1999512.2000008,1.6999512c0,.1999512.0999985.5.0999985,1,0,.1999512.2000008.3999023.4000015.3999023,1.2999992.3999023,2.2000008.8000488,2.7000008,1.1999512.2000008.1999512.2999992.3000488.5.5.0999985.1999512.2000008.3000488.2000008.5s-.0999985.3999023-.2000008.5-.2999992.1999512-.5.1999512-.4000015-.1000977-.5999985-.1999512c-.2000008-.1000977-.5-.3000488-.7999992-.5-.2000008-.1999512-.5999985-.3999023-1.0999985-.6000977-.0999985,0-.2000008-.1000977-.2999992-.1000977-.2000008,0-.2000008.1000977-.2000008.1999512,0,.8000488-.2999992,1.3999023-.9000015,1.8999023-.5999985.5-1.2999992.6999512-2.2000008.6999512-.5,0-1-.1000977-1.4000015-.3000488-.5-.1999512-.9000015-.5-1.2000008-.8000488-.2999992-.3999023-.5-.8000488-.5-1.3000488,0-.8000488.4000015-1.3999023,1.0999985-1.8000488.7999992-.3999023,1.7000008-.6000977,2.7999992-.6000977h.3999977c.2999992,0,.4000015-.1000977.4000015-.3999023v-2.3000488c0-1,.0999985-1.8000488.2000008-2.3999023.2000008-.6000977.5-1.1000977.9000015-1.5.5-.3999023,1.2000008-.8000488,2.0999985-1,.2999992-.1000977.4000015-.1999512.4000015-.3999023,0-.3000488-.2999992-.6000977-.7999992-1.1000977-.0999985-.1000977-.2000008-.1000977-.2999992-.1999512l-.0999985-.1000977s.0999985-.1000977.2000008-.1000977c.0999985,0,.2999992,0,.4000015.1000977.2000008,0,.2999992.1000977.5.1000977.5999985.1999512,1.0999985.5,1.5999985,1,.5.3999023.7999992.8999023.7999992,1.3999023,0,.3000488-.0999985.5-.2999992.6999512s-.4000015.3000488-.7000008.3000488c-.2000008,0-.2999992,0-.5-.1000977-.0999985-.1000977-.2999992-.1999512-.5-.3999023s-.4000015-.3000488-.5999985-.3000488-.2999992-.1000977-.5-.1000977c-.5.0009766-1,.2009277-1.3000031.7009277ZM10.4400607,95.100708c.2999992-.3000488.4000015-.6999512.5-1.3000488v-.1000977c0-.1999512-.0999985-.3999023-.4000015-.3999023-.5-.1000977-.9000015-.1000977-1.2000008-.1000977-.5999985,0-1.0999985.1000977-1.5999985.3000488s-.5999985.5-.5999985.8000488c0,.3999023.2000008.6999512.5999985.8999023s.7999992.3000488,1.2999992.3000488c.7000046.0002441,1.2000046-.0998535,1.4000015-.3999023ZM7.7400637,81.2008057v.3999023c0,.1000977,0,.1999512.0999985.1999512s.0999985-.1000977.2000008-.1000977c.2999992-.1999512.4000015-.3000488.4000015-.3999023,0-.1000977-.0999985-.1000977-.2000008-.1999512-.2999992-.1000977-.4000015-.1000977-.4000015,0v.1000977h-.0999985Z"/>
      </g>
      <g class="cls-1">
        <path class="cls-2" d="M4.7400647,119.0008545c-.7000008-1-1-2.5-1-4.5,0-1.3000488.1000004-2.8000488.2999992-4.6000977.1000004-1.1000977.2000008-1.8999023.2000008-2.5s-.1000004-1.1999512-.2000008-1.6000977-.3999996-.6999512-.7999992-1c-.1000004-.1000977-.2000008-.1000977-.2000008-.1999512,0-.1000977.1000004-.1999512.2999992-.1999512.2000008,0,.3999996-.1000977.6000004-.1000977.8000011,0,1.3000011.1999512,1.6000004.6000977s.5,1,.5,1.6999512c0,.3999023,0,.8999023-.0999985,1.6000977-.0999985.6999512-.2000008,1.1000977-.2000008,1.1999512,0,.1000977-.0999985.3000488-.0999985.5-.2999992,1.8000488-.4000015,3.3000488-.4000015,4.6000977,0,1.1000977.0999985,2,.2999992,2.6000977s.5999985,1.1000977,1.0999985,1.3999023c.5.3000488,1.2000008.3999023,2.2000008.3999023,1.7999992,0,4.0999985-1,6.7999992-3.1000977,0,0,.0999985-.1000977.2000008-.1000977.0999985-.1000977.2000008-.1000977.2000008-.1000977,0,0,.0999985,0,.0999985.1000977s-.0999985.1999512-.2999992.3999023c-2.5,2.8999023-5.0999985,4.3999023-7.5,4.3999023-1.7000008-.0996094-2.8999977-.5996094-3.5999985-1.4995117Z"/>
      </g>
      <circle id="Ellipse_45" class="cls-2" cx="28" cy="67.600708" r="1.7000008"/>
      <circle id="Ellipse_46" class="cls-2" cx="28" cy="88.600708" r="1.7000008"/>
      <circle id="Ellipse_49" class="cls-2" cx="28" cy="112.600708" r="1.7000008"/>
      <circle id="Ellipse_47" class="cls-2" cx="28" cy="43.9007568" r="1.7000008"/>
      <circle id="Ellipse_48" class="cls-2" cx="28" cy="19.2008057" r="1.7000008"/>
    </g>
  </g>
</svg>