<?xml version="1.0" encoding="UTF-8"?>
<svg xmlns="http://www.w3.org/2000/svg" version="1.1" viewBox="0 0 29.7000008 78">
  <defs>
    <style>
      .cls-1 {
        isolation: isolate;
      }

      .cls-2 {
        fill: #fff;
      }
    </style>
  </defs>
  <!-- Generator: Adobe Illustrator 28.7.1, SVG Export Plug-In . SVG Version: 1.2.0 Build 142)  -->
  <g>
    <g id="Layer_1">
      <g class="cls-1">
        <path class="cls-2" d="M10.3333989,11.5090332c0,.0999756.0999985.2000122.4000015.2000122.9000015.0999756,1.7999992.4000244,2.5999985.9000244s1.4000015,1.0999756,1.9000015,1.9000244c.5.7999878.7000008,1.7000122.7000008,2.7000122,0,2-.7000008,3.5-2.2000008,4.5999756s-3.4000015,1.7999878-5.9000015,2.0999756l-.7999992.0999756h-.0999985v-.0999756c0-.0999756.0999985-.0999756.2000008-.0999756.0999985,0,.2000008-.0999756.2999992-.0999756h.2000008c2-.5,3.5999985-1.2999878,4.7000008-2.4000244,1.0999985-1.0999756,1.7000008-2.5,1.7000008-4.0999756,0-1.2000122-.4000015-2.2000122-1-3-.7000008-.7999878-1.5999985-1.2999878-2.7000008-1.5h-.0999985c-.2000008,0-.4000015.0999756-.4000015.2999878-.5,1.5999756-1.0999985,3-1.7000008,4.2999878,0,.0999756-.0999985.2000122-.0999985.2999878s.0999985.2000122.2999992.4000244c.2000008.0999756.4000015.2000122.5.2999878.2000008.2000122.2999992.4000244.2999992.5999756,0,.2000122-.0999985.2999878-.2000008.4000244-.0999985.0999756-.2999992.2000122-.5.2000122s-.5-.0999756-.9000015-.2000122c-.0999985,0-.2000008-.0999756-.2999992-.0999756s-.2000008.0999756-.4000015.2000122c-.5999985.9000244-1.2999992,1.5999756-2,2.0999756s-1.2999992.7999878-1.7999992.7999878c-.2999992,0-.5-.0999756-.7999992-.2999878s-.5-.5-.7000008-.9000244-.2999992-.9000244-.2999992-1.5c0-1.9000244.6000004-3.5999756,1.9000015-4.9000244.0999985-.0999756.2000008-.2000122.2000008-.4000244v-.2000122c-.2999992-.7999878-.5-1.4000244-.7000008-1.7999878-.2000008-.4000244-.3999996-.7000122-.6000004-.9000244-.1000004-.0999756-.2999992-.2000122-.3999996-.2999878s-.2000008-.2000122-.2000008-.2000122c0-.0999756.1000004-.0999756.2000008-.0999756s.2999992,0,.5.0999756.3999996.0999756.6000004.2000122c.3000011.2000122.6000004.4000244.8000011.7000122s.4000015.7999878.7000008,1.4000244c.0999985.2000122.2000008.2999878.2999992.2999878s.2000008,0,.2999992-.0999756c1.0999985-.7000122,2.2999992-1.2000122,3.5-1.4000244.2999992,0,.4000015-.2000122.4000015-.4000244.0999985-.5999756.2000008-1.0999756.2000008-1.5,0-.2000122,0-.4000244-.0999985-.5999756s-.2000008-.2999878-.5-.5c-.0999985,0-.2000008-.0999756-.2999992-.2000122-.0999985-.0999756-.2000008-.0999756-.2000008-.2000122s.0999985-.0999756.2000008-.2000122c.0999985,0,.2999992-.0999756.4000015-.0999756.5999985,0,1.0999985.2000122,1.5.5s.5999985.7000122.5999985,1.2000122c0,.2000122,0,.5-.0999985.7999878s-.0999985.5-.0999985.5l-.0000114.2000122h0ZM4.5333996,20.0090332c.5-.2999878.9000015-.7999878,1.4000015-1.4000244.0999985-.0999756.0999985-.2000122.0999985-.2999878s-.0999985-.2000122-.2000008-.2999878c-.4000015-.2999878-.7999992-.7000122-1-1-.2999992-.2999878-.5-.7999878-.7999992-1.2999878-.0999985-.2000122-.2000008-.2999878-.2999992-.2999878s-.2000008.0999756-.2999992.2000122c-.7000008,1.0999756-1,2.2000122-1,3.2999878,0,.4000244.1000004.7000122.2000008,1.0999756.2000008.2999878.4000015.5.5999985.5.5,0,.7999992-.2000122,1.2999992-.5ZM6.6333981,16.7089844c.0999985.0999756.2000008.0999756.2999992.0999756s.2999992-.0999756.2999992-.2999878c.5-1,.9000015-2.2000122,1.2000008-3.5v-.0999756c0-.0999756,0-.2000122-.0999985-.2999878s-.2000008-.0999756-.2999992,0c-1.0999985.2000122-2.0999985.7000122-3,1.4000244-.0999985.0999756-.2000008.2000122-.2000008.4000244q0,.0999756.0999985.2999878c.2999992.5999756.7000008,1.0999756,1.0999985,1.5.0000038-.1000366.2000046.0999756.6000023.499939Z"/>
      </g>
      <g class="cls-1">
        <path class="cls-2" d="M13.4833966,38.1090088c-.4000015.2999878-.9000015.5999756-1.5999985.9000244-.2000008.0999756-.2999992.2000122-.2999992.2999878s0,.2000122.0999985.2999878l.9000015,1.4000244.4000015.5999756c.2999992.4000244.5.7000122.5999985,1s.2000008.5.2000008.7999878c0,.2000122-.0999985.5-.2000008.7999878-.0999985.2999878-.2999992.5-.5.7000122s-.4000015.2999878-.5.2999878c-.2000008,0-.5-.0999756-.7999992-.4000244-.5-.5-1.0999985-.7999878-1.7999992-1.0999756-.7000008-.2000122-1.4000015-.4000244-2.0999985-.4000244-.9000015,0-1.5999985.2000122-2.2999992.5-.5999985.4000244-.9000015.9000244-.9000015,1.5s.2000008,1.0999756.7000008,1.4000244c.4000015.2999878,1,.4000244,1.7000008.4000244.2999992,0,.7000008,0,1.0999985-.0999756.2999992-.0999756.5999985-.0999756.7000008-.0999756.5,0,.9000015.0999756,1.2999992.2999878.4000015.2000122.5.4000244.5.7999878,0,.2000122-.0999985.4000244-.2000008.5-.0999985.2000122-.2999992.2999878-.5.2999878-.5.0999756-1.0999985.0999756-1.7999992.0999756-1.4000015,0-2.5-.2999878-3.2000008-.9000244s-1.4000053-1.3999634-1.4000053-2.2999878c0-1,.5-1.7999878,1.4000015-2.4000244.9000015-.5999756,2-.7999878,3.4000015-.7999878.4000015,0,1,.0999756,2,.2000122.4000015.0999756.7000008.0999756.7000008.0999756.5,0,.7000008-.0999756.7000008-.4000244,0-.2000122-.0999985-.4000244-.2000008-.5999756-.0999985-.2000122-.2999992-.5999756-.7000008-1.2999878l-.2999992-.5999756c-.0999985-.2000122-.2999992-.2999878-.5999985-.2999878-1,.2999878-1.9000015.4000244-2.7000008.4000244-1.5999985,0-2.7999992-.5-3.7999992-1.5-.2000008-.2000122-.2999992-.2999878-.3999996-.4000244-.1000004-.0999756-.1000004-.2000122-.1000004-.2999878,0,0,0-.0999756.1000004-.0999756s.2000008,0,.2999992.0999756c.2999992.2000122.7000008.4000244,1.3999996.5999756.5999985.2000122,1.2999992.2999878,1.9000015.2999878.7000008,0,1.5-.0999756,2.5-.4000244.2000008,0,.2999992-.2000122.2999992-.2999878s0-.0999756-.0999985-.2000122l-.7999992-1.5999756-.0999985-.0999756c-.0999985-.2000122-.2000008-.2999878-.4000015-.2999878h-.2000008c-.5999985.2000122-1.0999985.2999878-1.5999985.2999878s-1-.0999756-1.4000015-.4000244c-.3999996-.2999878-.7999992-.7000122-1.2000008-1.2999878,0,0-.1000004-.0999756-.1000004-.2000122s-.1000004-.0999756-.1000004-.0999756q0-.0999756.1000004-.0999756c.1000004,0,.2999992.0999756.6000004.2999878.1000004.0999756.4000015.2000122.7000008.4000244.2999992.0999756.7000008.2000122,1,.2000122s.5999985-.0999756,1-.2000122c.2000008-.0999756.2999992-.2000122.2999992-.2999878s0-.2000122-.0999985-.2999878c-.7000008-.7999878-1.4000015-1.4000244-2.0999985-1.7999878-.0999985-.0999756-.2999992-.0999756-.4000015-.2000122-.1000004-.0999756-.2000008-.0999756-.2999992-.2000122-.1000004,0-.1000004-.0999756-.1000004-.2000122,0-.2000122.1000004-.2999878.3999996-.4000244.2999992-.0999756.5999985-.0999756.7999992-.0999756.7000008,0,1.2999992.2999878,1.7000008,1,.0999985.2000122.4000015.7000122.9000015,1.5999756.0999985.2000122.2999992.2999878.5.2999878.0999985-.0999756.2000008-.0999756.2999992-.0999756.2000008-.0999756.4000015-.0999756.5-.0999756.2999992,0,.5.0999756.7000008.2000122.2000008.0999756.2999992.2999878.2999992.5,0,.0999756,0,.2000122-.0999985.2999878s-.2000008.2000122-.2999992.2999878l-.2999992.0999756c-.2000008.0999756-.2999992.2000122-.2999992.4000244q0,.0999756.0999985.2000122v.0999756c.0999985.2000122.2999992.2999878.5.2999878.5999985.0999756,1.2000008.2000122,1.7999992.2000122.2999992,0,.5,0,.7999992-.0999756h.5999985c.2999992,0,.5999985,0,.7999992.0999756s.2999992.2000122.2999992.5c-.0000076.2999878-.2000046.6999512-.7000046,1.0999756ZM10.3833943,36.809021c-.0999985,0-.2000008.0999756-.2000008.2000122,0,.0999756,0,.2000122.0999985.2999878l.2000008.2999878c.2000008.2000122.2999992.2999878.4000015.2999878l.0999985-.0999756c.2999992-.2000122.4000015-.4000244.4000015-.5s-.0999985-.2000122-.2999992-.2999878l-.5999985-.2000122h-.1000023Z"/>
      </g>
      <g class="cls-1">
        <path class="cls-2" d="M13.4833966,62.1090088c-.4000015.2999878-.9000015.5999756-1.5999985.9000244-.2000008.0999756-.2999992.2000122-.2999992.2999878s0,.2000122.0999985.2999878l.9000015,1.4000244.4000015.5999756c.2999992.4000244.5.7000122.5999985,1s.2000008.5.2000008.7999878c0,.2000122-.0999985.5-.2000008.7999878-.0999985.2999878-.2999992.5-.5.7000122s-.4000015.2999878-.5.2999878c-.2000008,0-.5-.0999756-.7999992-.4000244-.5-.5-1.0999985-.7999878-1.7999992-1.0999756-.7000008-.2000122-1.4000015-.4000244-2.0999985-.4000244-.9000015,0-1.5999985.2000122-2.2999992.5-.5999985.4000244-.9000015.9000244-.9000015,1.5s.2000008,1.0999756.7000008,1.4000244c.4000015.2999878,1,.4000244,1.7000008.4000244.2999992,0,.7000008,0,1.0999985-.0999756.2999992-.0999756.5999985-.0999756.7000008-.0999756.5,0,.9000015.0999756,1.2999992.2999878.4000015.2000122.5.4000244.5.7999878,0,.2000122-.0999985.4000244-.2000008.5-.0999985.2000122-.2999992.2999878-.5.2999878-.5.0999756-1.0999985.0999756-1.7999992.0999756-1.4000015,0-2.5-.2999878-3.2000008-.9000244s-1.4000053-1.3999634-1.4000053-2.2999878c0-1,.5-1.7999878,1.4000015-2.4000244.9000015-.5999756,2-.7999878,3.4000015-.7999878.4000015,0,1,.0999756,2,.2000122.4000015.0999756.7000008.0999756.7000008.0999756.5,0,.7000008-.0999756.7000008-.4000244,0-.2000122-.0999985-.4000244-.2000008-.5999756-.0999985-.2000122-.2999992-.5999756-.7000008-1.2999878l-.2999992-.5999756c-.0999985-.2000122-.2999992-.2999878-.5999985-.2999878-1,.2999878-1.9000015.4000244-2.7000008.4000244-1.5999985,0-2.7999992-.5-3.7999992-1.5-.2000008-.2000122-.2999992-.2999878-.3999996-.4000244-.1000004-.0999756-.1000004-.2000122-.1000004-.2999878,0,0,0-.0999756.1000004-.0999756s.2000008,0,.2999992.0999756c.2999992.2000122.7000008.4000244,1.3999996.5999756.5999985.2000122,1.2999992.2999878,1.9000015.2999878.7000008,0,1.5-.0999756,2.5-.4000244.2000008,0,.2999992-.2000122.2999992-.2999878s0-.0999756-.0999985-.2000122l-.7999992-1.5999756-.0999985-.0999756c-.0999985-.2000122-.2000008-.2999878-.4000015-.2999878h-.2000008c-.5999985.2000122-1.0999985.2999878-1.5999985.2999878s-1-.0999756-1.4000015-.4000244c-.3999996-.2999878-.7999992-.7000122-1.2000008-1.2999878,0,0-.1000004-.0999756-.1000004-.2000122s-.1000004-.0999756-.1000004-.0999756q0-.0999756.1000004-.0999756c.1000004,0,.2999992.0999756.6000004.2999878.1000004.0999756.4000015.2000122.7000008.4000244.2999992.0999756.7000008.2000122,1,.2000122s.5999985-.0999756,1-.2000122c.2000008-.0999756.2999992-.2000122.2999992-.2999878s0-.2000122-.0999985-.2999878c-.7000008-.7999878-1.4000015-1.4000244-2.0999985-1.7999878-.0999985-.0999756-.2999992-.0999756-.4000015-.2000122-.1000004-.0999756-.2000008-.0999756-.2999992-.2000122-.1000004,0-.1000004-.0999756-.1000004-.2000122,0-.2000122.1000004-.2999878.3999996-.4000244.2999992-.0999756.5999985-.0999756.7999992-.0999756.7000008,0,1.2999992.2999878,1.7000008,1,.0999985.2000122.4000015.7000122.9000015,1.5999756.0999985.2000122.2999992.2999878.5.2999878.0999985-.0999756.2000008-.0999756.2999992-.0999756.2000008-.0999756.4000015-.0999756.5-.0999756.2999992,0,.5.0999756.7000008.2000122.2000008.0999756.2999992.2999878.2999992.5,0,.0999756,0,.2000122-.0999985.2999878s-.2000008.2000122-.2999992.2999878l-.2999992.0999756c-.2000008.0999756-.2999992.2000122-.2999992.4000244q0,.0999756.0999985.2000122v.0999756c.0999985.2000122.2999992.2999878.5.2999878.5999985.0999756,1.2000008.2000122,1.7999992.2000122.2999992,0,.5,0,.7999992-.0999756h.5999985c.2999992,0,.5999985,0,.7999992.0999756s.2999992.2000122.2999992.5c-.0000076.2999878-.2000046.6999512-.7000046,1.0999756ZM10.3833943,60.809021c-.0999985,0-.2000008.0999756-.2000008.2000122,0,.0999756,0,.2000122.0999985.2999878l.2000008.2999878c.2000008.2000122.2999992.2999878.4000015.2999878l.0999985-.0999756c.2999992-.2000122.4000015-.4000244.4000015-.5s-.0999985-.2000122-.2999992-.2999878l-.5999985-.2000122h-.1000023Z"/>
      </g>
      <circle id="Ellipse_32" class="cls-2" cx="28" cy="67.6090088" r="1.7000008"/>
      <circle id="Ellipse_33" class="cls-2" cx="28" cy="43.9089966" r="1.7000008"/>
      <circle id="Ellipse_34" class="cls-2" cx="28" cy="19.1090088" r="1.7000008"/>
    </g>
  </g>
</svg>