<?xml version="1.0" encoding="UTF-8"?>
<svg xmlns="http://www.w3.org/2000/svg" version="1.1" viewBox="0 0 29.7000008 78">
  <defs>
    <style>
      .cls-1 {
        isolation: isolate;
      }

      .cls-2 {
        fill: #fff;
      }
    </style>
  </defs>
  <!-- Generator: Adobe Illustrator 28.7.1, SVG Export Plug-In . SVG Version: 1.2.0 Build 142)  -->
  <g>
    <g id="Layer_1">
      <g class="cls-1">
        <path class="cls-2" d="M13.5500266,14.1090088c-.4000015.3000488-.9000015.5999756-1.5999985.9000244-.2000008.0999756-.2999992.1999512-.2999992.3000488,0,.0999756,0,.1999512.0999985.3000488l.9000015,1.4000244.4000015.5999756c.2999992.4000244.5.6999512.5999985,1s.2000008.5.2000008.8000488c0,.1999512-.0999985.5-.2000008.8000488-.0999985.3000488-.2999992.5-.5.6999512s-.4000015.3000488-.5.3000488c-.2000008,0-.5-.0999756-.7999992-.4000244-.5-.5-1.0999985-.8000488-1.7999992-1.0999756-.7000008-.1999512-1.4000015-.4000244-2.0999985-.4000244-.9000015,0-1.5999985.1999512-2.2999992.5-.5999985.4000244-.9000015.9000244-.9000015,1.5s.2000008,1.0999756.7000008,1.4000244c.4000015.3000488,1,.4000244,1.7000008.4000244.2999992,0,.7000008,0,1.0999985-.0999756.2999992-.0999756.5999985-.0999756.7000008-.0999756.5,0,.9000015.0999756,1.2999992.3000488.4000015.1999512.5.4000244.5.8000488,0,.1999512-.0999985.4000244-.2000008.5-.0999985.1999512-.2999992.3000488-.5.3000488-.5.0999756-1.0999985.0999756-1.7999992.0999756-1.4000015,0-2.5-.3000488-3.2000008-.9000244s-1.2000008-1.3000488-1.2000008-2.1999512c0-1,.5-1.8000488,1.4000015-2.4000244s2-.8000488,3.4000015-.8000488c.4000015,0,1,.0999756,2,.1999512.4000015.0999756.7000008.0999756.7000008.0999756.5,0,.7000008-.0999756.7000008-.4000244,0-.1999512-.0999985-.4000244-.2000008-.5999756-.0999985-.1999512-.2999992-.5999756-.7000008-1.3000488l-.2999992-.5999756c-.0999985-.1999512-.2999992-.3000488-.5999985-.3000488-1,.3000488-1.9000015.4000244-2.7000008.4000244-1.5999985,0-2.7999992-.5-3.7999992-1.5-.2000008-.1999512-.2999992-.3000488-.3999996-.4000244s-.1000004-.1999512-.1000004-.3000488c0,0,0-.0999756.1000004-.0999756s.2000008,0,.2999992.0999756c.2999992.1999512.7000008.4000244,1.3999996.5999756.5999985.1999512,1.2999992.3000488,1.9000015.3000488.7000008,0,1.5-.0999756,2.5-.4000244.2000008,0,.2999992-.1999512.2999992-.3000488q0-.0999756-.0999985-.1999512l-.7999992-1.5999756-.0999985-.0999756c-.0999985-.1999512-.2000008-.3000488-.4000015-.3000488h-.2000008c-.5999985.1999512-1.0999985.3000488-1.5999985.3000488s-1-.0999756-1.4000015-.4000244-.7999992-.6999512-1.2000008-1.3000488c0,0-.1000004-.0999756-.1000004-.1999512s-.1000004-.0999756-.1000004-.0999756q0-.0999756.1000004-.0999756c.1000004,0,.2999992.0999756.6000004.3000488.1000004.0999756.4000015.1999512.7000008.4000244.2999992.0999756.7000008.1999512,1,.1999512s.5999985-.0999756,1-.1999512c.2000008-.0999756.2999992-.1999512.2999992-.3000488,0-.0999756,0-.1999512-.0999985-.3000488-.7000008-.8000488-1.4000015-1.4000244-2.0999985-1.8000488-.0999985-.0999756-.2999992-.0999756-.4000015-.1999512-.0999985-.0999756-.2000008-.0999756-.2999992-.1999512-.1000004,0-.1000004-.0999756-.1000004-.1999512,0-.1999512.1000004-.3000488.3999996-.4000244s.5999985-.0999756.7999992-.0999756c.7000008,0,1.2999992.3000488,1.7000008,1,.0999985.1999512.4000015.6999512.9000015,1.5999756.0999985.1999512.2999992.3000488.5.3000488.0999985-.0999756.2000008-.0999756.2999992-.0999756.2000008-.0999756.4000015-.0999756.5-.0999756.2999992,0,.5.0999756.7000008.1999512s.2999992.3000488.2999992.5c0,.0999756,0,.1999512-.0999985.3000488-.0999985.0999756-.2000008.1999512-.2999992.3000488l-.2999992.0999756c-.2000008.0999756-.2999992.1999512-.2999992.4000244q0,.0999756.0999985.1999512v.0999756c.0999985.1999512.2999992.3000488.5.3000488.5999985.0999756,1.2000008.1999512,1.7999992.1999512.2999992,0,.5,0,.7999992-.0999756h.5999985c.2999992,0,.5999985,0,.7999992.0999756s.2999992.1999512.2999992.5c-.2000122.199585-.4000092.5996094-.9000092.9996338ZM10.4500243,12.80896c-.0999985,0-.2000008.0999756-.2000008.1999512s0,.1999512.0999985.3000488l.2000008.3000488c.2000008.1999512.2999992.3000488.4000015.3000488l.0999985-.0999756c.2999992-.1999512.4000015-.4000244.4000015-.5s-.0999985-.1999512-.2999992-.3000488l-.5999985-.1999512c0-.0001221-.1000023-.0001221-.1000023-.0001221Z"/>
      </g>
      <g class="cls-1">
        <path class="cls-2" d="M14.1500375,37.2089844c.7000008.4000244,1.2999992,1,1.7000008,1.6999512s.5999985,1.5.5999985,2.4000244c0,1.1999512-.4000015,2.3000488-1.0999985,3.1999512-.7000008.9000244-1.7000008,1.6999512-2.9000015,2.3000488-1.2000008.5999756-2.4000015,1-3.7999992,1.3000488-.2000008,0-.2999992.0999756-.4000015.0999756-.0999985,0-.2000008,0-.2000008-.0999756s.0999985-.0999756.2999992-.1999512c1.2000008-.3000488,2.2999992-.8000488,3.2999992-1.5999756,1-.6999512,1.7000008-1.5999756,2.2999992-2.5s.7999992-1.9000244.7999992-2.9000244c0-.6999512-.2000008-1.3000488-.5-1.8000488s-.7000008-.9000244-1.2999992-1.1999512c-.5-.3000488-1.0999985-.4000244-1.7999992-.4000244-.7999992,0-1.7000008.1999512-2.5999985.6999512-.9000015.4000244-1.7999992,1.0999756-2.5,1.9000244-.0999985.1999512-.2000008.3000488-.2000008.5v.8000488c0,1.8000488.0999985,3.4000244.4000015,4.9000244,0,.3000488.0999985.5.0999985.6999512,0,.4000244-.0999985.5999756-.2000008.8000488-.0999985.1999512-.2999992.3000488-.5.3000488s-.4000015-.0999756-.5999985-.3000488c-.2000008-.1999512-.2999992-.4000244-.2999992-.6999512-.0999985-.6999512-.2999992-1.6999512-.7000008-2.8000488-.0999985-.1999512-.2000008-.3000488-.2999992-.3000488s-.2000008.0999756-.2999992.3000488l-.4000015.8000488c-.0999985.3000488-.2999992.5-.5.6999512-.2000008.0999756-.3999996.1999512-.6000004.1999512s-.2999992-.0999756-.5-.1999512c-.1000004-.0999756-.2000008-.3000488-.2000008-.5v-.0999756c0-.1999512.1000004-.3000488.2000008-.5.1000004-.3000488.2999992-.5999756.5-.9000244s.6000004-.8000488,1.1000004-1.3000488c.0999985-.0999756.0999985-.1999512.0999985-.4000244v-.3000488c-.5-1.3000488-.8999996-2.0999756-1.1000004-2.4000244-.2999992-.4000244-.5-.5999756-.5-.8000488,0-.1999512.1000004-.3000488.2000008-.4000244s.2999992-.0999756.5-.0999756h.3999996c.2999992,0,.5,0,.7000008-.0999756.2000008,0,.4000015-.0999756.5999985-.1999512.2999992-.1999512.7000008-.4000244,1.0999985-.6999512.2000008-.0999756.2999992-.3000488.2999992-.5.0999985-.5999756.0999985-1.0999756.2000008-1.5999756.0999985-.8000488.0999985-1.3000488.0999985-1.6999512,0-.6999512-.2000008-1.3000488-.7000008-1.8000488,0-.0999756-.0999985-.0999756-.2000008-.1999512s-.0999985-.0999756-.0999985-.1999512.0999985-.0999756.2000008-.0999756c.2999992,0,.5999985.0999756,1,.3000488.9000015.4000244,1.4000015,1,1.4000015,1.5999756,0,.3000488-.0999985.5999756-.2999992,1.0999756s-.4000015.8000488-.4000015,1.0999756c0,.0999756-.0999985.1999512-.0999985.4000244v.3000488c0,.1999512.0999985.3000488.2000008.1999512.0999985,0,.2000008-.0999756.2999992-.0999756.2000008,0,.4000015.0999756.7000008.4000244.0999985.0999756.2000008.3000488.2000008.5,0,.3000488-.0999985.6999512-.4000015,1v.0999756c-.0999985.1999512-.2000008.4000244-.2999992.5999756s-.0999985.3000488,0,.1999512c.2999992-.1999512.5-.3000488.5-.4000244,1.5-.9000244,2.7999992-1.4000244,4.2000008-1.4000244.7000008-.3000488,1.5-.1000977,2.3000031.2999268ZM2.7500359,39.0090332q-.1000004,0-.1000004.0999756c0,.0999756,0,.1999512.1000004.4000244l.5999985,1.3000488c.0999985.1999512.0999985.3000488.2000008.3000488h.2000008l.2000008-.3000488c.4000015-.5999756.7999992-1.0999756,1-1.5.0999985-.1999512.2000008-.3000488.2000008-.5v-.4000244h0c0-.0999756,0-.1999512-.0999985-.3000488,0-.0999756-.0999985-.0999756-.2000008-.0999756-.0999985,0-.2000008.0999756-.2999992.1999512,0,0-.0999985.0999756-.2000008.3000488-.0999985.0999756-.2000008.1999512-.2999992.3000488-.0999985.0999756-.2000008.0999756-.2999992.1999512-.2000008.0999756-.4000015.0999756-.5999985.0999756-.2000046,0-.3000069,0-.4000053-.0999756h0ZM4.8500344,41.30896l-.0999985.0999756c-.0999985.1999512-.2999992.5-.5999985.9000244-.0999985.0999756-.0999985.1999512-.0999985.3000488,0,.0999756,0,.1999512.0999985.3000488.2000008.5999756.4000015,1,.5,1.0999756.0999985-.1999512.0999985-.3000488.0999985-.4000244,0-.8000488.0999985-1.3000488.0999985-1.5.1000023-.5999756,0-.9000244,0-.8000488Z"/>
      </g>
      <g class="cls-1">
        <path class="cls-2" d="M10.6000335,59.5090332c0,.0999756.0999985.1999512.4000015.1999512.9000015.0999756,1.7999992.4000244,2.5999985.9000244s1.4000015,1.0999756,1.9000015,1.9000244.7000008,1.6999512.7000008,2.6999512c0,2-.7000008,3.5-2.2000008,4.5999756s-3.4000015,1.8000488-5.9000015,2.0999756l-.7999992.0999756h-.0999985v-.0999756c0-.0999756.0999985-.0999756.2000008-.0999756.0999985,0,.2000008-.0999756.2999992-.0999756h.2000008c2-.5,3.5999985-1.3000488,4.7000008-2.4000244,1.0999985-1.0999756,1.7000008-2.5,1.7000008-4.0999756,0-1.1999512-.4000015-2.1999512-1-3-.7000008-.8000488-1.5999985-1.3000488-2.7000008-1.5h-.0999985c-.2000008,0-.4000015.0999756-.4000015.3000488-.5,1.5999756-1.0999985,3-1.7000008,4.3000488,0,.0999756-.0999985.1999512-.0999985.3000488,0,.0999756.0999985.1999512.2999992.4000244.2000008.0999756.4000015.1999512.5.3000488.2000008.1999512.2999992.4000244.2999992.5999756s-.0999985.3000488-.2000008.4000244c-.0999985.0999756-.2999992.1999512-.5.1999512s-.5-.0999756-.9000015-.1999512c-.0999985,0-.2000008-.0999756-.2999992-.0999756s-.2000008.0999756-.4000015.1999512c-.5999985.9000244-1.2999992,1.5999756-2,2.0999756s-1.2999992.8000488-1.7999992.8000488c-.2999992,0-.5-.0999756-.7999992-.3000488s-.5-.5-.7000008-.9000244-.2999992-.9000244-.2999992-1.5c0-1.9000244.6000004-3.5999756,1.9000015-4.9000244.0999985-.0999756.2000008-.1999512.2000008-.4000244v-.1999512c-.2999992-.8000488-.5-1.4000244-.7000008-1.8000488s-.3999996-.6999512-.6000004-.9000244c-.1000004-.0999756-.2999992-.1999512-.3999996-.3000488l-.2000008-.1999512c0-.0999756.1000004-.0999756.2000008-.0999756s.2999992,0,.5.0999756.3999996.0999756.6000004.1999512c.3000011.1999512.6000004.4000244.8000011.6999512s.4000015.8000488.7000008,1.4000244c.0999985.1999512.2000008.3000488.2999992.3000488s.2000008,0,.2999992-.0999756c1.0999985-.6999512,2.2999992-1.1999512,3.5-1.4000244.2999992,0,.4000015-.1999512.4000015-.4000244.0999985-.5999756.2000008-1.0999756.2000008-1.5,0-.1999512,0-.4000244-.0999985-.5999756s-.2000008-.3000488-.5-.5c-.0999985,0-.2000008-.0999756-.2999992-.1999512s-.2000008-.0999756-.2000008-.1999512.0999985-.0999756.2000008-.1999512c.0999985,0,.2999992-.0999756.4000015-.0999756.5999985,0,1.0999985.1999512,1.5.5s.5999985.6999512.5999985,1.1999512c0,.1999512,0,.5-.0999985.8000488s-.0999985.5-.0999985.5l-.0000114.1998291h0ZM4.8000342,68.0090332c.5-.3000488.9000015-.8000488,1.4000015-1.4000244.0999985-.0999756.0999985-.1999512.0999985-.3000488,0-.0999756-.0999985-.1999512-.2000008-.3000488-.4000015-.3000488-.7999992-.6999512-1-1-.2999992-.3000488-.5-.8000488-.7999992-1.3000488-.0999985-.1999512-.2000008-.3000488-.2999992-.3000488s-.2000008.0999756-.2999992.1999512c-.7000008,1.0999756-1,2.1999512-1,3.3000488,0,.4000244.1000004.6999512.2000008,1.0999756.2000008.3000488.4000015.5.5999985.5.5.0002441.7999992-.1998291,1.2999992-.4997559ZM6.9000327,64.7089844c.0999985.0999756.2000008.0999756.2999992.0999756s.2999992-.0999756.2999992-.3000488c.5-1,.9000015-2.1999512,1.2000008-3.5v-.0999756c0-.0999756,0-.1999512-.0999985-.3000488-.0999985-.0999756-.2000008-.0999756-.2999992,0-1.0999985.1999512-2.0999985.6999512-3,1.4000244-.0999985.0999756-.2000008.1999512-.2000008.4000244q0,.0999756.0999985.3000488c.2999992.5999756.7000008,1.0999756,1.0999985,1.5.0000038-.0999756.2000046.0999756.6000023.5Z"/>
      </g>
      <circle id="Ellipse_38" class="cls-2" cx="28" cy="67.6090088" r="1.7000008"/>
      <circle id="Ellipse_39" class="cls-2" cx="28" cy="43.9090576" r="1.7000008"/>
      <circle id="Ellipse_40" class="cls-2" cx="28" cy="19.1090088" r="1.7000008"/>
    </g>
  </g>
</svg>