<?xml version="1.0" encoding="UTF-8"?>
<svg xmlns="http://www.w3.org/2000/svg" version="1.1" viewBox="0 0 29.7000008 102">
  <defs>
    <style>
      .cls-1 {
        isolation: isolate;
      }

      .cls-2 {
        fill: #fff;
      }
    </style>
  </defs>
  <!-- Generator: Adobe Illustrator 28.7.1, SVG Export Plug-In . SVG Version: 1.2.0 Build 142)  -->
  <g>
    <g id="Layer_1">
      <g class="cls-1">
        <path class="cls-2" d="M9.2834292,11.9018555c-.7000008.5999756-1.5,1.0999756-2.4000015,1.4000244-.2000008.0999756-.2999992.3000488-.4000015.5l-.5,2.1999512c-.0999985.4000244-.2999992,1.5999756-.7000008,3.4000244-.4000015,1.9000244-.5999985,3-.7999992,3.3000488-.2000008.5-.2999992.8000488-.5,1s-.4000015.3000488-.5999985.3000488c-.2999992,0-.5-.0999756-.7000008-.3000488-.2000008-.1999512-.2999992-.4000244-.2999992-.8000488,0-.1999512.1000004-.5.2999992-.9000244,1.0999985-2.3000488,1.9000015-4.8000488,2.5-7.5999756v-.0999756c0-.0999756,0-.1999512-.0999985-.3000488s-.2000008-.0999756-.4000015,0c-.4000015.0999756-.7999992.0999756-1.0999985.0999756-.7999992,0-1.5-.4000244-2.2000008-1.3000488-.1000004-.0999756-.1000004-.1999512-.1000004-.3000488q0-.0999756.1000004-.0999756s.1000004,0,.2999992.0999756c.5.1999512,1,.3000488,1.4000015.3000488.2999992,0,.7000008-.0999756,1.0999985-.1999512.2999992-.0999756.5999985-.1999512,1-.3000488.2000008-.0999756.4000015-.1999512.4000015-.5l.2000008-1.6999512v-.5999756c0-.4000244-.0999985-.8000488-.2999992-1s-.5-.5-.9000015-.8000488c-.0999985-.0999756-.2000008-.0999756-.2000008-.1999512,0,0,.0999985-.0999756.2000008-.0999756h.4000015c.2000008,0,.4000015,0,.7000008.0999756s.5.0999756.7000008.1999512c.2999992.0999756.5.3000488.7000008.4000244.2000008.1999512.2999992.4000244.2999992.8000488v.1999512c0,.1999512.0999985.3000488.2000008.4000244.2000008.1999512.4000015.3000488.5.4000244.2000008.0999756.4000015.1999512.7999992.3000488.2999992.0999756.5.1999512.7000008.3000488.0999985.0999756.2000008.1999512.2000008.4000244-.0000038.4998779-.2000046.7998047-.5000038.9998779ZM6.98343,11.1018066c0,.0999756,0,.1999512.0999985.1999512,0,.0999756.0999985.0999756.2000008.0999756q.0999985,0,.2000008-.0999756c.2999992-.1999512.4000015-.4000244.4000015-.5s0-.1999512-.0999985-.3000488c-.0999985-.1999512-.2000008-.1999512-.2999992-.1999512-.2000008,0-.2999992.0999756-.2999992.3000488l-.0999985.3000488c-.1000061.0999756-.1000061.1999512-.1000061.1999512ZM16.7834292,22.6018066c.2000008.0999756.2000008.3000488.2999992.4000244v.3000488c0,.4000244-.2000008.6999512-.5999985.9000244-.4000015.0999756-1,.1999512-1.7999992.1999512-1.5,0-2.7999992-.3000488-3.7000008-.8000488s-1.5-1.4000244-1.5-2.5999756c0-.3000488,0-.5.0999985-.8000488.0999985-.1999512.0999985-.4000244.2000008-.5.0999985-.1999512.2000008-.3000488.2999992-.4000244s.2000008-.1999512.2000008-.1999512q.0999985,0,.0999985.0999756v.1999512c0,.0999756,0,.1999512-.0999985.3000488v.3000488c0,.3000488.0999985.5999756.2000008.9000244.0999985.3000488.2999992.5999756.5999985.9000244.2000008.1999512.5999985.4000244,1.0999985.5s1.0999985.1999512,1.7000008.1999512h1.0999985c.4000015,0,.7000008-.0999756.9000015-.0999756.3000031-.0999756.7000008,0,.9000015.1999512ZM17.2834292,12.8018799c.2000008.3000488.2999992.5999756.2999992.8000488,0,.4000244-.2999992.6999512-1,.8000488-.0999985,0-.2999992,0-.5999985.0999756-.2999992,0-.5.0999756-.7999992.1999512-.2000008.0999756-.5.1999512-.7000008.3000488-.2999992.0999756-.5.1999512-.5999985.3000488-.0999985.0999756-.2000008.0999756-.2999992.0999756s-.0999985,0-.0999985-.0999756,0-.0999756.0999985-.1999512.2999992-.1999512.5-.5c.4000015-.3000488.7000008-.5999756.9000015-.8000488.2000008-.1999512.2999992-.4000244.2999992-.5s-.0999985-.3000488-.2999992-.4000244c-.2999992-.1999512-.5999985-.4000244-1-.5s-.7000008-.0999756-1-.0999756h-.6000023c-.2000008,0-.2999992-.0999756-.2999992-.1999512s.0999985-.1999512.2999992-.3000488c.7000008-.1999512,1.2999992-.4000244,1.9000015-.4000244.4000015,0,.9000015.0999756,1.2000008.1999512.4000015.0999756.7000008.1999512,1,.4000244.3999939.2999268.6999969.4998779.7999954.7999268Z"/>
      </g>
      <g class="cls-1">
        <path class="cls-2" d="M10.6334258,48.5018311c-.2000008-.3000488-.4000015-.8000488-.5999985-1.5-.4000015-1.4000244-.7999992-2.3000488-1.0999985-3-.2999992-.5999756-.7000008-1.3000488-1.2000008-2-.3999996-.5999756-.7000008-1.0999756-.8999996-1.4000244-.1000004-.3000488-.2000008-.5-.2000008-.8000488,0-.1999512.1000004-.5.2000008-.8000488s.3999996-.6999512.7000008-1.1999512c1.1999989-1.9000244,1.9999981-3.4000244,2.4999981-4.5999756.0999985-.3000488.2000008-.5999756.2000008-.8000488,0-.3000488-.0999985-.5999756-.4000015-.8000488-.0999985-.0999756-.2000008-.0999756-.2999992-.1999512s-.2000008-.1999512-.2000008-.1999512c0-.0999756.0999985-.0999756.4000015-.0999756.2999992,0,.5999985.0999756.9000015.1999512.4000015.0999756.7000008.3000488,1,.5.4000015.3000488.5999985.5999756.5999985,1,0,.1999512-.0999985.4000244-.2000008.6999512-.2000008.4000244-.4000015.9000244-.7000008,1.1999512-.2999992.4000244-.7000008.9000244-1.2000008,1.5-.9000015,1-1.7999992,2.0999756-2.5,3.0999756-.2000008.1999512-.2000008.4000244-.2000008.6999512s.1000004.5.2999992.6999512c1.0999985,1.0999756,2.0999985,2.4000244,3,3.6999512.9000015,1.4000244,1.4000015,2.5999756,1.4000015,3.6999512,0,.3000488-.0999985.5-.2000008.6999512s-.2999992.3000488-.5999985.3000488c-.2000008-.0996094-.5000038-.199585-.7000008-.5996094Z"/>
      </g>
      <g class="cls-1">
        <path class="cls-2" d="M18.0834285,68.6018066c0,.1999512-.0999985.4000244-.2000008.5-.0999985.0999756-.2999992.1999512-.5.1999512-.2999992,0-.5999985-.0999756-1.0999985-.4000244l-1.2000008-.9000244-1-.8000488c-.0999985-.0999756-.2000008-.0999756-.2999992-.0999756s-.2999992.0999756-.2999992.3000488c-.2000008.3000488-.2999992.5-.4000015.6999512-.9000015,1.3000488-1.9000015,2.3000488-3.2000008,3s-2.5,1-3.7999992,1c-.2000008,0-.2999992,0-.2999992-.0999756,0,0,0-.0999756.0999985-.0999756s.0999985,0,.2000008-.0999756h.2000008c1-.3000488,2.0999985-.8000488,3.0999985-1.5s1.9000015-1.8000488,2.5999985-3.1999512l.2999992-.5999756v-.1999512c0-.1999512-.0999985-.3000488-.2000008-.4000244-1.5-.8000488-3.2000008-1.1999512-5-1.1999512-.2000008,0-.4000015.0999756-.5.3000488l-.7999992,1.5c-.0999985.1999512-.2000008.3000488-.2999992.5s-.2000008.4000244-.2999992.5999756c-.5,1-.9000015,1.6999512-1.2999992,2.0999756s-.9000015.6999512-1.3999996.6999512c-.5,0-.8999996-.1999512-1.2000008-.5-.2999992-.3000488-.5-.8000488-.5-1.3000488,0-.4000244.1000004-.9000244.2999992-1.3000488s.3999996-.9000244.7999992-1.3000488c.3999996-.5.8999996-.9000244,1.6000004-1.1999512s1.2999992-.5999756,2-.8000488c.2000008,0,.4000015-.1999512.5-.3000488l2.2999992-3.8000488c.0999985-.1999512.2999992-.4000244.5-.6999512.2999992-.4000244.5-.8000488.5999985-1s.2000008-.4000244.2000008-.5,0-.1999512-.0999985-.3000488c-.0999985-.0999756-.2000008-.0999756-.2000008-.0999756-.0999985,0-.4000015.0999756-.5999985.3000488-.2000008.0999756-.5.4000244-1,.9000244-.2999992.3000488-.5.5-.7000008.5999756-.2999992.1999512-.5.3000488-.7000008.3000488-.2999992,0-.5999985-.1999512-1.0999985-.5-.4000015-.3000488-.7999992-.6999512-.9000015-.9000244-.0999985-.0999756-.0999985-.1999512-.0999985-.3000488,0-.0999756.0999985-.1999512.2000008-.1999512.0999985,0,.2000008,0,.2999992.0999756.2999992.1999512.5999985.3000488.9000015.3000488.2000008,0,.4000015-.0999756.7000008-.1999512s.7000008-.3000488,1.0999985-.5c.5-.3000488.9000015-.4000244,1.0999985-.5.0999985,0,.2000008-.0999756.4000015-.1999512s.5-.0999756.7000008-.0999756c.2999992,0,.7000008.0999756,1.0999985.4000244.5999985.4000244.9000015.8000488.9000015,1.1999512,0,.3000488-.2000008.6999512-.7000008,1-1.2000008,1.0999756-2.2999992,2.5999756-3.4000015,4.4000244-.0999985.0999756-.0999985.3000488-.2000008.3000488s-.0999985.1999512-.0999985.1999512h.0999985c1.5999985,0,3.2000008.3000488,5,1h.2000008c.2000008,0,.2999992-.0999756.2999992-.3000488.0999985-.4000244.2000008-.8000488.2000008-1.1999512,0-.8000488-.2999992-1.5-.7999992-2q-.0999985-.0999756-.0999985-.1999512t.0999985-.0999756c.0999985,0,.2999992.0999756.5999985.1999512.5.1999512.7999992.3000488.9000015.4000244.2999992.0999756.5.3000488.5999985.6999512.0999985.3000488.2000008.6999512.2000008,1.1999512v.4000244c0,.1999512,0,.3000488.0999985.4000244.5,1,1.2000008,1.9000244,1.9000015,2.5.0999985.0999756.2000008.1999512.4000015.4000244.2000008.0999756.4000015.3000488.5.4000244.6000023.2999268.7000008.5999756.7000008.8999023ZM4.6834307,66.2017822l.4000015-.6999512c.0999985-.0999756.0999985-.1999512.0999985-.3000488,0-.1999512-.0999985-.1999512-.2999992-.1999512h-.2000008c-1.2999992.4000244-2.0999985,1.0999756-2.6000004,2.1999512-.1000004.3000488-.2000008.5999756-.2000008.8000488,0,.4000244.2000008.6999512.5.6999512.3000011,0,.5000019-.0999756.6999989-.3000488.2000008-.1999512.5-.5.7000008-.8000488l.9000015-1.3999023ZM14.5834285,65.2017822q-.0999985,0-.0999985.0999756h0v.0999756c0,.1999512.0999985.3000488.2999992.4000244.2000008-.0999756.2999992-.0999756.2999992-.3000488q0-.0999756-.0999985-.1999512h0c-.0999985.0001221-.2999992-.0999756-.4000015-.0999756Z"/>
      </g>
      <circle id="Ellipse_35" class="cls-2" cx="28" cy="67.6018066" r="1.7000008"/>
      <circle id="Ellipse_36" class="cls-2" cx="28" cy="43.9018555" r="1.7000008"/>
      <circle id="Ellipse_37" class="cls-2" cx="28" cy="19.2017822" r="1.7000008"/>
    </g>
  </g>
</svg>