<svg xmlns="http://www.w3.org/2000/svg" width="176.942" height="205.331" viewBox="0 0 176.942 205.331">
  <g id="ic-play" transform="translate(-871.835 -219.669)">
    <path id="パス_1" data-name="パス 1" d="M.8-11.932c0,.095.19.133.3.152.532.057.76.266.779.627.038.38.133,2.907.133,4.465,0,2.983-.019,5.168-.038,5.6-.038.627-.247.76-.817.874C.893-.152.836-.095.836-.038c0,.1.171.114.342.114C1.387.076,1.862,0,2.337,0,3.23,0,3.591.095,4.161.095c.171,0,.3-.038.3-.133,0-.076-.1-.133-.38-.171C3.5-.3,3.268-.494,3.211-1.235c-.038-.532-.076-1.824-.076-3.876,0-2.033-.019-6.023-.019-6.365a.437.437,0,0,1,.171-.361,3.685,3.685,0,0,1,.969-.133,2.9,2.9,0,0,1,2.261,1.026,3.7,3.7,0,0,1,.95,2.527c0,2.755-1.938,3.249-2.565,3.249a2.942,2.942,0,0,1-.418-.019c-.152-.019-.209.038-.209.076,0,.076.114.133.228.171a2.153,2.153,0,0,0,.608.076,3.524,3.524,0,0,0,1.976-.57,3.426,3.426,0,0,0,1.6-3.1A3.669,3.669,0,0,0,7.7-11.02a4.415,4.415,0,0,0-3.4-1.216c-.323,0-1.406.114-1.843.133-.513.019-1.064.038-1.349.038C.931-12.065.8-11.989.8-11.932Zm9.481-.038c0,.076.057.133.266.171.874.152.912.266.969,1.387.038.608.057,1.957.057,4.541,0,2.641,0,3.895-.076,4.674-.057.57-.152.855-1.007,1.007-.152.019-.323.076-.323.152,0,.1.152.133.38.133C10.792.095,11.609,0,12.2,0c.57,0,2,.038,2.964.095.931.038,2.413.038,2.6.038a.422.422,0,0,0,.323-.19,12.6,12.6,0,0,0,.475-1.273c.076-.209.114-.475.038-.475s-.19.095-.285.266c-.38.7-.741,1.1-1.178,1.178a10.2,10.2,0,0,1-1.786.095C13.718-.266,13.2-.475,13-.741A3.664,3.664,0,0,1,12.73-2.28c-.019-.361-.038-2.318-.038-4.18,0-1.729,0-3.363.019-3.686.076-1.368.095-1.482.931-1.653q.228-.057.228-.171c0-.038-.076-.095-.3-.095-.323,0-.893.076-1.387.076-.456,0-1.026-.076-1.6-.076C10.374-12.065,10.279-12.008,10.279-11.97Zm15.257-.3c-.076,0-.095.114-.114.19a1.94,1.94,0,0,1-.532.95.462.462,0,0,0-.057.209,1.353,1.353,0,0,1-.114.551c-1.178,2.926-2.888,7.163-3.4,8.246C20.577-.513,20.463-.38,19.589-.209c-.19.038-.38.076-.38.171s.114.133.323.133c.4,0,.722-.095,1.2-.095.7,0,1.52.095,1.881.095.19,0,.361-.038.361-.133,0-.057-.1-.133-.285-.171a1.581,1.581,0,0,1-.779-.3c-.209-.209-.228-.551,0-1.33.3-1.026.874-2.47,1.045-2.85.057-.133.209-.38.266-.38.418-.019,3.021,0,3.724-.057.057,0,.171.114.228.228.7,1.843,1.387,3.591,1.387,3.819,0,.361-.019.741-.874.855-.171.019-.361.095-.361.171s.114.133.3.133c.4,0,1.2-.076,1.71-.076,1.026,0,1.235.057,1.539.057.171,0,.342-.038.342-.133,0-.057-.114-.133-.323-.171-.494-.114-.665-.285-1.159-1.463-1.273-2.964-2.071-4.864-3.534-8.778a7.659,7.659,0,0,1-.532-1.634C25.631-12.236,25.593-12.274,25.536-12.274Zm1.216,6.555a10.781,10.781,0,0,1-1.767.076c-.722,0-1.216,0-1.52-.019-.1,0-.076-.171-.057-.171.266-.8,1.026-2.907,1.558-4.2.057-.133.095-.19.152-.057.323.779.779,1.786,1.634,4.18C26.771-5.833,26.79-5.738,26.752-5.719ZM29.64-11.97c0,.057.114.133.418.19.532.095.969.4,1.558,1.235.551.8,2.071,3.325,2.812,4.617a1.382,1.382,0,0,1,.114.4A12.921,12.921,0,0,1,34.6-3.743c0,.836-.038,2.071-.076,2.47-.057.779-.133.95-.874,1.026-.247.038-.418.095-.418.171s.133.152.4.152c.513,0,.779-.076,1.33-.076.456,0,1.083.114,1.691.114.152,0,.323-.019.323-.114,0-.076-.076-.133-.4-.19-.665-.114-.76-.38-.817-1.254-.038-.646-.038-1.026-.038-1.52,0-.893,0-2.109.057-2.565a2.248,2.248,0,0,1,.3-.8,53.533,53.533,0,0,1,2.964-4.579,1.938,1.938,0,0,1,1.273-.855c.3-.038.418-.114.418-.19s-.114-.114-.342-.114c-.3,0-.8.076-1.254.076-.532,0-.836-.076-1.368-.076-.19,0-.3.038-.3.095,0,.1.171.171.342.19.532.114.684.247.684.475a2.316,2.316,0,0,1-.456.988c-.342.608-1.6,2.622-2.375,3.895-.057.095-.209,0-.228-.019-.475-.646-2.223-3.629-2.565-4.218a2.03,2.03,0,0,1-.323-.741c0-.133.095-.247.551-.342.209-.038.323-.1.323-.19,0-.057-.076-.114-.3-.114-.209,0-.779.057-1.349.057-.589,0-1.5-.1-1.767-.1C29.754-12.084,29.64-12.065,29.64-11.97Zm14.288,0c0,.057.114.133.3.171a1.693,1.693,0,0,1,1.064.513c.323.38.456.665.456,1.8,0,1.121-.266,5.491-.38,6.612a5.609,5.609,0,0,1-.4,2.033,1.357,1.357,0,0,1-1.026.646c-.247.038-.342.114-.342.171,0,.1.114.133.323.133.19,0,.7-.114,1.406-.114a15.73,15.73,0,0,1,1.577.095c.209.019.38-.019.38-.114,0-.076-.114-.152-.323-.19-.38-.1-.855-.266-.969-.722a5.41,5.41,0,0,1-.114-1.425c0-.551.228-5.662.3-6.9.019-.247.076-.247.171-.1.817,1.691,3.249,6.65,4.218,8.664.209.437.361.76.456.76s.171-.114.266-.3c.969-2.147,3.439-6.84,4.712-9.348.038-.1.095-.171.095.076,0,.76,0,6.08-.057,7.125-.057,1.615-.19,1.881-.988,2.09-.209.019-.4.095-.4.171,0,.133.209.152.418.152.285,0,.608-.038,1.425-.038.418,0,1.5.114,1.729.114.247,0,.342-.038.342-.114,0-.095-.114-.152-.285-.209-.741-.209-.95-.361-1.026-1.482-.038-.589-.1-2.451-.1-4.522,0-.969.019-3.4.057-3.99.057-1.14.152-1.349,1.273-1.634.133-.019.266-.095.266-.152,0-.076-.114-.114-.266-.114-.285,0-1.482.114-1.862.114-.1,0-.152.19-.171.228a14.961,14.961,0,0,1-.57,1.539c-.475.95-2.926,5.643-4.313,8.284-.076.133-.114.228-.19.095-1.425-2.679-4.085-7.942-4.978-9.88-.1-.209-.19-.266-.247-.266-.437,0-1.558-.057-1.881-.076C44.1-12.084,43.928-12.046,43.928-11.97Zm22.629-.361a6.376,6.376,0,0,0-3.667,1.216,5.815,5.815,0,0,0-2.451,4.959,6.45,6.45,0,0,0,6.194,6.5,6.091,6.091,0,0,0,2.451-.57,6.191,6.191,0,0,0,3.553-5.624A6.417,6.417,0,0,0,66.557-12.331Zm-.38.285a4.285,4.285,0,0,1,3.363,1.52,7.34,7.34,0,0,1,1.786,4.693,6.4,6.4,0,0,1-2.3,5.13,3.333,3.333,0,0,1-2.052.684,4.634,4.634,0,0,1-3.819-2.109,7.193,7.193,0,0,1-1.387-4.009,6.98,6.98,0,0,1,1.425-4.484A4.45,4.45,0,0,1,66.177-12.046Zm7.087.1c0,.076.133.152.361.19a1.317,1.317,0,0,1,1.083.893c.8,1.881,3.572,9.025,4.18,10.83.076.247.114.38.228.38.057,0,.133-.095.152-.209.057-.228.3-.912.741-2.014,1.805-4.389,2.907-7.163,3.268-7.98.665-1.5.912-1.71,1.577-1.9.3-.076.361-.152.361-.228,0-.038-.076-.076-.323-.076-.285,0-.779.076-1.216.076-.4,0-1.2-.1-1.6-.1-.285,0-.361.057-.361.114,0,.076.133.133.323.171.589.152.95.266.95.7a5.544,5.544,0,0,1-.38,1.5c-.323.912-2.7,7.011-3,7.7-.019.057-.076.019-.1-.038-.456-1.007-2.888-7.353-3.23-8.379a2.818,2.818,0,0,1-.209-.874c0-.247.228-.494.665-.551.247-.038.4-.1.4-.209,0-.038-.076-.114-.361-.114-.323,0-1.083.076-1.691.076-.247,0-1.14-.076-1.463-.076C73.454-12.065,73.264-12.027,73.264-11.951ZM85.8-11.97c0,.076.076.114.209.152.665.152.836.228.893.855A11.167,11.167,0,0,1,87-9.31c0,1.007.019,6.4-.019,7.486-.019,1.14-.114,1.444-.817,1.6-.323.076-.437.133-.437.19,0,.1.114.133.285.133.342,0,.912-.095,1.729-.095.456,0,1.007.057,1.178.057.228,0,.361-.019.361-.114,0-.076-.057-.133-.323-.19-.57-.152-.665-.247-.722-.969-.038-.532-.1-2.185-.1-4.978,0-1.235-.019-3.439.038-4.446.038-.8.114-1.045.855-1.178.209-.019.285-.095.285-.171,0-.038-.133-.076-.266-.076-.418,0-.95.076-1.482.076-.589,0-.95-.076-1.482-.076C85.9-12.065,85.8-12.027,85.8-11.97Zm5.4.019c0,.076.076.133.266.171.684.152.893.38.893,1.5,0,3.952-.019,5.8-.1,8.873A1.073,1.073,0,0,1,91.2-.19c-.209.038-.342.076-.342.152s.114.133.342.133C91.409.095,92.4,0,93.024,0c1.558,0,3.724.076,5.738.076.114,0,.19-.1.247-.209.114-.228.266-.893.418-1.406.076-.228.057-.342-.019-.342s-.152.076-.342.342a7.432,7.432,0,0,1-.665.874c-.342.3-.589.361-2.413.361-1.368,0-1.634-.038-1.957-.209a1.063,1.063,0,0,1-.513-.874c0-.361-.057-2.964-.057-3.914,0-.418,0-.437.171-.437a18.071,18.071,0,0,1,3.7.133.878.878,0,0,1,.456.57c.133.323.152.418.228.418.038,0,.171-.114.114-.4A5.078,5.078,0,0,1,98.1-6.042c.038-.342.114-.836.114-.95,0-.133-.038-.209-.095-.209s-.114.057-.19.209a1.479,1.479,0,0,1-.494.665c-.152.095-.3.133-1.273.133H93.575c-.057,0-.114-.057-.114-.342v-4.427c0-.646.076-.684.228-.7a36.606,36.606,0,0,1,3.8.057c.342.057.627.247.988,1.1.095.209.133.266.19.266.076,0,.1-.171.076-.285a9.286,9.286,0,0,1-.133-1.216c-.038-.228-.1-.323-.171-.323-.209,0-.437.038-1.14.038-.76,0-3.515.038-4.37.038-.608,0-1.026-.057-1.463-.057C91.314-12.046,91.2-11.989,91.2-11.951Z" transform="translate(910.201 232)" fill="#fff"/>
    <path id="パス_2" data-name="パス 2" d="M0,0H124.841V124.841H0Z" transform="translate(960.111 247.835) rotate(45)" fill="none" opacity="0.282"/>
    <g id="グループ_10" data-name="グループ 10" transform="translate(-0.111 -377.889)">
      <g id="グループ_9" data-name="グループ 9" transform="translate(87 302)">
        <g id="楕円形_1" data-name="楕円形 1" transform="translate(811 350)" fill="none" stroke="#fff" stroke-width="1">
          <circle cx="62.5" cy="62.5" r="62.5" stroke="none"/>
          <circle cx="62.5" cy="62.5" r="62" fill="none"/>
        </g>
        <g id="多角形_1" data-name="多角形 1" transform="translate(892 407) rotate(90)" fill="#fff">
          <path d="M 10.38787841796875 26.5 L 0.6121214628219604 26.5 L 5.5 2.504960060119629 L 10.38787841796875 26.5 Z" stroke="none"/>
          <path d="M 5.5 5.009920120239258 L 1.2242431640625 26 L 9.7757568359375 26 L 5.5 5.009920120239258 M 5.5 0 L 11 27 L 0 27 L 5.5 0 Z" stroke="none" fill="#fff"/>
        </g>
      </g>
      <g id="長方形_4" data-name="長方形 4" transform="translate(960.5 626.112) rotate(45)" fill="none" stroke="#fff" stroke-width="1">
        <rect width="125" height="125" stroke="none"/>
        <rect x="0.5" y="0.5" width="124" height="124" fill="none"/>
      </g>
    </g>
  </g>
</svg>
