<?xml version="1.0" encoding="UTF-8"?>
<svg id="_レイヤー_1" xmlns="http://www.w3.org/2000/svg" version="1.1" viewBox="0 0 263 61">
  <!-- Generator: Adobe Illustrator 29.6.1, SVG Export Plug-In . SVG Version: 2.1.1 Build 9)  -->
  <defs>
    <style>
      .st0 {
        fill: #f9f7f7;
      }
    </style>
  </defs>
  <g>
    <path class="st0" d="M105.9,35.2v6.3h-20.3V8.3h20.3v6.3h-13.3v7h11.7v5.9h-11.7v7.7h13.3Z"/>
    <path class="st0" d="M111,39v-7.2c3.4,2.4,6.8,3.5,9.4,3.5s4.5-1.5,4.5-3.2c0-5.5-13.9-4-13.9-14.2s4.1-9.9,11.5-9.9,6.7,1.1,8.7,2.5v7.1c-2.6-2.1-5.7-3.2-8.2-3.2s-4.5,1.6-4.5,3.1c0,5,14.4,4.2,14.4,14.7s-4.5,9.8-11.8,9.8-7.2-.9-10.1-2.9Z"/>
    <path class="st0" d="M172.9,10.2v5.8c-1.8-1.5-4.8-2.8-8.4-2.8-7.2,0-12.1,5.3-12.1,12.1s5,11.3,11.6,11.3,7.1-1.2,8.9-3v5.7c-1.9,1.6-5.6,2.6-9.6,2.6-9.9,0-16.8-6.5-16.8-16.4s6.9-17.6,17.5-17.6,7.4,1.1,8.9,2.2Z"/>
    <path class="st0" d="M177.1,25c0-10.3,7.5-17.1,16.5-17.1s15.8,7.2,15.8,16.9-7.3,17.1-16.2,17.1-16.1-6.8-16.1-16.8ZM203.8,24.8c0-6.7-4.1-11.7-10.2-11.7s-10.9,5-10.9,11.9,4.3,11.6,10.5,11.6,10.6-4.7,10.6-11.8Z"/>
    <g>
      <path class="st0" d="M85.7,48.9h.9v6.2s-.9,0-.9,0v-6.2Z"/>
      <path class="st0" d="M101.7,48.9h.9v6.2h-.9v-6.2Z"/>
      <path class="st0" d="M108.9,54.3v.2c-.3.4-.7.7-1.2.7-.8,0-1-.7-1-1.2v-2.2h-.6v-.2l.5-.6.8-.9h.2v.9h1.3v.8h-1.3v1.9c0,.3,0,.8.6.8s.5,0,.8-.1Z"/>
      <path class="st0" d="M109.5,53.1c0-1.2.8-2.2,2-2.2s2,1,2,2.1-.8,2.1-2,2.1-2-1-2-2.1ZM112.7,53.1c0-.8-.5-1.4-1.1-1.4s-1.2.6-1.2,1.4.4,1.3,1.2,1.3,1.2-.6,1.2-1.4Z"/>
      <g>
        <path class="st0" d="M118.2,52.5h-.7v2.6h-.9v-6.2h1.9c1.2,0,1.9.7,1.9,1.8s-.5,1.5-1.2,1.8l1.6,2.4h-1l-1.5-2.3ZM117.5,51.8h.9c.6,0,1.1-.3,1.1-1s-.4-1-1.1-1h-.9v2.1Z"/>
        <path class="st0" d="M119.4,52.7l1.6,2.4h-1l-1.5-2.3"/>
      </g>
      <path class="st0" d="M124.9,53.2h-2.9c0,.7.6,1.2,1.3,1.2s.9-.1,1.4-.4v.8c-.4.2-.9.4-1.5.4-1.4,0-2-1-2-2.1s.8-2.1,2-2.1,1.8.8,1.8,2.1,0,.2,0,.2ZM122,52.6h2.1c0-.6-.4-1-1-1s-1,.4-1.1,1Z"/>
      <path class="st0" d="M129,52.5v2.7h-.8v-.5c-.3.4-.8.5-1.2.5-.8,0-1.3-.4-1.3-1.1s.9-1.4,2.4-1.6h0c0-.3,0-.8-.7-.8s-.9.1-1.3.5v-.8c.4-.3,1-.4,1.5-.4,1.1,0,1.4.6,1.4,1.5ZM128.1,53.4v-.3c-1.1.2-1.6.4-1.6.9s.2.6.6.6c.5,0,1-.5,1-1.2Z"/>
      <path class="st0" d="M130.4,48.9h.9v6.2h-.9v-6.2Z"/>
      <path class="st0" d="M96.2,53.2h-2.9c0,.7.6,1.2,1.3,1.2s.9-.1,1.4-.4v.8c-.4.2-.9.4-1.5.4-1.4,0-2-1-2-2.1s.8-2.1,2-2.1,1.8.8,1.8,2.1,0,.2,0,.2ZM93.3,52.6h2.1c0-.6-.4-1-1-1s-1,.4-1.1,1Z"/>
      <path class="st0" d="M100.3,52.5v2.7h-.8v-.5c-.3.4-.8.5-1.2.5-.8,0-1.3-.4-1.3-1.1s.9-1.4,2.4-1.6h0c0-.3,0-.8-.7-.8s-.9.1-1.3.5v-.8c.4-.3,1-.4,1.5-.4,1.1,0,1.4.6,1.4,1.5ZM99.4,53.4v-.3c-1.1.2-1.6.4-1.6.9s.2.6.6.6c.5,0,1-.5,1-1.2Z"/>
      <path class="st0" d="M91.5,48.9v6.2h-.9v-.5c-.3.3-.7.6-1.2.6-1,0-1.8-.7-1.8-2.1s1-2.2,2-2.2.7,0,1,.3v-2.3h.9ZM90.6,53.3v-1.2c-.2-.2-.6-.4-.9-.4-.7,0-1.2.5-1.2,1.5s.4,1.4,1,1.4,1.1-.5,1.1-1.2Z"/>
    </g>
    <path class="st0" d="M243.5,8.3v33.2h-.9l-21.8-21.2v21.2h-5.5V8.3h.9l21.8,21.2V8.3h5.4Z"/>
  </g>
  <g>
    <path class="st0" d="M29.3,19.3v2.6h-8.3v-13.6h8.3v2.6h-5.5v2.9h4.8v2.4h-4.8v3.2h5.5Z"/>
    <path class="st0" d="M20.8,40.5v-3c1.4,1,2.8,1.4,3.9,1.4s1.8-.6,1.8-1.3c0-2.3-5.7-1.6-5.7-5.8s1.7-4.1,4.7-4.1,2.7.4,3.6,1v2.9c-1.1-.9-2.3-1.3-3.4-1.3s-1.8.7-1.8,1.3c0,2.1,5.9,1.7,5.9,6s-1.8,4-4.8,4-3-.4-4.1-1.2Z"/>
    <path class="st0" d="M64.7,9.1v2.4c-.7-.6-2-1.2-3.4-1.2-3,0-5,2.2-5,5s2,4.6,4.8,4.6,2.9-.5,3.6-1.2v2.4c-.8.6-2.3,1.1-3.9,1.1-4.1,0-6.9-2.7-6.9-6.7s2.8-7.2,7.2-7.2,3,.5,3.7.9Z"/>
    <path class="st0" d="M65.4,27.9v13.6h-.4l-8.9-8.7v8.7h-2.2v-13.6h.4l8.9,8.7v-8.7h2.2Z"/>
    <rect class="st0" x="32.4" y="24.4" width="18.4" height=".9" transform="translate(-5.4 36.7) rotate(-45)"/>
  </g>
</svg>